# Blender v2.76 (sub 0) OBJ File: 'planks.blend'
# www.blender.org
mtllib planks.mtl
g Tunnela1
v 0.090000 1.580000 -0.165999
v 0.225000 1.580000 -0.205999
v 0.225000 1.580000 -0.165999
v 0.375000 1.580000 -0.165999
v 0.375000 1.580000 -0.205999
v 0.090000 1.580000 -0.205999
v 0.510000 1.450000 -0.220999
v 0.510000 1.580000 -0.220999
v 0.510000 1.450000 -0.150999
v 0.510000 1.580000 -0.150999
v -0.090000 1.580000 -0.165999
v -0.225000 1.580000 -0.205999
v -0.225000 1.580000 -0.165999
v -0.375000 1.580000 -0.165999
v -0.375000 1.580000 -0.205999
v -0.090000 1.580000 -0.205999
v -0.510000 1.450000 -0.220999
v -0.510000 1.580000 -0.220999
v -0.510000 1.450000 -0.150999
v -0.510000 1.580000 -0.150999
v 0.375000 1.810000 -0.165999
v 0.375000 1.810000 -0.205999
v 0.090000 1.810000 -0.165999
v 0.225000 1.810000 -0.165999
v 0.090000 1.810000 -0.205999
v 0.225000 1.810000 -0.205999
v -0.375000 1.810000 -0.165999
v -0.375000 1.810000 -0.205999
v -0.090000 1.810000 -0.165999
v -0.225000 1.810000 -0.165999
v -0.090000 1.810000 -0.205999
v -0.225000 1.810000 -0.205999
v 0.225000 1.580000 -0.220999
v 0.375000 1.580000 -0.220999
v 0.090000 1.580000 -0.220999
v -0.090000 1.580000 -0.220999
v -0.225000 1.580000 -0.220999
v -0.375000 1.580000 -0.220999
v -0.225000 1.580000 -0.150999
v -0.375000 1.580000 -0.150999
v 0.090000 1.580000 -0.150999
v -0.090000 1.580000 -0.150999
v 0.225000 1.580000 -0.150999
v 0.375000 1.580000 -0.150999
vt 0.342812 0.028336
vt 0.344586 0.028336
vt 0.344586 0.057602
vt 0.342812 0.057602
vt 0.243006 0.049097
vt 0.243006 0.042517
vt 0.272619 0.042517
vt 0.272619 0.049097
vt 0.341030 0.057602
vt 0.341030 0.028336
vt 0.339239 0.028336
vt 0.339239 0.057602
vt 0.337465 0.057602
vt 0.337465 0.028336
vt 0.346368 0.028336
vt 0.346368 0.057602
vt 0.348151 0.028336
vt 0.348151 0.057602
vt 0.266470 0.019834
vt 0.273373 0.019834
vt 0.273373 0.058291
vt 0.266470 0.058291
vt 0.283603 0.054054
vt 0.283613 0.055478
vt 0.263272 0.055612
vt 0.263262 0.054188
vt 0.267683 0.049105
vt 0.267683 0.055686
vt 0.243006 0.055686
vt 0.267683 0.062274
vt 0.243006 0.062274
vt 0.280282 0.019834
vt 0.280282 0.058291
vt 0.276478 0.055058
vt 0.270695 0.055058
vt 0.270695 0.029615
vt 0.276478 0.029615
vt 0.264883 0.055058
vt 0.257944 0.055058
vt 0.257944 0.029615
vt 0.264883 0.029615
vt 0.282290 0.055058
vt 0.282290 0.029615
vt 0.288073 0.029615
vt 0.288073 0.055058
vt 0.250990 0.055058
vt 0.250990 0.029615
vt 0.348885 0.037875
vt 0.354896 0.037657
vt 0.354886 0.038276
vt 0.348896 0.038477
vt 0.336225 0.037886
vt 0.343463 0.037885
vt 0.343464 0.038489
vt 0.336224 0.038489
vt 0.324752 0.037315
vt 0.330825 0.037868
vt 0.330803 0.038472
vt 0.324704 0.038045
vt 0.330802 0.036287
vt 0.324792 0.036504
vt 0.324801 0.035885
vt 0.330792 0.035684
vt 0.343463 0.036276
vt 0.336225 0.036276
vt 0.336224 0.035673
vt 0.343463 0.035673
vt 0.354935 0.036847
vt 0.348862 0.036294
vt 0.348884 0.035690
vt 0.354984 0.036116
vt 0.320846 0.037872
vt 0.320943 0.035712
vt 0.358841 0.036290
vt 0.358744 0.038450
vt 0.283665 0.063411
vt 0.278073 0.063545
vt 0.278072 0.063448
vt 0.275325 0.063466
vt 0.271664 0.063490
vt 0.268918 0.063508
vt 0.265867 0.063529
vt 0.263324 0.063545
vt 0.263210 0.046255
vt 0.268802 0.046121
vt 0.268804 0.046218
vt 0.271550 0.046200
vt 0.275211 0.046176
vt 0.277957 0.046158
vt 0.281008 0.046138
vt 0.283551 0.046121
vn 1.000000 0.000000 0.000000
vn 0.000000 1.000000 0.000000
vn -1.000000 0.000000 0.000000
vn 0.000000 -1.000000 0.000000
vn 0.000000 0.000000 -1.000000
vn 0.000000 0.000000 1.000000
usemtl TunnelMain
s off
f 4/1/1 5/2/1 22/3/1 21/4/1
f 31/5/2 29/6/2 23/7/2 25/8/2
f 14/1/3 27/4/3 28/9/3 15/10/3
f 11/11/3 29/12/3 31/13/3 16/14/3
f 13/2/1 12/15/1 32/16/1 30/3/1
f 3/10/3 24/9/3 26/12/3 2/11/3
f 23/16/1 1/15/1 6/17/1 25/18/1
f 9/19/1 7/20/1 8/21/1 10/22/1
f 7/23/4 9/24/4 19/25/4 17/26/4
f 30/27/2 32/28/2 28/29/2 27/5/2
f 24/29/2 21/28/2 22/30/2 26/31/2
f 18/21/3 17/20/3 19/32/3 20/33/3
f 26/34/5 22/35/5 5/36/5 2/37/5
f 31/38/5 25/39/5 6/40/5 16/41/5
f 32/38/5 12/41/5 15/36/5 28/35/5
f 24/42/6 3/43/6 4/44/6 21/45/6
f 23/39/6 29/46/6 11/47/6 1/40/6
f 30/42/6 27/34/6 14/37/6 13/43/6
f 2/48/2 5/49/2 34/50/2 33/51/2
f 16/52/2 6/53/2 35/54/2 36/55/2
f 15/56/2 12/57/2 37/58/2 38/59/2
f 13/60/2 14/61/2 40/62/2 39/63/2
f 1/64/2 11/65/2 42/66/2 41/67/2
f 4/68/2 3/69/2 43/70/2 44/71/2
f 15/56/2 38/59/2 18/72/2 20/73/2 40/62/2 14/61/2
f 5/49/2 4/68/2 44/71/2 10/74/2 8/75/2 34/50/2
f 3/69/2 2/48/2 33/51/2 35/54/2 6/53/2 1/64/2 41/67/2 43/70/2
f 13/60/2 39/63/2 42/66/2 11/65/2 16/52/2 36/55/2 37/58/2 12/57/2
f 9/24/6 10/76/6 44/77/6 43/78/6 41/79/6 42/80/6 39/81/6 40/82/6 20/83/6 19/25/6
f 18/84/5 38/85/5 37/86/5 36/87/5 35/88/5 33/89/5 34/90/5 8/91/5 7/23/5 17/26/5
