# Blender v2.76 (sub 0) OBJ File: 'Roome5.blend'
# www.blender.org
mtllib Roome5.mtl
g Tunnela1
v 3.000000 0.400000 0.000000
v 3.000000 0.000000 -3.000000
v -3.000000 0.000000 3.000000
v -3.000000 0.400000 0.000000
v -3.000000 2.200000 3.000000
v 0.000000 0.400000 -3.000000
v 3.000000 2.200000 -3.000000
v 0.000000 0.400000 0.000000
v 3.000000 0.000000 0.000000
v -3.000000 0.000000 0.000000
v 0.000000 0.000000 -3.000000
v 0.000000 0.000000 3.000000
v 0.000000 0.000000 0.000000
v 3.000000 2.200000 0.000000
v -3.000000 2.200000 0.000000
v 0.000000 2.200000 3.000000
v 0.000000 2.200000 -3.000000
v 0.000000 2.200000 0.000000
v 0.000000 0.400000 3.000000
vt 0.514268 0.122265
vt 0.496903 0.122265
vt 0.496903 0.104900
vt 0.514268 0.104900
vt 0.479531 0.122265
vt 0.479531 0.104900
vt 0.630218 0.109910
vt 0.637564 0.109910
vt 0.637564 0.117256
vt 0.630218 0.117256
vt 0.622869 0.117256
vt 0.622869 0.109910
vt 0.555632 0.121147
vt 0.555632 0.112456
vt 0.577358 0.112456
vt 0.577358 0.121147
vt 0.555632 0.103755
vt 0.577358 0.103755
vt 0.577358 0.112445
vt 0.555632 0.112445
vt 0.654123 0.115548
vt 0.648478 0.115548
vt 0.648478 0.106517
vt 0.654123 0.106517
vt 0.642822 0.115548
vt 0.637178 0.115548
vt 0.637178 0.106517
vt 0.642822 0.106517
vt 0.637178 0.115554
vt 0.642822 0.115554
vt 0.642822 0.124585
vt 0.637178 0.124585
vt 0.719953 0.095054
vt 0.741679 0.095054
vt 0.741679 0.103744
vt 0.719953 0.103744
vt 0.719953 0.121158
vt 0.741679 0.121158
vt 0.741679 0.129848
vt 0.719953 0.129848
vn 0.000000 1.000000 0.000000
vn 0.000000 -1.000000 0.000000
vn 0.000000 0.000000 1.000000
vn -1.000000 0.000000 0.000000
vn 1.000000 0.000000 0.000000
vn 0.000000 0.000000 -1.000000
usemtl TunnelMain
s off
f 13/1/1 10/2/1 3/3/1 12/4/1
f 2/3/1 11/2/1 13/5/1 9/6/1
f 17/7/2 7/8/2 14/9/2 18/10/2
f 15/7/2 18/10/2 16/11/2 5/12/2
f 4/13/3 10/14/3 13/15/3 8/16/3
f 19/17/4 8/18/4 13/19/4 12/20/4
f 16/21/4 18/22/4 8/23/4 19/24/4
f 18/25/3 15/26/3 4/27/3 8/28/3
f 8/29/5 6/30/5 17/31/5 18/32/5
f 13/33/5 11/34/5 6/35/5 8/36/5
f 18/22/6 14/25/6 1/28/6 8/23/6
f 8/37/6 1/38/6 9/39/6 13/40/6
