# Blender v2.76 (sub 0) OBJ File: 'Roomc5.blend'
# www.blender.org
mtllib Roomc5.mtl
g Tunnela1
v 3.000000 0.400000 0.000000
v 3.000000 0.000000 -3.000000
v -3.000000 0.000000 3.000000
v -3.000000 0.400000 0.000000
v -3.000000 2.200000 3.000000
v 0.000000 0.400000 -3.000000
v 3.000000 2.200000 -3.000000
v 0.000000 0.400000 0.000000
v 3.000000 0.000000 0.000000
v -3.000000 0.000000 0.000000
v 0.000000 0.000000 -3.000000
v 0.000000 0.000000 3.000000
v 0.000000 0.000000 0.000000
v 3.000000 2.200000 0.000000
v -3.000000 2.200000 0.000000
v 0.000000 2.200000 3.000000
v 0.000000 2.200000 -3.000000
v 0.000000 2.200000 0.000000
v 0.000000 0.400000 3.000000
vt 0.749898 0.047856
vt 0.732533 0.047856
vt 0.732533 0.030491
vt 0.749898 0.030491
vt 0.715161 0.047856
vt 0.715161 0.030491
vt 0.865848 0.035500
vt 0.873194 0.035500
vt 0.873194 0.042846
vt 0.865848 0.042846
vt 0.858499 0.042846
vt 0.858499 0.035500
vt 0.955583 0.046737
vt 0.955583 0.038047
vt 0.977309 0.038047
vt 0.977309 0.046737
vt 0.955583 0.029346
vt 0.977309 0.029346
vt 0.889752 0.041139
vt 0.884108 0.041139
vt 0.884108 0.032108
vt 0.889752 0.032108
vt 0.878452 0.041139
vt 0.872808 0.041139
vt 0.872808 0.032108
vt 0.878452 0.032108
vt 0.878452 0.050176
vt 0.872808 0.050176
vt 0.955583 0.020644
vt 0.977309 0.020644
vt 0.977309 0.055439
vt 0.955583 0.055439
vn 0.000000 1.000000 0.000000
vn 0.000000 -1.000000 0.000000
vn 0.000000 0.000000 1.000000
vn -1.000000 0.000000 0.000000
vn 1.000000 0.000000 0.000000
vn 0.000000 0.000000 -1.000000
usemtl TunnelMain
s off
f 13/1/1 10/2/1 3/3/1 12/4/1
f 2/3/1 11/2/1 13/5/1 9/6/1
f 17/7/2 7/8/2 14/9/2 18/10/2
f 15/7/2 18/10/2 16/11/2 5/12/2
f 4/13/3 10/14/3 13/15/3 8/16/3
f 19/17/4 8/18/4 13/15/4 12/14/4
f 16/19/4 18/20/4 8/21/4 19/22/4
f 18/23/3 15/24/3 4/25/3 8/26/3
f 8/24/5 6/23/5 17/27/5 18/28/5
f 13/29/5 11/30/5 6/18/5 8/17/5
f 18/20/6 14/23/6 1/26/6 8/21/6
f 8/13/6 1/16/6 9/31/6 13/32/6
