# Blender v2.76 (sub 0) OBJ File: 'Roomc2.blend'
# www.blender.org
mtllib Roomc2.mtl
g Tunnela1
v 3.000000 0.000000 0.000000
v 0.100000 0.000000 0.000000
v 0.100000 0.000000 0.040000
v -3.000000 0.000000 0.000000
v -0.100000 0.000000 0.040000
v 0.000000 0.000000 0.000000
v -0.100000 0.000000 0.000000
v -0.100000 2.200000 0.040000
v -0.100000 0.400000 0.040000
v 3.000000 2.200000 0.000000
v 0.100000 2.200000 0.000000
v -3.000000 2.200000 0.000000
v 0.000000 2.000000 0.000000
v -0.100000 2.200000 0.000000
v 0.000000 0.000000 0.000000
v -0.100000 0.000000 0.000000
v 0.100000 0.000000 0.000000
v 0.100000 2.000000 0.000000
v 0.000000 2.000000 0.000000
v -0.100000 2.000000 0.000000
v 3.000000 0.400000 0.000000
v 0.100000 0.400000 0.000000
v -0.100000 0.400000 0.000000
v -3.000000 0.400000 0.000000
v 0.100000 2.200000 0.040000
v 0.100000 0.400000 0.040000
v -3.000000 0.000000 3.000000
v -3.000000 2.200000 3.000000
v 3.000000 2.200000 3.000000
v 3.000000 0.000000 3.000000
vt 0.936424 0.052770
vt 0.936424 0.038948
vt 0.969826 0.038948
vt 0.969826 0.052770
vt 0.936424 0.025118
vt 0.969826 0.025118
vt 0.030790 0.125928
vt 0.029708 0.125928
vt 0.029708 0.099945
vt 0.029708 0.093449
vt 0.030790 0.093449
vt 0.030790 0.099945
vt 0.964085 0.027677
vt 0.964328 0.027679
vt 0.964261 0.034949
vt 0.964019 0.034947
vt 0.964261 0.048837
vt 0.964019 0.048835
vt 0.964571 0.048837
vt 0.964571 0.034950
vt 0.851885 0.043480
vt 0.851885 0.027442
vt 0.861575 0.027442
vt 0.861575 0.043480
vt 0.871270 0.027442
vt 0.871270 0.043480
vt 0.872910 0.034494
vt 0.872910 0.015281
vt 0.892785 0.015281
vt 0.892785 0.055031
vt 0.872910 0.055031
vt 0.872910 0.035819
vt 0.000000 0.000000
vt 0.964395 0.027677
vt 0.964637 0.027679
vt 0.709548 0.049558
vt 0.709548 0.036450
vt 0.735764 0.036450
vt 0.735764 0.049558
vt 0.723093 0.049558
vt 0.722219 0.049558
vn 0.000000 0.000000 1.000000
vn -1.000000 0.000000 0.000000
vn 1.000000 0.000000 0.000000
vn 0.000000 -1.000000 0.000000
vn 0.000000 1.000000 0.000000
usemtl TunnelMain
s off
f 24/1/1 4/2/1 7/3/1 23/4/1
f 22/2/1 2/5/1 1/6/1 21/3/1
f 25/7/1 8/8/1 9/9/1 5/10/1 3/11/1 26/12/1
f 7/13/2 5/14/2 9/15/2 23/16/2
f 23/16/2 9/15/2 8/17/2 14/18/2
f 11/19/3 25/17/3 26/15/3 22/20/3
f 11/21/1 22/22/1 21/23/1 10/24/1
f 12/24/1 24/23/1 23/25/1 14/26/1
f 11/27/4 10/28/4 29/29/4 28/30/4 12/31/4 14/32/4
f 14/33/5 8/33/5 25/33/5 11/33/5
f 22/20/3 26/15/3 3/34/3 2/35/3
f 2/33/4 3/33/4 5/33/4 7/33/4
f 4/36/5 27/37/5 30/38/5 1/39/5 2/40/5 7/41/5
l 17 16
l 18 20
l 14 20
l 16 7
l 2 17
l 18 11
l 15 6
l 13 19
