# Blender v2.76 (sub 0) OBJ File: 'Rooma1.blend'
# www.blender.org
mtllib Rooma1.mtl
g Tunnela1
v 0.000000 0.000000 0.000000
v 0.000000 0.000000 3.000000
v 0.000000 2.000000 0.000000
v 0.000000 2.000000 3.000000
v 0.000000 0.000000 3.000000
v 0.000000 2.000000 3.000000
v 0.000000 0.400000 3.000000
v -3.000000 0.000000 0.000000
v 0.000000 0.000000 3.000000
v -3.000000 0.000000 3.000000
v -3.000000 0.400000 0.000000
v 0.000000 2.000000 3.000000
v -3.000000 2.000000 0.000000
v -3.000000 2.000000 3.000000
v 0.000000 0.400000 0.000000
vt 0.120613 0.036861
vt 0.120613 0.054319
vt 0.103155 0.054319
vt 0.103155 0.036861
vt 0.035822 0.043006
vt 0.014967 0.043006
vt 0.014967 0.022150
vt 0.035822 0.022150
vt 0.189941 0.027047
vt 0.189941 0.035221
vt 0.169508 0.035221
vt 0.169508 0.027047
vt 0.033245 0.040411
vt 0.023048 0.040411
vt 0.023048 0.024095
vt 0.033245 0.024095
vt 0.210375 0.027047
vt 0.210375 0.035221
vt 0.043442 0.040411
vt 0.043442 0.024095
vn 0.000000 1.000000 0.000000
vn 0.000000 -1.000000 0.000000
vn -0.000000 0.000000 1.000000
vn -1.000000 0.000000 -0.000000
usemtl TunnelMain
s off
f 10/1/1 9/2/1 1/3/1 8/4/1
f 14/5/2 13/6/2 3/7/2 12/8/2
f 1/9/3 15/10/3 11/11/3 8/12/3
f 3/13/3 13/14/3 11/15/3 15/16/3
f 1/9/4 9/17/4 7/18/4 15/10/4
f 12/19/4 3/13/4 15/16/4 7/20/4
l 5 2
l 4 6
