# Blender v2.76 (sub 0) OBJ File: 'Roome8.blend'
# www.blender.org
mtllib Roome8.mtl
g Tunnela1
v -0.000910 2.000000 -0.000004
v -0.000910 2.000000 -0.000004
v -0.000910 0.000000 -0.000004
v -0.000910 2.200000 -0.000004
v 2.999089 0.000000 -0.800009
v 2.999089 2.200000 -0.800009
v 2.999089 0.400000 -0.800009
v -0.000908 0.000000 1.599996
v -0.000908 2.200000 1.599996
v 2.999092 0.000000 0.799991
v 2.999092 2.200000 0.799991
v -0.000908 0.400000 1.599996
v 2.999092 0.400000 0.799991
v 0.199090 0.000000 -0.000004
v 0.199090 0.400000 -0.000004
v 0.199093 2.200000 1.599995
v 0.199093 0.000000 1.599995
v 0.199090 2.200000 -0.000004
v 0.199093 0.400000 1.599995
v -0.000909 2.200000 0.799996
v 2.999090 2.200000 -0.000009
v 0.199091 2.200000 0.799995
v 0.199092 2.200000 1.299995
v -0.000908 2.200000 1.299996
v 2.999091 2.200000 0.499991
v -0.000910 2.200000 0.299996
v 2.999089 2.200000 -0.500009
v 0.199091 2.200000 0.299995
v -0.000908 0.400000 1.299996
v -0.000908 0.000000 1.299996
v 0.199092 2.200000 1.299995
v -0.000908 2.200000 1.299996
v 0.199092 0.000000 1.299995
v 0.199092 0.400000 1.299995
v -0.000910 0.400000 0.299996
v -0.000910 0.000000 0.299996
v -0.000910 2.200000 0.299996
v 0.199091 2.200000 0.299995
v 0.199091 0.000000 0.299995
v 0.199091 0.400000 0.299995
v 2.999090 0.000000 -0.000009
v -0.000909 0.000000 0.799996
v 0.099091 0.000000 0.799995
v 2.999091 0.000000 0.499991
v -0.000908 0.000000 1.299996
v 0.099092 0.000000 1.299995
v 2.999089 0.000000 -0.500009
v -0.000910 0.000000 0.299996
v 0.099090 0.000000 0.299996
v -0.000908 1.800000 1.299996
v -0.000909 1.800000 0.799996
v 0.199091 1.800000 0.299995
v 0.199091 1.800000 0.799995
v 0.199092 1.800000 1.299995
v -0.000910 1.800000 0.299996
v -0.000906 0.000000 2.999995
v -0.000906 2.200000 2.999995
v -0.000906 0.400000 2.999995
v -0.000001 0.000000 0.000906
v -0.000001 2.200000 0.000906
v 0.799995 0.000000 -2.999096
v 0.799995 2.200000 -2.999096
v -0.000001 0.400000 0.000906
v 0.799995 0.400000 -2.999096
v -1.600001 0.000000 0.000908
v -1.600001 2.200000 0.000908
v -0.800005 0.000000 -2.999094
v -0.800005 2.200000 -2.999094
v -1.600001 0.400000 0.000908
v -0.800005 0.400000 -2.999094
v -0.000001 0.000000 -0.199095
v -0.000001 0.400000 -0.199095
v -1.600001 2.200000 -0.199092
v -1.600001 0.000000 -0.199092
v -0.000001 2.200000 -0.199095
v -1.600001 0.400000 -0.199092
v -0.800000 2.200000 0.000907
v -0.000005 2.200000 -2.999095
v -0.800001 2.200000 -0.199093
v -1.300001 2.200000 -0.199093
v -1.300000 2.200000 0.000908
v -0.500005 2.200000 -2.999094
v -0.300001 2.200000 0.000906
v 0.499994 2.200000 -2.999095
v -0.300001 2.200000 -0.199094
v -1.300000 0.400000 0.000908
v -1.300000 0.000000 0.000908
v -1.300001 2.200000 -0.199093
v -1.300000 2.200000 0.000908
v -1.300001 0.000000 -0.199093
v -1.300001 0.400000 -0.199093
v -0.300001 0.400000 0.000906
v -0.300001 0.000000 0.000906
v -0.300001 2.200000 0.000906
v -0.300001 2.200000 -0.199094
v -0.300001 0.000000 -0.199094
v -0.300001 0.400000 -0.199094
v -0.000005 0.000000 -2.999095
v -0.800000 0.000000 0.000907
v -0.800001 0.000000 -0.099093
v -0.500005 0.000000 -2.999094
v -1.300000 0.000000 0.000908
v -1.300001 0.000000 -0.099093
v 0.499994 0.000000 -2.999095
v -0.300001 0.000000 0.000906
v -0.300001 0.000000 -0.099094
v -1.300000 1.800000 0.000908
v -0.800000 1.800000 0.000907
v -0.300001 1.800000 -0.199094
v -0.800001 1.800000 -0.199093
v -1.300001 1.800000 -0.199093
v -0.300001 1.800000 0.000906
v -3.000001 0.000000 0.000910
v -3.000001 2.200000 0.000910
v -3.000001 0.400000 0.000910
v -3.000000 0.000000 3.000910
v -3.000000 2.200000 3.000910
vt 0.568848 0.105547
vt 0.583124 0.105547
vt 0.583124 0.116968
vt 0.568848 0.116968
vt 0.033071 0.674403
vt 0.022730 0.674403
vt 0.568848 0.128396
vt 0.583124 0.128396
vt 0.645344 0.120175
vt 0.641309 0.120175
vt 0.033071 0.682676
vt 0.033071 0.685434
vt 0.022730 0.685434
vt 0.022730 0.682676
vt 0.641309 0.123403
vt 0.645344 0.123403
vt 0.645344 0.124479
vt 0.641309 0.124479
vt 0.649410 0.106170
vt 0.649410 0.116306
vt 0.643944 0.116306
vt 0.643944 0.106170
vt 0.643134 0.121779
vt 0.632998 0.121779
vt 0.632998 0.116313
vt 0.643134 0.116313
vt 0.649922 0.107257
vt 0.649922 0.120170
vt 0.649379 0.123403
vt 0.649379 0.124479
vt 0.645344 0.122327
vt 0.645344 0.121251
vt 0.649379 0.120175
vt 0.649379 0.121251
vt 0.649379 0.122327
vt 0.641309 0.121251
vt 0.652625 0.124751
vt 0.652625 0.104578
vt 0.658929 0.104578
vt 0.658929 0.124751
vt 0.554571 0.105547
vt 0.554571 0.116968
vt 0.552969 0.121505
vt 0.552969 0.129723
vt 0.649462 0.098114
vt 0.649462 0.116428
vt 0.648784 0.116428
vt 0.648784 0.098114
vt 0.554571 0.128396
vt 0.650479 0.098114
vt 0.650479 0.116428
vt 0.651758 0.134905
vt 0.645498 0.134905
vt 0.645498 0.119879
vt 0.651758 0.119879
vt 0.658019 0.119879
vt 0.658019 0.134905
vt 0.033071 0.677161
vt 0.022730 0.677161
vt 0.500334 0.111735
vt 0.500637 0.112795
vt 0.500940 0.113855
vt 0.500728 0.113916
vt 0.500425 0.112856
vt 0.500122 0.111796
vt 0.645498 0.117375
vt 0.651758 0.117375
vt 0.658019 0.117375
vt 0.507573 0.113795
vt 0.507754 0.114431
vt 0.501333 0.114431
vt 0.500364 0.111039
vt 0.506785 0.111039
vt 0.506967 0.111675
vt 0.507270 0.112735
vt 0.645498 0.102350
vt 0.651758 0.102350
vt 0.658019 0.102350
vt 0.641286 0.121160
vt 0.641286 0.107332
vt 0.644871 0.107332
vt 0.644871 0.121160
vt 0.638471 0.106170
vt 0.638471 0.116306
vt 0.655406 0.120953
vt 0.654139 0.120953
vt 0.654139 0.098146
vt 0.655406 0.098146
vt 0.663950 0.121705
vt 0.654364 0.121705
vt 0.654364 0.103928
vt 0.663950 0.103928
vt 0.652221 0.106022
vt 0.653134 0.106022
vt 0.653134 0.122470
vt 0.652221 0.122470
vt 0.653376 0.121705
vt 0.653376 0.103928
vt 0.653295 0.098146
vt 0.653295 0.120953
vt 0.574883 0.121500
vt 0.574883 0.113282
vt 0.652028 0.098146
vt 0.652028 0.120953
vt 0.642681 0.115068
vt 0.641431 0.115068
vt 0.641431 0.112069
vt 0.642681 0.112069
vt 0.643931 0.112069
vt 0.643931 0.115068
vt 0.503272 0.105014
vt 0.503533 0.105014
vt 0.503533 0.106316
vt 0.503533 0.107618
vt 0.503272 0.107618
vt 0.503272 0.106316
vt 0.641431 0.111569
vt 0.642681 0.111569
vt 0.643931 0.111569
vt 0.495719 0.109702
vt 0.495719 0.108400
vt 0.495719 0.107098
vt 0.495719 0.106316
vt 0.503012 0.104232
vt 0.503012 0.108400
vt 0.495719 0.110484
vt 0.643931 0.108570
vt 0.641431 0.108570
vt 0.642681 0.108570
vt 0.647956 0.122470
vt 0.647956 0.106022
vt 0.584506 0.113701
vt 0.584506 0.136299
vt 0.578874 0.136299
vt 0.578874 0.113701
vt 0.647766 0.116446
vt 0.647769 0.098114
vt 0.638783 0.101609
vt 0.638790 0.101923
vt 0.654518 0.101930
vt 0.654512 0.135646
vt 0.620786 0.135629
vt 0.620793 0.101914
vt 0.504191 0.125253
vt 0.504191 0.125249
vt 0.478804 0.125244
vt 0.478797 0.099849
vt 0.504184 0.099850
vt 0.504187 0.111701
vt 0.504664 0.125236
vt 0.504427 0.125243
vn -0.274700 0.000000 -0.961500
vn 0.000000 -1.000000 0.000000
vn 0.274700 0.000000 0.961500
vn 0.000000 1.000000 0.000000
vn -1.000000 0.000000 0.000000
vn 0.000000 0.000000 1.000000
vn -0.000000 0.000000 -1.000000
vn 1.000000 0.000000 -0.000000
vn 0.961500 0.000000 0.274700
vn -0.961500 0.000000 -0.274700
vn -1.000000 0.000000 -0.003000
vn -1.000000 -0.000300 -0.003000
usemtl TunnelMain
s off
f 19/1/1 13/2/1 10/3/1 17/4/1
f 17/5/2 8/6/2 30/6/2 33/5/2
f 15/7/3 14/4/3 5/3/3 7/8/3
f 18/9/4 4/10/4 37/10/4 38/9/4
f 49/11/4 14/12/4 3/13/4 48/14/4
f 24/15/2 23/16/2 16/17/2 9/18/2
f 7/19/3 6/20/3 18/21/3 15/22/3
f 11/23/1 13/24/1 19/25/1 16/26/1
f 12/27/5 9/28/5 32/28/5 29/27/5
f 25/29/2 11/30/2 16/17/2 23/16/2 22/31/2 28/32/2 18/9/2 6/33/2 27/34/2 21/35/2
f 23/16/6 24/15/6 50/15/6 54/16/6
f 4/10/2 18/9/2 28/32/2 26/36/2
f 31/37/7 34/38/7 29/39/7 32/40/7
f 29/41/7 34/1/7 33/4/7 30/42/7
f 16/37/8 19/38/8 34/38/8 31/37/8
f 8/43/5 12/44/5 29/44/5 30/43/5
f 19/1/8 17/4/8 33/4/8 34/1/8
f 9/18/4 16/17/4 31/17/4 32/18/4
f 40/45/6 38/46/6 37/47/6 35/48/6
f 35/49/6 36/42/6 39/4/6 40/7/6
f 15/50/8 18/51/8 38/46/8 40/45/8
f 3/13/2 14/12/2 39/12/2 36/13/2
f 14/4/8 15/7/8 40/7/8 39/4/8
f 20/52/5 26/53/5 55/54/5 51/55/5 50/56/5 24/57/5
f 17/5/4 46/58/4 45/59/4 8/6/4
f 46/60/4 43/61/4 49/62/4 48/63/4 42/64/4 45/65/4
f 55/54/2 52/66/2 53/67/2 54/68/2 50/56/2 51/55/2
f 47/69/4 5/70/4 14/71/4 49/62/4 43/61/4 46/60/4 17/72/4 10/73/4 44/74/4 41/75/4
f 26/36/7 28/32/7 52/32/7 55/36/7
f 28/76/8 22/77/8 23/78/8 54/68/8 53/67/8 52/66/8
f 9/79/5 12/80/5 58/81/5 57/82/5
f 12/44/5 8/43/5 56/43/5 58/44/5
f 76/1/9 74/4/9 67/3/9 70/2/9
f 74/5/2 90/5/2 87/6/2 65/6/2
f 72/7/10 64/8/10 61/3/10 71/4/10
f 75/9/4 95/9/4 94/10/4 60/10/4
f 106/11/4 105/14/4 59/13/4 71/12/4
f 81/15/2 66/18/2 73/17/2 80/16/2
f 64/83/10 72/22/10 75/21/10 62/84/10
f 60/85/6 94/86/6 92/87/6 63/88/6
f 68/89/9 73/90/9 76/91/9 70/92/9
f 69/93/6 86/94/6 89/95/6 66/96/6
f 82/29/2 78/35/2 84/34/2 62/33/2 75/9/2 85/32/2 79/31/2 80/16/2 73/17/2 68/30/2
f 80/16/5 111/16/5 107/15/5 81/15/5
f 60/10/2 83/36/2 85/32/2 75/9/2
f 88/37/8 89/40/8 86/39/8 91/38/8
f 86/41/8 87/42/8 90/4/8 91/1/8
f 73/90/7 88/97/7 91/98/7 76/91/7
f 65/43/6 87/43/6 86/44/6 69/44/6
f 76/1/7 91/1/7 90/4/7 74/4/7
f 66/18/4 89/18/4 88/17/4 73/17/4
f 97/99/5 92/87/5 94/86/5 95/100/5
f 92/49/5 97/7/5 96/4/5 93/42/5
f 63/101/6 92/101/6 93/102/6 59/102/6
f 72/103/7 97/99/7 95/100/7 75/104/7
f 59/13/2 93/13/2 96/12/2 71/12/2
f 71/4/7 96/4/7 97/7/7 72/7/7
f 77/105/6 81/106/6 107/107/6 108/108/6 112/109/6 83/110/6
f 74/5/4 65/6/4 102/59/4 103/58/4
f 103/111/4 102/112/4 99/113/4 105/114/4 106/115/4 100/116/4
f 112/109/2 108/108/2 107/107/2 111/117/2 110/118/2 109/119/2
f 104/120/4 98/121/4 101/122/4 67/123/4 74/124/4 103/111/4 100/116/4 106/115/4 71/125/4 61/126/4
f 83/36/8 112/36/8 109/32/8 85/32/8
f 85/127/7 109/119/7 110/118/7 111/117/7 80/128/7 79/129/7
f 66/96/6 114/130/6 115/131/6 69/93/6
f 69/44/6 115/44/6 113/43/6 65/43/6
f 36/132/11 35/133/11 63/134/11 59/135/11
f 35/48/12 37/47/12 4/136/12 60/136/12 63/137/12
f 37/138/2 20/139/2 24/139/2 9/139/2 57/140/2 117/141/2 114/142/2 4/143/2 26/138/2
f 42/144/4 48/145/4 3/145/4 113/146/4 116/147/4 56/148/4 8/149/4 45/150/4 30/151/4
l 1 2
