# Blender v2.76 (sub 0) OBJ File: 'Roomd2.blend'
# www.blender.org
mtllib Roomd2.mtl
g Tunnela1
v 3.000000 0.000000 0.000000
v 0.100000 0.000000 0.000000
v 0.100000 0.000000 0.040000
v -3.000000 0.000000 0.000000
v -0.100000 0.000000 0.040000
v 0.000000 0.000000 0.000000
v -0.100000 0.000000 0.000000
v -0.100000 2.200000 0.040000
v -0.100000 0.400000 0.040000
v 3.000000 2.200000 0.000000
v 0.100000 2.200000 0.000000
v -3.000000 2.200000 0.000000
v 0.000000 2.000000 0.000000
v -0.100000 2.200000 0.000000
v 0.000000 0.000000 0.000000
v -0.100000 0.000000 0.000000
v 0.100000 0.000000 0.000000
v 0.100000 2.000000 0.000000
v 0.000000 2.000000 0.000000
v -0.100000 2.000000 0.000000
v 3.000000 0.400000 0.000000
v 0.100000 0.400000 0.000000
v -0.100000 0.400000 0.000000
v -3.000000 0.400000 0.000000
v 0.100000 2.200000 0.040000
v 0.100000 0.400000 0.040000
v -3.000000 0.000000 3.000000
v -3.000000 2.200000 3.000000
v 3.000000 2.200000 3.000000
v 3.000000 0.000000 3.000000
vt 0.173727 0.139581
vt 0.173727 0.125759
vt 0.207129 0.125759
vt 0.207129 0.139581
vt 0.173727 0.111929
vt 0.207129 0.111929
vt 0.325328 0.138330
vt 0.324245 0.138330
vt 0.324245 0.112347
vt 0.324245 0.105851
vt 0.325328 0.105851
vt 0.325328 0.112347
vt 0.443219 0.095885
vt 0.443462 0.095887
vt 0.443395 0.103158
vt 0.443153 0.103156
vt 0.443395 0.117046
vt 0.443153 0.117043
vt 0.443705 0.117046
vt 0.443463 0.117043
vt 0.443463 0.103156
vt 0.443705 0.103158
vt 0.257434 0.127432
vt 0.257434 0.116903
vt 0.263795 0.116903
vt 0.263795 0.127432
vt 0.270160 0.116903
vt 0.270160 0.127432
vt 0.271237 0.121532
vt 0.271237 0.108920
vt 0.284284 0.108920
vt 0.284284 0.135015
vt 0.271237 0.135015
vt 0.271237 0.122402
vt 0.000000 0.000000
vt 0.443771 0.095887
vt 0.092570 0.114666
vt 0.092570 0.101559
vt 0.118786 0.101559
vt 0.118786 0.114666
vt 0.106115 0.114666
vt 0.105241 0.114666
vn 0.000000 0.000000 1.000000
vn -1.000000 0.000000 0.000000
vn 1.000000 0.000000 0.000000
vn 0.000000 -1.000000 0.000000
vn 0.000000 1.000000 0.000000
usemtl TunnelMain
s off
f 24/1/1 4/2/1 7/3/1 23/4/1
f 22/2/1 2/5/1 1/6/1 21/3/1
f 25/7/1 8/8/1 9/9/1 5/10/1 3/11/1 26/12/1
f 7/13/2 5/14/2 9/15/2 23/16/2
f 23/16/2 9/15/2 8/17/2 14/18/2
f 11/19/3 25/20/3 26/21/3 22/22/3
f 11/23/1 22/24/1 21/25/1 10/26/1
f 12/26/1 24/25/1 23/27/1 14/28/1
f 11/29/4 10/30/4 29/31/4 28/32/4 12/33/4 14/34/4
f 14/35/5 8/35/5 25/35/5 11/35/5
f 22/22/3 26/21/3 3/14/3 2/36/3
f 2/35/4 3/35/4 5/35/4 7/35/4
f 4/37/5 27/38/5 30/39/5 1/40/5 2/41/5 7/42/5
l 17 16
l 18 20
l 14 20
l 16 7
l 2 17
l 18 11
l 15 6
l 13 19
