# Blender v2.76 (sub 0) OBJ File: 'Rooma2.blend'
# www.blender.org
mtllib Rooma2.mtl
g Tunnela1
v 3.000000 0.000000 0.000000
v 0.100000 0.000000 0.000000
v 0.100000 0.000000 0.040000
v -3.000000 0.000000 0.000000
v -0.100000 0.000000 0.040000
v 0.000000 0.000000 0.000000
v -0.100000 0.000000 0.000000
v -0.100000 2.000000 0.040000
v -0.100000 0.400000 0.040000
v 3.000000 2.000000 0.000000
v 0.100000 2.000000 0.000000
v -3.000000 2.000000 0.000000
v 0.000000 2.000000 0.000000
v -0.100000 2.000000 0.000000
v 0.000000 0.000000 0.000000
v -0.100000 0.000000 0.000000
v 0.100000 0.000000 0.000000
v 0.100000 2.000000 0.000000
v 0.000000 2.000000 0.000000
v -0.100000 2.000000 0.000000
v 3.000000 0.400000 0.000000
v 0.100000 0.400000 0.000000
v -0.100000 0.400000 0.000000
v -3.000000 0.400000 0.000000
v 0.100000 2.000000 0.040000
v 0.100000 0.400000 0.040000
v -3.000000 0.000000 3.000000
v -3.000000 2.000000 3.000000
v 3.000000 2.000000 3.000000
v 3.000000 0.000000 3.000000
vt 0.178611 0.037145
vt 0.178611 0.023323
vt 0.212014 0.023323
vt 0.212014 0.037145
vt 0.178611 0.009493
vt 0.212014 0.009493
vt 0.334706 0.024576
vt 0.334948 0.024578
vt 0.334882 0.031849
vt 0.334639 0.031847
vt 0.334882 0.045737
vt 0.334639 0.045734
vt 0.335191 0.045737
vt 0.335191 0.031849
vt 0.015947 0.043480
vt 0.015947 0.027442
vt 0.025637 0.027442
vt 0.025637 0.043480
vt 0.035333 0.027442
vt 0.035333 0.043480
vt 0.036973 0.034494
vt 0.036973 0.015281
vt 0.056848 0.015281
vt 0.056848 0.055031
vt 0.036973 0.055031
vt 0.036973 0.035819
vt 0.335015 0.024576
vt 0.335258 0.024578
vt 0.100173 0.037839
vt 0.100173 0.024732
vt 0.126389 0.024732
vt 0.126389 0.037839
vt 0.113718 0.037839
vt 0.112844 0.037839
vt 0.263320 0.067021
vt 0.262237 0.067021
vt 0.262237 0.041038
vt 0.262237 0.034542
vt 0.263320 0.034542
vt 0.263320 0.041038
vt 0.000000 0.000000
vn 0.000000 0.000000 1.000000
vn -1.000000 0.000000 0.000000
vn 1.000000 0.000000 0.000000
vn 0.000000 -1.000000 0.000000
vn 0.000000 1.000000 0.000000
usemtl TunnelMain
s off
f 24/1/1 4/2/1 7/3/1 23/4/1
f 22/2/1 2/5/1 1/6/1 21/3/1
f 7/7/2 5/8/2 9/9/2 23/10/2
f 23/10/2 9/9/2 8/11/2 14/12/2
f 11/13/3 25/11/3 26/9/3 22/14/3
f 11/15/1 22/16/1 21/17/1 10/18/1
f 12/18/1 24/17/1 23/19/1 14/20/1
f 11/21/4 10/22/4 29/23/4 28/24/4 12/25/4 14/26/4
f 22/14/3 26/9/3 3/27/3 2/28/3
f 4/29/5 27/30/5 30/31/5 1/32/5 2/33/5 7/34/5
usemtl TunnelMain_NONE
f 25/35/1 8/36/1 9/37/1 5/38/1 3/39/1 26/40/1
f 14/41/5 8/41/5 25/41/5 11/41/5
f 2/41/4 3/41/4 5/41/4 7/41/4
l 17 16
l 18 20
l 14 20
l 16 7
l 2 17
l 18 11
l 15 6
l 13 19
