# Blender v2.76 (sub 0) OBJ File: 'Roomc3.blend'
# www.blender.org
mtllib Roomc3.mtl
g Tunnela1
v 3.000000 0.000000 3.000000
v 3.000000 0.000000 -3.000000
v -3.000000 0.000000 3.000000
v -3.000000 0.000000 -3.000000
v -3.000000 2.200000 3.000000
v -3.000000 2.200000 -3.000000
v 3.000000 2.200000 -3.000000
v 3.000000 2.200000 3.000000
vt 0.747719 0.022851
vt 0.717339 0.022851
vt 0.717339 0.053232
vt 0.747719 0.053232
vt 0.861470 0.048619
vt 0.882625 0.048619
vt 0.882625 0.027464
vt 0.861470 0.027464
vn 0.000000 1.000000 0.000000
vn 0.000000 -1.000000 0.000000
usemtl TunnelMain
s off
f 2/1/1 4/2/1 3/3/1 1/4/1
f 6/5/2 7/6/2 8/7/2 5/8/2
