# Blender v2.76 (sub 0) OBJ File: 'Roomd3.blend'
# www.blender.org
mtllib Roomd3.mtl
g Tunnela1
v 3.000000 0.000000 3.000000
v 3.000000 0.000000 -3.000000
v -3.000000 0.000000 3.000000
v -3.000000 0.000000 -3.000000
v -3.000000 2.200000 3.000000
v -3.000000 2.200000 -3.000000
v 3.000000 2.200000 -3.000000
v 3.000000 2.200000 3.000000
vt 0.127641 0.106562
vt 0.097261 0.106562
vt 0.097261 0.136942
vt 0.127641 0.136942
vt 0.259993 0.138530
vt 0.281148 0.138530
vt 0.281148 0.117375
vt 0.259993 0.117375
vn 0.000000 1.000000 0.000000
vn 0.000000 -1.000000 0.000000
usemtl TunnelMain
s off
f 2/1/1 4/2/1 3/3/1 1/4/1
f 6/5/2 7/6/2 8/7/2 5/8/2
