# Blender v2.76 (sub 0) OBJ File: 'Roome6.blend'
# www.blender.org
mtllib Roome6.mtl
g Tunnela1
v 0.000000 2.000000 0.000000
v 0.000000 2.000000 0.000000
v -0.800000 0.000000 0.000000
v -0.800000 2.200000 0.000000
v -0.800000 0.000000 -3.000000
v -0.800000 2.200000 -3.000000
v -0.800000 0.400000 0.000000
v -0.800000 0.400000 -3.000000
v 0.800000 0.000000 0.000000
v 0.800000 2.200000 0.000000
v 0.800000 0.000000 -3.000000
v 0.800000 2.200000 -3.000000
v 0.800000 0.400000 0.000000
v 0.800000 0.400000 -3.000000
v -0.800000 0.000000 -0.200000
v -0.800000 0.400000 -0.200000
v 0.800000 2.200000 -0.200000
v 0.800000 0.000000 -0.200000
v -0.800000 2.200000 -0.200000
v 0.800000 0.400000 -0.200000
v 0.000000 2.200000 0.000000
v 0.000000 2.200000 -0.200000
v 0.500000 2.200000 -0.200000
v 0.500000 2.200000 0.000000
v -0.500000 2.200000 0.000000
v -0.500000 2.200000 -0.200000
v 0.500000 0.400000 0.000000
v 0.500000 0.000000 0.000000
v 0.500000 2.200000 -0.200000
v 0.500000 2.200000 0.000000
v 0.500000 0.000000 -0.200000
v 0.500000 0.400000 -0.200000
v -0.500000 0.400000 0.000000
v -0.500000 0.000000 0.000000
v -0.500000 2.200000 0.000000
v -0.500000 2.200000 -0.200000
v -0.500000 0.000000 -0.200000
v -0.500000 0.400000 -0.200000
v 0.500000 0.000000 0.000000
v 0.500000 0.000000 -0.200000
v -0.500000 0.000000 0.000000
v -0.500000 0.000000 -0.200000
v 0.500000 1.800000 0.000000
v 0.000000 1.800000 0.000000
v -0.500000 1.800000 -0.200000
v 0.000000 1.800000 -0.200000
v 0.500000 1.800000 -0.200000
v -0.500000 1.800000 0.000000
v -0.800000 0.000000 -1.600000
v -0.800000 0.400000 -1.600000
v 0.800000 0.000000 -1.600000
v 0.800000 0.400000 -1.600000
v 0.800000 2.200000 -1.600000
v -0.800000 2.200000 -1.600000
v 3.000000 2.200000 0.000000
v -0.800000 0.000000 3.000000
v 0.800000 0.000000 3.000000
v 3.000000 0.400000 0.000000
v 3.000000 0.000000 0.000000
v 3.000000 0.000000 3.000000
v -3.000000 0.000000 0.000000
v -3.000000 0.400000 0.000000
v -3.000000 2.200000 0.000000
v -3.000000 0.000000 3.000000
v -3.000000 2.200000 3.000000
v 3.000000 2.200000 3.000000
vt 0.630740 0.124446
vt 0.629815 0.124446
vt 0.629815 0.107790
vt 0.657494 0.104354
vt 0.663374 0.104354
vt 0.663374 0.121994
vt 0.086589 0.733656
vt 0.076247 0.733656
vt 0.645802 0.116115
vt 0.645802 0.103226
vt 0.665135 0.103226
vt 0.665135 0.116115
vt 0.086589 0.741929
vt 0.086589 0.744686
vt 0.076247 0.744686
vt 0.076247 0.741929
vt 0.645802 0.129010
vt 0.665135 0.129010
vt 0.643737 0.126363
vt 0.651496 0.126363
vt 0.651496 0.135231
vt 0.643737 0.135231
vt 0.635978 0.135231
vt 0.635978 0.126363
vt 0.579858 0.115933
vt 0.579858 0.124150
vt 0.568902 0.124150
vt 0.568902 0.115933
vt 0.580962 0.108198
vt 0.588100 0.108198
vt 0.588100 0.119619
vt 0.580962 0.119619
vt 0.573823 0.119619
vt 0.573823 0.108198
vt 0.625802 0.107790
vt 0.626727 0.107790
vt 0.626727 0.124446
vt 0.657486 0.121994
vt 0.651606 0.121994
vt 0.651606 0.104354
vt 0.656879 0.100693
vt 0.661186 0.100693
vt 0.661186 0.128254
vt 0.656879 0.128254
vt 0.652573 0.128254
vt 0.652573 0.100693
vt 0.651239 0.126412
vt 0.645726 0.126412
vt 0.645726 0.122002
vt 0.651239 0.122002
vt 0.651239 0.123472
vt 0.645726 0.123472
vt 0.629198 0.124446
vt 0.629198 0.107790
vt 0.559547 0.108198
vt 0.559547 0.119619
vt 0.628273 0.124446
vt 0.628273 0.107790
vt 0.645726 0.127882
vt 0.651239 0.127882
vt 0.627344 0.107790
vt 0.627344 0.124446
vt 0.559547 0.131047
vt 0.573823 0.131047
vt 0.632286 0.107790
vt 0.633828 0.107790
vt 0.633828 0.111491
vt 0.632286 0.111491
vt 0.630744 0.111491
vt 0.630744 0.107790
vt 0.086589 0.736413
vt 0.076247 0.736413
vt 0.633828 0.112108
vt 0.632286 0.112108
vt 0.630744 0.112108
vt 0.633828 0.115809
vt 0.632286 0.115809
vt 0.630744 0.115809
vt 0.498438 0.125101
vt 0.498438 0.120496
vt 0.503701 0.120496
vt 0.503701 0.125101
vt 0.503701 0.129706
vt 0.498438 0.129706
vt 0.669159 0.109765
vt 0.669159 0.126356
vt 0.635978 0.109765
vt 0.652566 0.109476
vt 0.652574 0.109765
vt 0.655334 0.109765
vt 0.656993 0.109765
vt 0.491202 0.109971
vt 0.498438 0.109971
vt 0.503701 0.109971
vt 0.510937 0.109971
vt 0.510937 0.119838
vt 0.503701 0.119838
vt 0.498438 0.119838
vt 0.491202 0.119838
vt 0.648258 0.128254
vt 0.643951 0.128254
vt 0.643951 0.100693
vt 0.648258 0.100693
vt 0.588100 0.131047
vt 0.580962 0.131047
vt 0.568902 0.132373
vt 0.557945 0.132373
vt 0.557945 0.124156
vn 0.000000 0.000000 1.000000
vn 0.000000 -1.000000 0.000000
vn 0.000000 1.000000 0.000000
vn -1.000000 0.000000 0.000000
vn 1.000000 0.000000 0.000000
vn 0.000000 0.000000 -1.000000
usemtl TunnelMain
s off
f 10/1/1 30/2/1 27/3/1 13/4/1 58/5/1 55/6/1
f 18/7/2 9/8/2 28/8/2 31/7/2
f 19/9/3 4/10/3 35/11/3 36/12/3
f 42/13/3 15/14/3 3/15/3 41/16/3
f 24/17/2 23/9/2 17/12/2 10/18/2
f 54/19/2 6/20/2 12/21/2 53/22/2 17/23/2 19/24/2
f 3/25/1 34/25/1 33/26/1 7/26/1 62/27/1 61/28/1
f 52/29/4 14/30/4 11/31/4 51/32/4 18/33/4 20/34/4
f 7/35/1 33/36/1 35/37/1 4/38/1 63/39/1 62/40/1
f 52/41/4 20/42/4 17/43/4 53/44/4 12/45/4 14/46/4
f 23/47/5 24/48/5 43/48/5 47/47/5
f 4/49/2 19/50/2 26/51/2 25/52/2
f 29/53/4 32/54/4 27/3/4 30/2/4
f 27/55/4 32/34/4 31/33/4 28/56/4
f 17/57/6 20/58/6 32/54/6 29/53/6
f 20/34/6 18/33/6 31/33/6 32/34/6
f 10/59/3 17/60/3 29/60/3 30/59/3
f 38/61/5 36/62/5 35/37/5 33/36/5
f 33/63/5 34/56/5 37/33/5 38/64/5
f 16/58/6 19/57/6 36/62/6 38/61/6
f 3/15/2 15/14/2 37/14/2 34/15/2
f 15/33/6 16/64/6 38/64/6 37/33/6
f 21/65/1 25/66/1 48/67/1 44/68/1 43/69/1 24/70/1
f 18/7/3 40/71/3 39/72/3 9/8/3
f 48/67/2 45/73/2 46/74/2 47/75/2 43/69/2 44/68/2
f 25/52/4 26/51/4 45/51/4 48/52/4
f 26/76/6 22/77/6 23/78/6 47/75/6 46/74/6 45/73/6
f 49/79/3 15/80/3 18/81/3 51/82/3 11/83/3 5/84/3
f 55/85/2 66/86/2 65/24/2 63/87/2 4/88/2 25/89/2 21/89/2 24/90/2 10/91/2
f 64/92/3 56/93/3 57/94/3 60/95/3 59/96/3 9/97/3 3/98/3 61/99/3
f 3/98/3 9/97/3 18/81/3 15/80/3
f 54/100/5 19/101/5 16/102/5 50/103/5 8/46/5 6/45/5
f 49/32/5 5/31/5 8/104/5 50/105/5 16/64/5 15/33/5
f 59/27/1 58/106/1 13/107/1 27/107/1 28/108/1 9/108/1
l 1 2
