# Blender v2.76 (sub 0) OBJ File: 'Rooma6.blend'
# www.blender.org
mtllib Rooma6.mtl
g Tunnela1
v 4.000000 0.000000 0.000000
v -4.000000 0.000000 0.000000
v 4.000000 2.000000 0.000000
v -4.000000 2.000000 0.000000
v 0.000000 2.000000 0.000000
v 0.000000 2.000000 0.000000
v 4.000000 0.400000 0.000000
v -4.000000 0.400000 0.000000
v -0.800000 0.000000 0.000000
v -0.800000 2.000000 0.000000
v -0.800000 0.000000 -3.000000
v -0.800000 2.000000 -3.000000
v -0.800000 0.400000 0.000000
v -0.800000 0.400000 -3.000000
v 0.800000 0.000000 0.000000
v 0.800000 2.000000 0.000000
v 0.800000 0.000000 -3.000000
v 0.800000 2.000000 -3.000000
v 0.800000 0.400000 0.000000
v 0.800000 0.400000 -3.000000
v 4.000000 0.000000 3.000000
v -4.000000 0.000000 3.000000
v 4.000000 2.000000 3.000000
v -4.000000 2.000000 3.000000
vt 0.195976 0.027345
vt 0.195976 0.035562
vt 0.174063 0.035562
vt 0.174063 0.027345
vt 0.195976 0.043785
vt 0.174063 0.043785
vt 0.047212 0.043249
vt 0.035452 0.043249
vt 0.035452 0.025609
vt 0.047212 0.025609
vt 0.058980 0.025609
vt 0.058980 0.043249
vt 0.175665 0.019610
vt 0.204218 0.019610
vt 0.204218 0.031031
vt 0.175665 0.031031
vt 0.042299 0.049509
vt 0.042299 0.021948
vt 0.059524 0.021948
vt 0.059524 0.049509
vt 0.175665 0.042459
vt 0.204218 0.042459
vt 0.025064 0.049509
vt 0.025064 0.021948
vt 0.121538 0.029872
vt 0.121538 0.040902
vt 0.100855 0.040902
vt 0.100855 0.029872
vt 0.035452 0.043257
vt 0.046477 0.043257
vt 0.046477 0.049137
vt 0.035452 0.049137
vt 0.108568 0.044820
vt 0.098052 0.044820
vt 0.098052 0.034962
vt 0.124340 0.034962
vt 0.124340 0.044820
vt 0.113825 0.044820
vt 0.049487 0.025790
vt 0.058573 0.025790
vt 0.058573 0.034307
vt 0.035859 0.034307
vt 0.035859 0.025790
vt 0.044945 0.025790
vn 0.000000 0.000000 1.000000
vn -1.000000 0.000000 0.000000
vn 1.000000 0.000000 0.000000
vn 0.000000 1.000000 0.000000
vn 0.000000 -1.000000 0.000000
usemtl TunnelMain
s off
f 9/1/1 13/2/1 8/3/1 2/4/1
f 1/2/1 7/5/1 19/6/1 15/3/1
f 10/7/1 4/8/1 8/9/1 13/10/1
f 16/7/1 19/10/1 7/11/1 3/12/1
f 19/13/2 20/14/2 17/15/2 15/16/2
f 18/17/2 20/18/2 19/19/2 16/20/2
f 13/21/3 9/16/3 11/15/3 14/22/3
f 14/18/3 12/17/3 10/23/3 13/24/3
f 17/25/4 11/26/4 9/27/4 15/28/4
f 10/29/5 12/30/5 18/31/5 16/32/5
f 9/33/4 2/34/4 22/35/4 21/36/4 1/37/4 15/38/4
f 16/39/5 3/40/5 23/41/5 24/42/5 4/43/5 10/44/5
l 5 6
