# Blender v2.76 (sub 0) OBJ File: 'Rooma8.blend'
# www.blender.org
mtllib Rooma8.mtl
g Tunnela1
v 6.000000 2.000000 0.000000
v 3.000000 0.000000 0.800000
v 3.000000 2.000000 0.800000
v 3.000000 0.400000 0.800000
v 3.000000 0.000000 -0.800000
v 3.000000 2.000000 -0.800000
v 3.000000 0.400000 -0.800000
v -0.800000 0.000000 -3.000000
v -0.800000 2.000000 -3.000000
v -0.800000 0.400000 -3.000000
v 0.800000 0.000000 -3.000000
v 0.800000 2.000000 -3.000000
v 0.800000 0.400000 -3.000000
v 1.300000 0.000000 -3.000000
v 1.300000 2.000000 -3.000000
v 1.300000 0.400000 -3.000000
v -1.000000 0.000000 -3.000000
v -1.000000 2.000000 -3.000000
v -1.000000 0.400000 -3.000000
v -3.000000 0.000000 0.000000
v -3.000000 2.000000 0.000000
v -3.000000 0.400000 0.000000
v 3.000000 0.000000 -1.100000
v 3.000000 2.000000 -1.100000
v 3.000000 0.400000 -1.100000
v 3.000000 0.000000 1.000000
v 3.000000 2.000000 1.000000
v 3.000000 0.400000 1.000000
v -0.000000 0.000000 3.000000
v -0.000000 2.000000 3.000000
v -0.000000 0.400000 3.000000
v 3.000000 0.000000 -3.000000
v 3.000000 2.000000 -3.000000
v 3.000000 0.400000 -3.000000
v -3.000000 0.000000 3.000000
v -3.000000 2.000000 3.000000
vt 0.177882 0.028627
vt 0.177882 0.024734
vt 0.178855 0.024734
vt 0.185020 0.024734
vt 0.185020 0.028627
vt 0.178855 0.028627
vt 0.178072 0.032532
vt 0.178072 0.036426
vt 0.177099 0.036426
vt 0.177099 0.032532
vt 0.031404 0.030738
vt 0.031404 0.020456
vt 0.032047 0.020456
vt 0.032047 0.030738
vt 0.168149 0.036426
vt 0.168149 0.032532
vt 0.037956 0.020456
vt 0.037956 0.030738
vt 0.097228 0.037289
vt 0.096916 0.036960
vt 0.094936 0.034876
vt 0.096801 0.033104
vt 0.097349 0.032583
vt 0.099104 0.030915
vt 0.099653 0.030394
vt 0.103602 0.030816
vt 0.107771 0.035205
vt 0.103383 0.039373
vt 0.099208 0.039373
vt 0.098896 0.039044
vt 0.031404 0.044447
vt 0.031404 0.034165
vt 0.032047 0.034165
vt 0.036116 0.034165
vt 0.036116 0.044447
vt 0.032047 0.044447
vt 0.192158 0.024734
vt 0.192158 0.028627
vt 0.190535 0.028627
vt 0.190535 0.024734
vt 0.040829 0.020456
vt 0.040829 0.030738
vt 0.039758 0.030738
vt 0.039758 0.020456
vt 0.178287 0.028633
vt 0.178287 0.032526
vt 0.176665 0.032526
vt 0.176665 0.028633
vt 0.034135 0.030738
vt 0.034135 0.020456
vt 0.168149 0.028633
vt 0.040829 0.034165
vt 0.040829 0.044447
vt 0.039758 0.044447
vt 0.039758 0.034165
vt 0.044741 0.055314
vt 0.039350 0.059897
vt 0.034227 0.053871
vt 0.033418 0.052920
vt 0.029105 0.047845
vt 0.028296 0.046893
vt 0.029517 0.035475
vt 0.042204 0.024691
vt 0.052988 0.037378
vt 0.052988 0.048305
vt 0.051402 0.049653
vt 0.046327 0.053966
vn -1.000000 0.000000 0.000000
vn -0.554700 0.000000 -0.832100
vn 0.000000 1.000000 0.000000
vn 0.000000 0.000000 1.000000
vn 0.832100 0.000000 0.554700
vn 0.000000 -1.000000 0.000000
usemtl TunnelMain
s off
f 5/1/1 7/2/1 25/3/1 34/4/1 32/5/1 23/6/1
f 4/7/1 2/8/1 26/9/1 28/10/1
f 3/11/1 4/12/1 28/13/1 27/14/1
f 28/10/2 26/9/2 29/15/2 31/16/2
f 27/14/2 28/13/2 31/17/2 30/18/2
f 5/19/3 23/20/3 32/21/3 14/22/3 11/23/3 8/24/3 17/25/3 20/26/3 35/27/3 29/28/3 26/29/3 2/30/3
f 7/31/1 6/32/1 24/33/1 33/34/1 34/35/1 25/36/1
usemtl TunnelMain_fatal_palete.png.002
f 13/37/4 11/38/4 14/39/4 32/5/4 34/4/4 16/40/4
f 10/41/4 9/42/4 18/43/4 19/44/4
f 8/45/4 10/46/4 19/47/4 17/48/4
f 19/44/5 18/43/5 21/49/5 22/50/5
f 17/48/5 19/47/5 22/16/5 20/51/5
f 12/52/4 13/53/4 16/54/4 34/35/4 33/34/4 15/55/4
f 15/56/6 33/57/6 24/58/6 6/59/6 3/60/6 27/61/6 30/62/6 36/63/6 21/64/6 18/65/6 9/66/6 12/67/6
