# Blender v2.76 (sub 0) OBJ File: 'Rooma3.blend'
# www.blender.org
mtllib Rooma3.mtl
g Tunnela1
v 3.000000 0.000000 3.000000
v 3.000000 0.000000 -3.000000
v -3.000000 0.000000 3.000000
v -3.000000 0.000000 -3.000000
v -3.000000 2.000000 3.000000
v -3.000000 2.000000 -3.000000
v 3.000000 2.000000 -3.000000
v 3.000000 2.000000 3.000000
vt 0.130741 0.019751
vt 0.100361 0.019751
vt 0.100361 0.050131
vt 0.130741 0.050131
vt 0.027464 0.036217
vt 0.048619 0.036217
vt 0.048619 0.015062
vt 0.027464 0.015062
vn 0.000000 1.000000 0.000000
vn 0.000000 -1.000000 0.000000
usemtl TunnelMain
s off
f 2/1/1 4/2/1 3/3/1 1/4/1
f 6/5/2 7/6/2 8/7/2 5/8/2
