# Blender v2.76 (sub 0) OBJ File: 'Roomc7.blend'
# www.blender.org
mtllib Roomc7.mtl
g Tunnela1
v -0.000008 2.000000 -6.000002
v -0.000008 2.000000 -6.000002
v -0.000002 2.000000 -0.000001
v -0.000002 2.000000 -0.000001
v -0.000002 0.000000 -0.000001
v -0.000002 2.200000 -0.000001
v 0.799995 0.000000 -3.000003
v 0.799995 2.200000 -3.000003
v -0.000002 0.400000 -0.000001
v 0.799995 0.400000 -3.000003
v -1.600002 0.000000 0.000000
v -1.600002 2.200000 0.000000
v -0.800005 0.000000 -3.000001
v -0.800005 2.200000 -3.000001
v -1.600002 0.400000 0.000000
v -0.800005 0.400000 -3.000001
v -0.000003 0.000000 -0.200002
v -0.000003 0.400000 -0.200002
v -1.600003 2.200000 -0.200000
v -1.600003 0.000000 -0.200000
v -0.000003 2.200000 -0.200002
v -1.600003 0.400000 -0.200000
v -0.800002 2.200000 -0.000001
v -0.000005 2.200000 -3.000002
v -0.800002 2.200000 -0.200001
v -1.300002 2.200000 -0.200001
v -1.300002 2.200000 -0.000000
v -0.500005 2.200000 -3.000002
v -0.300002 2.200000 -0.000001
v 0.499995 2.200000 -3.000002
v -0.300002 2.200000 -0.200002
v -1.300002 0.400000 -0.000000
v -1.300002 0.000000 -0.000000
v -1.300002 2.200000 -0.200001
v -1.300002 2.200000 -0.000000
v -1.300002 0.000000 -0.200001
v -1.300002 0.400000 -0.200001
v -0.300002 0.400000 -0.000001
v -0.300002 0.000000 -0.000001
v -0.300002 2.200000 -0.000001
v -0.300002 2.200000 -0.200002
v -0.300002 0.000000 -0.200002
v -0.300002 0.400000 -0.200002
v -0.000005 0.000000 -3.000002
v -0.800002 0.000000 -0.000001
v -0.800002 0.000000 -0.100001
v -0.500005 0.000000 -3.000002
v -1.300002 0.000000 -0.000000
v -1.300002 0.000000 -0.100000
v 0.499995 0.000000 -3.000002
v -0.300002 0.000000 -0.000001
v -0.300002 0.000000 -0.100001
v -1.300002 1.800000 -0.000000
v -0.800002 1.800000 -0.000001
v -0.300002 1.800000 -0.200002
v -0.800002 1.800000 -0.200001
v -1.300002 1.800000 -0.200001
v -0.300002 1.800000 -0.000001
v 0.000001 0.000000 2.999998
v 0.000001 2.200000 2.999998
v 0.000001 0.400000 2.999998
v -3.000002 0.000000 0.000001
v -3.000002 2.200000 0.000001
v -3.000002 0.400000 0.000001
v -2.999999 2.200000 3.000001
v -2.999999 0.000000 3.000001
vt 0.959473 0.035235
vt 0.959473 0.046656
vt 0.973749 0.046656
vt 0.973749 0.035235
vt 0.111196 0.029872
vt 0.100855 0.029872
vt 0.959473 0.058084
vt 0.973749 0.058084
vt 0.889049 0.049230
vt 0.885248 0.049230
vt 0.111196 0.038145
vt 0.100855 0.038145
vt 0.100855 0.040902
vt 0.111196 0.040902
vt 0.885248 0.052271
vt 0.885248 0.053285
vt 0.889049 0.053285
vt 0.889049 0.052271
vt 0.889962 0.034538
vt 0.884024 0.034538
vt 0.884024 0.053541
vt 0.889962 0.053541
vt 0.893356 0.049225
vt 0.893356 0.037062
vt 0.895907 0.053541
vt 0.895907 0.034538
vt 0.892849 0.052271
vt 0.892849 0.051257
vt 0.892849 0.050244
vt 0.892849 0.049230
vt 0.889049 0.050244
vt 0.889049 0.051257
vt 0.892849 0.053285
vt 0.885248 0.050244
vt 0.901845 0.053541
vt 0.901845 0.034538
vt 0.945196 0.035235
vt 0.945196 0.046656
vt 0.943594 0.051193
vt 0.943594 0.059410
vt 0.878085 0.034538
vt 0.878085 0.053541
vt 0.945196 0.058084
vt 0.965507 0.051187
vt 0.965507 0.042970
vt 0.893359 0.037187
vt 0.894142 0.037187
vt 0.892576 0.037187
vt 0.100855 0.032630
vt 0.111196 0.032630
vt 0.732290 0.040442
vt 0.721949 0.040442
vt 0.721949 0.043200
vt 0.721949 0.045957
vt 0.732290 0.045957
vt 0.732290 0.043200
vt 0.885248 0.051257
vt 0.742631 0.045957
vt 0.742631 0.043200
vt 0.742631 0.040442
vt 0.742631 0.037684
vt 0.732290 0.037684
vt 0.732290 0.048715
vt 0.742631 0.048715
vt 0.860804 0.019405
vt 0.744603 0.051119
vt 0.744605 0.051172
vt 0.747613 0.051040
vt 0.747613 0.026954
vt 0.723527 0.026954
vt 0.723527 0.051040
vt 0.735570 0.051145
vt 0.741592 0.051145
vn 0.961500 0.000000 0.274700
vn 0.000000 -1.000000 0.000000
vn -0.961500 0.000000 -0.274700
vn 0.000000 1.000000 0.000000
vn 0.000000 0.000000 1.000000
vn -1.000000 0.000000 0.000000
vn 1.000000 0.000000 -0.000000
vn -0.000000 0.000000 -1.000000
usemtl TunnelMain
s off
f 22/1/1 20/2/1 13/3/1 16/4/1
f 20/5/2 36/5/2 33/6/2 11/6/2
f 18/7/3 10/8/3 7/3/3 17/2/3
f 21/9/4 41/9/4 40/10/4 6/10/4
f 52/11/4 51/12/4 5/13/4 17/14/4
f 27/15/2 12/16/2 19/17/2 26/18/2
f 10/19/3 18/20/3 21/21/3 8/22/3
f 6/23/5 40/23/5 38/24/5 9/24/5
f 14/22/1 19/25/1 22/26/1 16/19/1
f 15/24/5 32/24/5 35/23/5 12/23/5
f 28/27/2 24/28/2 30/29/2 8/30/2 21/9/2 31/31/2 25/32/2 26/18/2 19/17/2 14/33/2
f 26/18/6 57/18/6 53/15/6 27/15/6
f 6/10/2 29/34/2 31/31/2 21/9/2
f 34/25/7 35/35/7 32/36/7 37/26/7
f 32/37/7 33/38/7 36/2/7 37/1/7
f 19/25/8 34/25/8 37/26/8 22/26/8
f 11/39/5 33/39/5 32/40/5 15/40/5
f 22/1/8 37/1/8 36/2/8 20/2/8
f 12/16/4 35/16/4 34/17/4 19/17/4
f 43/20/6 38/41/6 40/42/6 41/21/6
f 38/43/6 43/7/6 42/2/6 39/38/6
f 9/44/5 38/44/5 39/45/5 5/45/5
f 18/20/8 43/20/8 41/21/8 21/21/8
f 5/13/2 39/13/2 42/14/2 17/14/2
f 17/2/8 42/2/8 43/7/8 18/7/8
f 23/46/5 27/47/5 53/47/5 54/46/5 58/48/5 29/48/5
f 20/5/4 11/6/4 48/49/4 49/50/4
f 49/51/4 48/52/4 45/53/4 51/54/4 52/55/4 46/56/4
f 58/34/2 54/57/2 53/15/2 57/18/2 56/32/2 55/31/2
f 50/58/4 44/59/4 47/60/4 13/61/4 20/62/4 49/51/4 46/56/4 52/55/4 17/63/4 7/64/4
f 29/34/7 58/34/7 55/31/7 31/31/7
f 31/31/8 55/31/8 56/32/8 57/18/8 26/18/8 25/32/8
f 9/24/6 61/24/6 60/23/6 6/23/6
f 5/45/6 59/45/6 61/44/6 9/44/6
f 12/23/5 63/23/5 64/24/5 15/24/5
f 15/40/5 64/40/5 62/39/5 11/39/5
f 29/48/2 6/23/2 60/23/2 65/65/2 63/23/2 12/16/2 27/47/2 23/46/2
f 48/66/4 11/67/4 62/68/4 66/69/4 59/70/4 5/71/4 51/72/4 45/73/4
l 1 2
l 3 4
