# Blender v2.76 (sub 0) OBJ File: 'Roomd1.blend'
# www.blender.org
mtllib Roomd1.mtl
g Tunnela1
v 0.000000 0.000000 0.000000
v 0.000000 0.000000 3.000000
v 0.000000 2.200000 0.000000
v 0.000000 2.000000 3.000000
v 0.000000 0.000000 3.000000
v 0.000000 2.000000 3.000000
v 0.000000 0.400000 3.000000
v -3.000000 0.000000 0.000000
v 0.000000 0.000000 3.000000
v -3.000000 0.000000 3.000000
v -3.000000 0.400000 0.000000
v 0.000000 2.200000 3.000000
v -3.000000 2.200000 0.000000
v -3.000000 2.200000 3.000000
v 0.000000 0.400000 0.000000
vt 0.120613 0.105070
vt 0.120613 0.122528
vt 0.103155 0.122528
vt 0.103155 0.105070
vt 0.271452 0.120515
vt 0.250597 0.120515
vt 0.250597 0.099660
vt 0.271452 0.099660
vt 0.196142 0.113858
vt 0.196142 0.122032
vt 0.175708 0.122032
vt 0.175708 0.113858
vt 0.268875 0.117921
vt 0.258677 0.117921
vt 0.258677 0.101605
vt 0.268875 0.101605
vt 0.216576 0.113858
vt 0.216576 0.122032
vt 0.279072 0.117921
vt 0.279072 0.101605
vn 0.000000 1.000000 0.000000
vn 0.000000 -1.000000 0.000000
vn -0.000000 0.000000 1.000000
vn -1.000000 0.000000 -0.000000
usemtl TunnelMain
s off
f 10/1/1 9/2/1 1/3/1 8/4/1
f 14/5/2 13/6/2 3/7/2 12/8/2
f 1/9/3 15/10/3 11/11/3 8/12/3
f 3/13/3 13/14/3 11/15/3 15/16/3
f 1/9/4 9/17/4 7/18/4 15/10/4
f 12/19/4 3/13/4 15/16/4 7/20/4
l 5 2
l 4 6
