# Blender v2.76 (sub 0) OBJ File: 'Roome1.blend'
# www.blender.org
mtllib Roome1.mtl
g Tunnela1
v 0.000000 0.000000 0.000000
v 0.000000 0.000000 3.000000
v 0.000000 2.200000 0.000000
v 0.000000 2.000000 3.000000
v 0.000000 0.000000 3.000000
v 0.000000 2.000000 3.000000
v 0.000000 0.400000 3.000000
v -3.000000 0.000000 0.000000
v 0.000000 0.000000 3.000000
v -3.000000 0.000000 3.000000
v -3.000000 0.400000 0.000000
v 0.000000 2.200000 3.000000
v -3.000000 2.200000 0.000000
v -3.000000 2.200000 3.000000
v 0.000000 0.400000 0.000000
vt 0.491707 0.095455
vt 0.491707 0.112913
vt 0.474249 0.112913
vt 0.474249 0.095455
vt 0.653010 0.123084
vt 0.632155 0.123084
vt 0.632155 0.102228
vt 0.653010 0.102228
vt 0.576660 0.109078
vt 0.576660 0.117252
vt 0.556226 0.117252
vt 0.556226 0.109078
vt 0.650432 0.120489
vt 0.640235 0.120489
vt 0.640235 0.104174
vt 0.650432 0.104174
vt 0.597094 0.109078
vt 0.597094 0.117252
vt 0.660630 0.120489
vt 0.660630 0.104174
vn 0.000000 1.000000 0.000000
vn 0.000000 -1.000000 0.000000
vn -0.000000 0.000000 1.000000
vn -1.000000 0.000000 -0.000000
usemtl TunnelMain
s off
f 10/1/1 9/2/1 1/3/1 8/4/1
f 14/5/2 13/6/2 3/7/2 12/8/2
f 1/9/3 15/10/3 11/11/3 8/12/3
f 3/13/3 13/14/3 11/15/3 15/16/3
f 1/9/4 9/17/4 7/18/4 15/10/4
f 12/19/4 3/13/4 15/16/4 7/20/4
l 5 2
l 4 6
