# Blender v2.76 (sub 0) OBJ File: 'Tunneb2.blend'
# www.blender.org
mtllib Tunneb2.mtl
g Tunnela1
v -0.800000 0.000000 2.000000
v -0.800000 2.200000 2.000000
v -0.800000 0.000000 3.000000
v -0.800000 2.200000 3.000000
v -0.800000 2.200000 2.200000
v -0.800000 0.000000 2.200000
v -0.800000 0.000000 0.100000
v -0.800000 2.200000 0.100000
v -0.800000 0.400000 2.200000
v -0.800000 0.400000 3.000000
v -0.800000 0.400000 2.000000
v -0.800000 0.400000 0.100000
v -0.800000 0.000000 -2.000000
v -0.800000 2.200000 -2.000000
v -0.800000 0.000000 -3.000000
v -0.800000 2.200000 -3.000000
v -0.800000 2.200000 -2.200000
v -0.800000 0.000000 -2.200000
v -0.800000 0.000000 -0.100000
v -0.800000 2.200000 -0.100000
v -0.800000 0.400000 -2.200000
v -0.800000 0.400000 -3.000000
v -0.800000 0.400000 -2.000000
v -0.800000 0.400000 -0.100000
v -0.760000 1.000000 0.100000
v -0.760000 2.200000 0.100000
v -0.760000 0.000000 0.100000
v -0.760000 1.000000 -0.100000
v -0.760000 2.200000 -0.100000
v -0.760000 0.000000 -0.100000
v 0.800000 0.000000 2.000000
v 0.800000 2.200000 2.000000
v 0.800000 0.000000 3.000000
v 0.800000 2.200000 3.000000
v 0.800000 2.200000 2.200000
v 0.800000 0.000000 2.200000
v 0.800000 0.000000 0.100000
v 0.800000 2.200000 0.100000
v 0.800000 0.400000 2.200000
v 0.800000 0.400000 3.000000
v 0.800000 0.400000 2.000000
v 0.800000 0.400000 0.100000
v 0.800000 0.000000 -2.000000
v 0.800000 2.200000 -2.000000
v 0.800000 0.000000 -3.000000
v 0.800000 2.200000 -3.000000
v 0.800000 2.200000 -2.200000
v 0.800000 0.000000 -2.200000
v 0.800000 0.000000 -0.100000
v 0.800000 2.200000 -0.100000
v 0.800000 0.400000 -2.200000
v 0.800000 0.400000 -3.000000
v 0.800000 0.400000 -2.000000
v 0.800000 0.400000 -0.100000
v 0.760000 1.000000 0.100000
v 0.760000 2.200000 0.100000
v 0.760000 0.000000 0.100000
v 0.760000 1.000000 -0.100000
v 0.760000 2.200000 -0.100000
v 0.760000 0.000000 -0.100000
v -0.800000 2.200000 3.476128
v 0.800000 2.200000 3.476128
v -0.800000 2.200000 3.000000
v 0.800000 2.200000 3.000000
v -0.800000 2.200000 3.476128
v 0.800000 2.200000 3.476128
vt 0.427615 0.034839
vt 0.442735 0.034839
vt 0.442735 0.044388
vt 0.427615 0.044388
vt 0.426024 0.044388
vt 0.419657 0.044388
vt 0.419657 0.034839
vt 0.426024 0.034839
vt 0.418775 0.017782
vt 0.420923 0.017782
vt 0.421460 0.017782
vt 0.426561 0.017782
vt 0.426561 0.030669
vt 0.421460 0.030669
vt 0.420923 0.030669
vt 0.418775 0.030669
vt 0.442735 0.053949
vt 0.427615 0.053949
vt 0.426024 0.053949
vt 0.419657 0.053949
vt 0.423895 0.039682
vt 0.423885 0.060204
vt 0.423672 0.059995
vt 0.423705 0.048253
vt 0.423672 0.034853
vt 0.423845 0.034589
vt 0.410170 0.021895
vt 0.434225 0.020929
vt 0.430880 0.026057
vt 0.413282 0.025511
vt 0.422557 0.060252
vt 0.422549 0.039526
vt 0.422608 0.034639
vt 0.422768 0.034825
vt 0.422741 0.048244
vt 0.422784 0.059967
vt 0.437771 0.026895
vt 0.411939 0.027819
vt 0.416353 0.022270
vt 0.433630 0.022818
vt 0.411940 0.040546
vt 0.411883 0.070032
vt 0.409894 0.069970
vt 0.409824 0.040528
vt 0.409894 0.014728
vt 0.411846 0.014790
vt 0.416619 0.030669
vt 0.416083 0.030669
vt 0.410982 0.030669
vt 0.410982 0.017782
vt 0.416083 0.017782
vt 0.416619 0.017782
vt 0.434777 0.034827
vt 0.419657 0.025277
vt 0.434777 0.025277
vt 0.436369 0.025277
vt 0.442735 0.025277
vt 0.436369 0.034827
vt 0.434354 0.017782
vt 0.434354 0.030669
vt 0.432206 0.030669
vt 0.431670 0.030669
vt 0.431670 0.017782
vt 0.432206 0.017782
vt 0.413129 0.030677
vt 0.413666 0.030677
vt 0.418767 0.043563
vt 0.413666 0.043563
vt 0.413129 0.043563
vt 0.410982 0.043563
vt 0.422549 0.039675
vt 0.422771 0.034857
vt 0.422559 0.060184
vt 0.434085 0.022392
vt 0.430963 0.025953
vt 0.413356 0.026141
vt 0.410030 0.020929
vt 0.423887 0.060252
vt 0.423677 0.034847
vt 0.423837 0.034664
vt 0.423895 0.039550
vt 0.411965 0.026496
vt 0.416106 0.022469
vt 0.433388 0.022190
vt 0.437794 0.027819
vt 0.409922 0.014799
vt 0.411874 0.014767
vt 0.423182 0.035333
vt 0.424785 0.035333
vt 0.440008 0.035333
vt 0.441610 0.035333
vt 0.448020 0.035333
vt 0.448020 0.048153
vt 0.441610 0.048153
vt 0.440008 0.048153
vt 0.424785 0.048153
vt 0.423182 0.048153
vt 0.407959 0.048153
vt 0.406356 0.048153
vt 0.399947 0.048153
vt 0.399947 0.035333
vt 0.406356 0.035333
vt 0.407959 0.035333
vt 0.422567 0.068615
vt 0.403856 0.068615
vt 0.401886 0.068615
vt 0.394007 0.068615
vt 0.394007 0.052858
vt 0.401886 0.052858
vt 0.403856 0.052858
vt 0.422567 0.052858
vt 0.424537 0.052858
vt 0.443249 0.052858
vt 0.445219 0.052858
vt 0.453097 0.052858
vt 0.453097 0.068615
vt 0.445219 0.068615
vt 0.443249 0.068615
vt 0.424537 0.068615
vt 0.434777 0.063511
vt 0.419657 0.063511
vt 0.419657 0.053961
vt 0.434777 0.053961
vt 0.436369 0.053961
vt 0.442735 0.053961
vt 0.442735 0.063511
vt 0.436369 0.063511
vn -1.000000 -0.000000 0.000000
vn 1.000000 0.000000 0.000000
vn -0.000000 0.000000 -1.000000
vn 0.000000 -1.000000 0.000000
vn -0.000000 0.000000 1.000000
vn 0.000000 1.000000 0.000000
usemtl TunnelMain
s off
f 41/1/1 42/2/1 37/3/1 31/4/1 36/5/1 33/6/1 40/7/1 39/8/1
f 10/9/2 9/10/2 11/11/2 12/12/2 8/13/2 2/14/2 5/15/2 4/16/2
f 1/4/2 7/3/2 12/17/2 11/18/2 9/19/2 10/20/2 3/6/2 6/5/2
f 24/21/3 20/22/3 29/23/3 28/24/3 30/25/3 19/26/3
f 7/27/4 19/28/4 30/29/4 27/30/4
f 8/31/5 12/32/5 7/33/5 27/34/5 25/35/5 26/36/5
f 20/37/6 8/38/6 26/39/6 29/40/6
f 25/41/2 27/42/2 30/43/2 28/44/2 29/45/2 26/46/2
f 22/9/2 16/16/2 17/47/2 14/48/2 20/49/2 24/50/2 23/51/2 21/52/2
f 43/53/1 49/7/1 54/54/1 53/55/1 51/56/1 52/57/1 45/2/1 48/58/1
f 40/59/1 34/60/1 35/61/1 32/62/1 38/13/1 42/12/1 41/63/1 39/64/1
f 52/49/1 51/65/1 53/66/1 54/16/1 50/67/1 44/68/1 47/69/1 46/70/1
f 54/71/3 49/33/3 60/72/3 58/35/3 59/36/3 50/73/3
f 37/74/4 57/75/4 60/76/4 49/77/4
f 38/78/5 56/23/5 55/24/5 57/79/5 37/80/5 42/81/5
f 50/82/6 59/83/6 56/84/6 38/85/6
f 55/44/1 56/86/1 59/87/1 58/41/1 60/42/1 57/43/1
f 8/88/4 20/89/4 14/90/4 17/91/4 16/92/4 46/93/4 47/94/4 44/95/4 50/96/4 38/97/4 32/98/4 35/99/4 34/100/4 4/101/4 5/102/4 2/103/4
f 7/104/6 1/105/6 6/106/6 3/107/6 33/108/6 36/109/6 31/110/6 37/111/6 49/112/6 43/113/6 48/114/6 45/115/6 15/116/6 18/117/6 13/118/6 19/119/6
f 23/120/2 24/121/2 19/122/2 13/123/2 18/124/2 15/125/2 22/126/2 21/127/2
f 4/101/5 34/100/5 64/100/5 63/101/5
l 65 61
l 62 66
