# Blender v2.76 (sub 0) OBJ File: 'Tunnelc2.blend'
# www.blender.org
mtllib Tunnelc2.mtl
g Tunnela1
v -0.800000 0.000000 2.000000
v -0.800000 2.200000 2.000000
v -0.800000 0.000000 3.000000
v -0.800000 2.200000 3.000000
v -0.800000 2.200000 2.200000
v -0.800000 0.000000 2.200000
v -0.800000 0.000000 0.100000
v -0.800000 2.200000 0.100000
v -0.800000 0.400000 2.200000
v -0.800000 0.400000 3.000000
v -0.800000 0.400000 2.000000
v -0.800000 0.400000 0.100000
v -0.800000 0.000000 -2.000000
v -0.800000 2.200000 -2.000000
v -0.800000 0.000000 -3.000000
v -0.800000 2.200000 -3.000000
v -0.800000 2.200000 -2.200000
v -0.800000 0.000000 -2.200000
v -0.800000 0.000000 -0.100000
v -0.800000 2.200000 -0.100000
v -0.800000 0.400000 -2.200000
v -0.800000 0.400000 -3.000000
v -0.800000 0.400000 -2.000000
v -0.800000 0.400000 -0.100000
v -0.760000 1.000000 0.100000
v -0.760000 2.200000 0.100000
v -0.760000 0.000000 0.100000
v -0.760000 1.000000 -0.100000
v -0.760000 2.200000 -0.100000
v -0.760000 0.000000 -0.100000
v 0.800000 0.000000 2.000000
v 0.800000 2.200000 2.000000
v 0.800000 0.000000 3.000000
v 0.800000 2.200000 3.000000
v 0.800000 2.200000 2.200000
v 0.800000 0.000000 2.200000
v 0.800000 0.000000 0.100000
v 0.800000 2.200000 0.100000
v 0.800000 0.400000 2.200000
v 0.800000 0.400000 3.000000
v 0.800000 0.400000 2.000000
v 0.800000 0.400000 0.100000
v 0.800000 0.000000 -2.000000
v 0.800000 2.200000 -2.000000
v 0.800000 0.000000 -3.000000
v 0.800000 2.200000 -3.000000
v 0.800000 2.200000 -2.200000
v 0.800000 0.000000 -2.200000
v 0.800000 0.000000 -0.100000
v 0.800000 2.200000 -0.100000
v 0.800000 0.400000 -2.200000
v 0.800000 0.400000 -3.000000
v 0.800000 0.400000 -2.000000
v 0.800000 0.400000 -0.100000
v 0.760000 1.000000 0.100000
v 0.760000 2.200000 0.100000
v 0.760000 0.000000 0.100000
v 0.760000 1.000000 -0.100000
v 0.760000 2.200000 -0.100000
v 0.760000 0.000000 -0.100000
vt 0.955743 0.031107
vt 0.964273 0.031107
vt 0.964273 0.036494
vt 0.955743 0.036494
vt 0.954845 0.036494
vt 0.951254 0.036494
vt 0.951254 0.031107
vt 0.954845 0.031107
vt 0.871464 0.026844
vt 0.873542 0.026844
vt 0.874061 0.026844
vt 0.878994 0.026844
vt 0.878994 0.040866
vt 0.874061 0.040866
vt 0.873542 0.040866
vt 0.871464 0.040866
vt 0.964273 0.041888
vt 0.955743 0.041888
vt 0.954845 0.041888
vt 0.951254 0.041888
vt 0.954106 0.031437
vt 0.954106 0.046983
vt 0.953977 0.046985
vt 0.953925 0.039577
vt 0.953925 0.026010
vt 0.954106 0.026010
vt 0.025994 0.049149
vt 0.050091 0.048181
vt 0.046740 0.053318
vt 0.029111 0.052771
vt 0.953515 0.046696
vt 0.953554 0.029773
vt 0.953515 0.026011
vt 0.953641 0.026010
vt 0.953738 0.035415
vt 0.953712 0.046698
vt 0.040477 0.043997
vt 0.014600 0.044923
vt 0.019022 0.039364
vt 0.036328 0.039912
vt 0.029579 0.035309
vt 0.029579 0.023432
vt 0.030370 0.023432
vt 0.030370 0.035309
vt 0.030370 0.049562
vt 0.029579 0.049562
vt 0.869379 0.040866
vt 0.868860 0.040866
vt 0.863926 0.040866
vt 0.863926 0.026844
vt 0.868860 0.026844
vt 0.869379 0.026844
vt 0.959784 0.031100
vt 0.951254 0.025713
vt 0.959784 0.025713
vt 0.960682 0.025713
vt 0.964273 0.025713
vt 0.960682 0.031100
vt 0.886533 0.026844
vt 0.886533 0.040866
vt 0.884456 0.040866
vt 0.883936 0.040866
vt 0.883936 0.026844
vt 0.884456 0.026844
vt 0.866003 0.040874
vt 0.866523 0.040874
vt 0.871456 0.054896
vt 0.866523 0.054896
vt 0.866003 0.054896
vt 0.863926 0.054896
vt 0.953388 0.029772
vt 0.953388 0.026010
vt 0.953514 0.035415
vt 0.953371 0.046698
vt 0.953174 0.046694
vt 0.049951 0.049647
vt 0.046823 0.053214
vt 0.029185 0.053402
vt 0.025853 0.048181
vt 0.953923 0.046983
vt 0.953794 0.046985
vt 0.953741 0.039577
vt 0.953740 0.026010
vt 0.953922 0.031437
vt 0.014626 0.043597
vt 0.018774 0.039564
vt 0.036086 0.039284
vt 0.040500 0.044923
vt 0.031164 0.035309
vt 0.031164 0.049562
vt 0.031164 0.023432
vt 0.879801 0.027830
vt 0.881043 0.027830
vt 0.892846 0.027830
vt 0.894089 0.027830
vt 0.899059 0.027830
vt 0.899059 0.037770
vt 0.894089 0.037770
vt 0.892846 0.037770
vt 0.881043 0.037770
vt 0.879801 0.037770
vt 0.867998 0.037770
vt 0.866755 0.037770
vt 0.861786 0.037770
vt 0.861786 0.027830
vt 0.866755 0.027830
vt 0.867998 0.027830
vt 0.735732 0.031396
vt 0.730644 0.031396
vt 0.730108 0.031396
vt 0.727966 0.031396
vt 0.727966 0.027111
vt 0.730108 0.027111
vt 0.730644 0.027111
vt 0.735732 0.027111
vt 0.736268 0.027111
vt 0.741356 0.027111
vt 0.741892 0.027111
vt 0.744034 0.027111
vt 0.744034 0.031396
vt 0.741892 0.031396
vt 0.741356 0.031396
vt 0.736268 0.031396
vt 0.959784 0.047282
vt 0.951254 0.047282
vt 0.959784 0.041895
vt 0.960682 0.041895
vt 0.964273 0.047282
vt 0.960682 0.047282
vn -1.000000 -0.000000 0.000000
vn 1.000000 0.000000 0.000000
vn -0.000000 0.000000 -1.000000
vn 0.000000 -1.000000 0.000000
vn -0.000000 0.000000 1.000000
vn 0.000000 1.000000 0.000000
usemtl TunnelMain
s off
f 41/1/1 42/2/1 37/3/1 31/4/1 36/5/1 33/6/1 40/7/1 39/8/1
f 10/9/2 9/10/2 11/11/2 12/12/2 8/13/2 2/14/2 5/15/2 4/16/2
f 1/4/2 7/3/2 12/17/2 11/18/2 9/19/2 10/20/2 3/6/2 6/5/2
f 24/21/3 20/22/3 29/23/3 28/24/3 30/25/3 19/26/3
f 7/27/4 19/28/4 30/29/4 27/30/4
f 8/31/5 12/32/5 7/33/5 27/34/5 25/35/5 26/36/5
f 20/37/6 8/38/6 26/39/6 29/40/6
f 25/41/2 27/42/2 30/43/2 28/44/2 29/45/2 26/46/2
f 22/9/2 16/16/2 17/47/2 14/48/2 20/49/2 24/50/2 23/51/2 21/52/2
f 43/53/1 49/7/1 54/54/1 53/55/1 51/56/1 52/57/1 45/2/1 48/58/1
f 40/59/1 34/60/1 35/61/1 32/62/1 38/13/1 42/12/1 41/63/1 39/64/1
f 52/49/1 51/65/1 53/66/1 54/16/1 50/67/1 44/68/1 47/69/1 46/70/1
f 54/71/3 49/72/3 60/33/3 58/73/3 59/74/3 50/75/3
f 37/76/4 57/77/4 60/78/4 49/79/4
f 38/80/5 56/81/5 55/82/5 57/83/5 37/25/5 42/84/5
f 50/85/6 59/86/6 56/87/6 38/88/6
f 55/89/1 56/90/1 59/45/1 58/44/1 60/43/1 57/91/1
f 8/92/4 20/93/4 14/94/4 17/95/4 16/96/4 46/97/4 47/98/4 44/99/4 50/100/4 38/101/4 32/102/4 35/103/4 34/104/4 4/105/4 5/106/4 2/107/4
f 7/108/6 1/109/6 6/110/6 3/111/6 33/112/6 36/113/6 31/114/6 37/115/6 49/116/6 43/117/6 48/118/6 45/119/6 15/120/6 18/121/6 13/122/6 19/123/6
f 23/124/2 24/125/2 19/20/2 13/126/2 18/127/2 15/17/2 22/128/2 21/129/2
