# Blender v2.76 (sub 0) OBJ File: 'Tunnele3.blend'
# www.blender.org
mtllib Tunnele3.mtl
g Tunnela1
v 0.760000 2.200000 2.200000
v 0.760000 1.000000 2.200000
v 0.800000 0.400000 2.200000
v 0.800000 0.000000 2.200000
v 0.800000 2.200000 2.200000
v 2.000000 0.000000 0.800000
v 2.000000 2.200000 0.800000
v 0.800000 0.400000 0.800000
v 3.000000 2.200000 0.800000
v 3.000000 0.000000 0.800000
v 3.000000 0.000000 -0.800000
v 3.000000 2.200000 -0.800000
v 2.000000 0.400000 0.800000
v 0.800000 0.400000 3.000000
v 3.000000 0.400000 0.800000
v 0.800000 0.000000 3.000000
v 0.800000 2.200000 3.000000
v 0.800000 0.000000 0.800000
v 0.800000 2.200000 0.800000
v 0.800000 0.000000 2.000000
v 0.800000 2.200000 2.000000
v 0.800000 0.400000 2.000000
v 0.760000 0.000000 2.200000
v 0.760000 2.200000 2.000000
v 0.760000 1.000000 2.000000
v 0.760000 0.000000 2.000000
v 2.200000 0.000000 0.800000
v 2.200000 2.200000 0.800000
v 2.200000 0.400000 0.800000
v 2.000000 0.000000 0.760000
v 2.000000 1.000000 0.760000
v 2.000000 2.200000 0.760000
v 2.200000 0.000000 0.760000
v 2.200000 2.200000 0.760000
v 2.200000 1.000000 0.760000
v 2.000000 2.200000 -0.800000
v 2.000000 0.000000 -0.800000
v 2.200000 2.200000 -0.800000
v 2.200000 0.000000 -0.800000
v 2.000000 2.200000 -0.760000
v 2.000000 0.000000 -0.760000
v 2.200000 0.000000 -0.760000
v 2.200000 2.200000 -0.760000
v 3.000000 0.400000 -0.800000
v 2.200000 0.400000 -0.800000
v 2.200000 1.000000 -0.760000
v 2.000000 0.400000 -0.800000
v 2.000000 1.000000 -0.760000
v -0.760000 2.200000 2.200000
v -0.760000 1.000000 2.200000
v -0.800000 0.400000 2.200000
v -0.800000 0.000000 2.200000
v -0.800000 2.200000 2.200000
v -2.000000 0.000000 0.800000
v -2.000000 2.200000 0.800000
v -0.800000 0.400000 0.800000
v -3.000000 2.200000 0.800000
v -3.000000 0.000000 0.800000
v -3.000000 0.000000 -0.800000
v -3.000000 2.200000 -0.800000
v -2.000000 0.400000 0.800000
v -0.800000 0.400000 3.000000
v -3.000000 0.400000 0.800000
v -0.800000 0.000000 3.000000
v -0.800000 2.200000 3.000000
v -0.800000 0.000000 0.800000
v -0.800000 2.200000 0.800000
v -0.800000 0.000000 2.000000
v -0.800000 2.200000 2.000000
v -0.800000 0.400000 2.000000
v -0.760000 0.000000 2.200000
v -0.760000 2.200000 2.000000
v -0.760000 1.000000 2.000000
v -0.760000 0.000000 2.000000
v -2.200000 0.000000 0.800000
v -2.200000 2.200000 0.800000
v -2.200000 0.400000 0.800000
v -2.000000 0.000000 0.760000
v -2.000000 1.000000 0.760000
v -2.000000 2.200000 0.760000
v -2.200000 0.000000 0.760000
v -2.200000 2.200000 0.760000
v -2.200000 1.000000 0.760000
v 0.000000 0.000000 0.800000
v 0.000000 0.000000 3.000000
v 0.000000 2.200000 0.800000
v 0.000000 2.200000 3.000000
v -2.000000 2.200000 -0.800000
v -2.000000 0.000000 -0.800000
v -2.200000 2.200000 -0.800000
v -2.200000 0.000000 -0.800000
v -2.000000 2.200000 -0.760000
v -2.000000 0.000000 -0.760000
v -2.200000 0.000000 -0.760000
v -2.200000 2.200000 -0.760000
v -3.000000 0.400000 -0.800000
v -2.200000 0.400000 -0.800000
v -2.200000 1.000000 -0.760000
v -2.000000 0.400000 -0.800000
v -2.000000 1.000000 -0.760000
vt 0.553367 0.110150
vt 0.553367 0.103759
vt 0.559758 0.103759
vt 0.559758 0.110150
vt 0.648152 0.115543
vt 0.644267 0.115543
vt 0.644267 0.098063
vt 0.648152 0.098063
vt 0.574707 0.114423
vt 0.568316 0.114423
vt 0.568316 0.110162
vt 0.574707 0.110162
vt 0.628723 0.115559
vt 0.631313 0.115559
vt 0.631313 0.133039
vt 0.628723 0.133039
vt 0.738457 0.110133
vt 0.738401 0.134293
vt 0.737979 0.134290
vt 0.738063 0.098053
vt 0.737979 0.089998
vt 0.738248 0.089995
vt 0.736505 0.110133
vt 0.736449 0.134293
vt 0.736028 0.134290
vt 0.736111 0.098053
vt 0.736028 0.089998
vt 0.736296 0.089995
vt 0.088155 0.961190
vt 0.032022 0.030967
vt 0.032022 0.041451
vt 0.031440 0.041451
vt 0.031440 0.030967
vt 0.031440 0.022231
vt 0.032022 0.022231
vt 0.032609 0.041451
vt 0.032609 0.022231
vt 0.032609 0.030967
vt 0.739655 0.134903
vt 0.739378 0.134907
vt 0.739268 0.119046
vt 0.739268 0.089995
vt 0.739655 0.089995
vt 0.739655 0.101615
vt 0.740451 0.134903
vt 0.740174 0.134907
vt 0.740063 0.119046
vt 0.740063 0.089995
vt 0.740451 0.089995
vt 0.740451 0.101615
vt 0.033786 0.041451
vt 0.033786 0.030967
vt 0.033786 0.022231
vt 0.034368 0.022231
vt 0.034368 0.030967
vt 0.034368 0.041451
vt 0.737003 0.089998
vt 0.737272 0.089995
vt 0.737481 0.110133
vt 0.737425 0.134293
vt 0.737003 0.134289
vt 0.737087 0.098053
vt 0.738859 0.134903
vt 0.738582 0.134907
vt 0.738470 0.119046
vt 0.738467 0.089995
vt 0.738854 0.089995
vt 0.738856 0.101615
vt 0.564031 0.116553
vt 0.559770 0.116553
vt 0.559770 0.110162
vt 0.564031 0.110162
vt 0.652036 0.098063
vt 0.652036 0.115543
vt 0.559758 0.116541
vt 0.553367 0.116541
vt 0.626118 0.133039
vt 0.626118 0.115559
vt 0.568316 0.120826
vt 0.572577 0.114435
vt 0.572577 0.120826
vt 0.637493 0.114712
vt 0.637493 0.118888
vt 0.633317 0.118888
vt 0.629141 0.118888
vt 0.629141 0.114712
vt 0.629141 0.113668
vt 0.629141 0.107403
vt 0.633317 0.107403
vt 0.637493 0.107403
vt 0.637493 0.113668
vt 0.566161 0.103759
vt 0.566161 0.110150
vt 0.640361 0.115545
vt 0.640367 0.098065
vt 0.644245 0.115546
vt 0.576825 0.110150
vt 0.572564 0.110150
vt 0.572564 0.103759
vt 0.576825 0.103759
vt 0.654641 0.098063
vt 0.654641 0.115543
vt 0.652052 0.115543
vt 0.652052 0.098063
vt 0.740461 0.119046
vt 0.740849 0.089995
vt 0.740849 0.101615
vt 0.740849 0.134903
vt 0.740572 0.134907
vt 0.738870 0.119046
vt 0.739257 0.101615
vt 0.739257 0.134903
vt 0.738980 0.134907
vt 0.030854 0.030967
vt 0.030854 0.022231
vt 0.030854 0.041451
vt 0.033195 0.022231
vt 0.033195 0.030967
vt 0.033195 0.041451
vt 0.736516 0.134290
vt 0.736599 0.098053
vt 0.736516 0.089998
vt 0.736784 0.089995
vt 0.736993 0.110133
vt 0.736937 0.134293
vt 0.735540 0.134289
vt 0.735623 0.098053
vt 0.735540 0.089998
vt 0.735808 0.089995
vt 0.736017 0.110133
vt 0.740053 0.101615
vt 0.740053 0.134903
vt 0.739776 0.134907
vt 0.739666 0.119046
vt 0.737491 0.134289
vt 0.737575 0.098053
vt 0.737491 0.089998
vt 0.737760 0.089995
vt 0.737969 0.110133
vt 0.737913 0.134293
vt 0.623513 0.115559
vt 0.623513 0.133039
vt 0.568304 0.116553
vt 0.636476 0.115543
vt 0.636482 0.098063
vt 0.633918 0.115559
vt 0.633918 0.133039
vt 0.576849 0.120826
vt 0.576849 0.114435
vt 0.502098 0.107088
vt 0.502098 0.109185
vt 0.502098 0.109710
vt 0.502098 0.112856
vt 0.500000 0.112856
vt 0.497902 0.112856
vt 0.497902 0.109710
vt 0.497902 0.109185
vt 0.497902 0.107088
vt 0.500000 0.107088
vt 0.505769 0.112856
vt 0.507866 0.112856
vt 0.507866 0.117052
vt 0.505769 0.117052
vt 0.505244 0.117052
vt 0.494756 0.117052
vt 0.494231 0.117052
vt 0.492134 0.117052
vt 0.492134 0.112856
vt 0.494231 0.112856
vt 0.494756 0.112856
vt 0.505244 0.112856
vt 0.657247 0.098063
vt 0.657247 0.115543
vt 0.654657 0.115543
vt 0.654657 0.098063
vt 0.643758 0.107403
vt 0.622876 0.107403
vt 0.621832 0.107403
vt 0.617656 0.107403
vt 0.617656 0.099051
vt 0.621832 0.099051
vt 0.622876 0.099051
vt 0.643758 0.099051
vt 0.644802 0.099051
vt 0.648978 0.099051
vt 0.648978 0.107403
vt 0.644802 0.107403
vt 0.574670 0.097356
vt 0.574670 0.103747
vt 0.553367 0.103747
vt 0.553367 0.097356
vt 0.623513 0.115543
vt 0.623513 0.098063
vn 0.000000 0.000000 -1.000000
vn 1.000000 0.000000 0.000000
vn 0.000000 1.000000 0.000000
vn 0.000000 -1.000000 0.000000
vn -1.000000 0.000000 0.000000
vn -0.000000 0.000000 1.000000
usemtl TunnelMain
s off
f 8/1/1 13/2/1 6/3/1 18/4/1
f 19/5/1 7/6/1 13/7/1 8/8/1
f 15/9/1 10/10/1 27/11/1 29/12/1
f 15/13/1 29/14/1 28/15/1 9/16/1
f 25/17/1 24/18/1 21/19/1 22/20/1 20/21/1 26/22/1
f 35/23/2 34/24/2 28/25/2 29/26/2 27/27/2 33/28/2
f 21/29/3 24/29/3 1/29/3 5/29/3
f 4/29/4 23/29/4 26/29/4 20/29/4
f 28/29/3 34/29/3 32/29/3 7/29/3
f 31/30/1 32/31/1 34/32/1 35/33/1 33/34/1 30/35/1
f 1/36/5 24/31/5 25/30/5 26/35/5 23/37/5 2/38/5
f 7/39/5 32/40/5 31/41/5 30/42/5 6/43/5 13/44/5
f 6/29/4 30/29/4 33/29/4 27/29/4
f 5/45/6 1/46/6 2/47/6 23/48/6 4/49/6 3/50/6
f 40/51/6 48/52/6 41/53/6 42/54/6 46/55/6 43/56/6
f 37/29/4 39/29/4 42/29/4 41/29/4
f 38/29/3 36/29/3 40/29/3 43/29/3
f 37/57/5 41/58/5 48/59/5 40/60/5 36/61/5 47/62/5
f 38/63/2 43/64/2 46/65/2 42/66/2 39/67/2 45/68/2
f 44/69/6 45/70/6 39/71/6 11/72/6
f 19/5/5 8/8/5 22/73/5 21/74/5
f 8/1/5 18/4/5 20/75/5 22/76/5
f 14/13/5 17/16/5 5/77/5 3/78/5
f 3/79/5 4/10/5 16/80/5 14/81/5
f 5/82/4 17/83/4 87/84/4 65/85/4 53/86/4 69/87/4 67/88/4 86/89/4 19/90/4 21/91/4
f 56/92/1 66/93/1 54/4/1 61/3/1
f 67/94/1 56/95/1 61/7/1 55/96/1
f 63/97/1 77/98/1 75/99/1 58/100/1
f 63/101/1 57/102/1 76/103/1 77/104/1
f 73/105/1 74/49/1 68/106/1 70/107/1 69/108/1 72/109/1
f 83/110/5 81/67/5 75/42/5 77/111/5 76/112/5 82/113/5
f 69/29/3 53/29/3 49/29/3 72/29/3
f 52/29/4 68/29/4 74/29/4 71/29/4
f 76/29/3 55/29/3 80/29/3 82/29/3
f 79/114/1 78/115/1 81/34/1 83/33/1 82/32/1 80/116/1
f 49/36/2 50/38/2 71/37/2 74/117/2 73/118/2 72/119/2
f 55/120/2 61/121/2 54/122/2 78/123/2 79/124/2 80/125/2
f 54/29/4 75/29/4 81/29/4 78/29/4
f 53/126/6 51/127/6 52/128/6 71/129/6 50/130/6 49/25/6
f 92/51/6 95/119/6 98/118/6 94/117/6 93/53/6 100/52/6
f 89/29/4 93/29/4 94/29/4 91/29/4
f 90/29/3 95/29/3 92/29/3 88/29/3
f 89/48/2 99/131/2 88/132/2 92/133/2 100/134/2 93/43/2
f 90/135/5 97/136/5 91/137/5 94/138/5 98/139/5 95/140/5
f 45/141/6 44/78/6 12/77/6 38/142/6
f 96/69/6 59/72/6 91/11/6 97/143/6
f 67/94/2 69/144/2 70/145/2 56/95/2
f 56/92/2 70/99/2 68/98/2 66/93/2
f 62/14/2 51/146/2 53/147/2 65/15/2
f 51/148/2 62/81/2 64/80/2 52/149/2
f 16/150/3 4/151/3 20/152/3 18/153/3 84/154/3 66/155/3 68/156/3 52/157/3 64/158/3 85/159/3
f 27/160/3 10/161/3 11/162/3 39/163/3 37/164/3 89/165/3 91/166/3 59/167/3 58/168/3 75/169/3 54/170/3 66/155/3 84/154/3 18/153/3 6/171/3
f 97/172/6 90/173/6 60/174/6 96/175/6
f 7/176/4 19/90/4 86/89/4 67/88/4 55/177/4 76/178/4 57/179/4 60/180/4 90/181/4 88/182/4 36/183/4 38/184/4 12/185/4 9/186/4 28/187/4
f 37/188/6 47/189/6 99/190/6 89/191/6
f 47/145/6 36/144/6 88/192/6 99/193/6
