# Blender v2.76 (sub 0) OBJ File: 'tunnel4.blend'
# www.blender.org
mtllib tunnel4.mtl
g Tunnel4
v 1.000000 2.000000 3.000000
v 1.000000 0.000000 3.000000
v -1.000000 2.000000 3.000000
v -1.000000 0.000000 3.000000
v -1.000000 2.000000 -3.000000
v -1.000000 0.000000 -3.000000
v 1.000000 2.000000 -3.000000
v 1.000000 0.000000 -3.000000
vt 0.024066 0.382576
vt 0.582209 0.382576
vt 0.582209 0.568624
vt 0.024066 0.568624
vt 0.018137 0.982707
vt 0.018137 0.795988
vt 0.578295 0.795988
vt 0.578295 0.982707
vt 0.018137 0.609269
vt 0.578295 0.609269
vt 0.582209 0.196529
vt 0.024066 0.196529
vt 0.646266 0.060599
vt 0.944322 0.060599
vt 0.944322 0.358656
vt 0.646266 0.358656
vn 0.000000 -1.000000 0.000000
vn 0.000000 1.000000 0.000000
vn -1.000000 0.000000 0.000000
vn 1.000000 0.000000 0.000000
vn 0.000000 0.000000 1.000000
usemtl Tunnel4
s off
f 3/1/1 5/2/1 7/3/1 1/4/1
f 4/5/2 2/6/2 8/7/2 6/8/2
f 8/7/3 2/6/3 1/9/3 7/10/3
f 6/11/4 5/2/4 3/1/4 4/12/4
f 6/13/5 8/14/5 7/15/5 5/16/5
