# Blender v2.76 (sub 0) OBJ File: 'Tunnela4.blend'
# www.blender.org
mtllib Tunnela4.mtl
g Tunnela1
v 0.760000 2.000000 2.200000
v 0.760000 1.000000 2.200000
v 0.800000 0.400000 2.200000
v 0.800000 0.000000 2.200000
v 0.800000 2.000000 2.200000
v 0.800000 0.400000 0.800000
v 0.800000 0.400000 3.000000
v 0.800000 0.000000 3.000000
v 0.800000 2.000000 3.000000
v 0.800000 0.000000 0.800000
v 0.800000 2.000000 0.800000
v 0.800000 0.000000 2.000000
v 0.800000 2.000000 2.000000
v 0.800000 0.400000 2.000000
v 0.100000 0.000000 -0.760000
v 0.100000 2.000000 -0.800000
v 0.100000 0.000000 -0.800000
v 0.760000 0.000000 2.200000
v 0.760000 2.000000 2.000000
v 0.760000 1.000000 2.000000
v 0.760000 0.000000 2.000000
v -0.850000 0.000000 -0.800000
v 0.800000 0.000000 -0.800000
v -0.850000 2.000000 -0.800000
v 0.800000 2.000000 -0.800000
v 0.800000 0.400000 -0.800000
v -0.760000 2.000000 2.200000
v -0.760000 1.000000 2.200000
v -0.800000 0.400000 2.200000
v -0.800000 0.000000 2.200000
v -0.800000 2.000000 2.200000
v -2.000000 0.000000 0.800000
v -2.000000 2.000000 0.800000
v -0.800000 0.400000 0.800000
v -3.000000 2.000000 0.800000
v -3.000000 0.000000 0.800000
v -3.000000 0.000000 -0.800000
v -3.000000 2.000000 -0.800000
v -2.000000 0.400000 0.800000
v -0.800000 0.400000 3.000000
v -3.000000 0.400000 0.800000
v -0.800000 0.000000 3.000000
v -0.800000 2.000000 3.000000
v -0.800000 0.000000 0.800000
v -0.800000 2.000000 0.800000
v -0.800000 0.000000 2.000000
v -0.800000 2.000000 2.000000
v -0.800000 0.400000 2.000000
v -0.100000 0.000000 -0.760000
v -0.100000 2.000000 -0.800000
v -0.100000 0.000000 -0.800000
v -0.760000 0.000000 2.200000
v -0.760000 2.000000 2.000000
v -0.760000 1.000000 2.000000
v -0.760000 0.000000 2.000000
v -2.200000 0.000000 0.800000
v -2.200000 2.000000 0.800000
v -2.200000 0.400000 0.800000
v -2.000000 0.000000 0.760000
v -2.000000 1.000000 0.760000
v -2.000000 2.000000 0.760000
v -2.200000 0.000000 0.760000
v -2.200000 2.000000 0.760000
v -2.200000 1.000000 0.760000
v 0.000000 0.000000 -0.760000
v 0.000000 0.000000 0.800000
v 0.000000 0.000000 3.000000
v 0.000000 2.000000 0.800000
v 0.000000 2.000000 3.000000
v -2.000000 2.000000 -0.800000
v -2.000000 0.000000 -0.800000
v -2.200000 2.000000 -0.800000
v -2.200000 0.000000 -0.800000
v -2.000000 2.000000 -0.760000
v -2.000000 0.000000 -0.760000
v -2.200000 0.000000 -0.760000
v -2.200000 2.000000 -0.760000
v -3.000000 0.400000 -0.800000
v -2.200000 0.400000 -0.800000
v -2.200000 1.000000 -0.760000
v -2.000000 0.400000 -0.800000
v -2.000000 1.000000 -0.760000
v 0.000000 2.000000 -0.800000
v 0.000000 0.000000 -0.760000
v -0.850000 0.400000 -0.800000
vt 0.344404 0.034828
vt 0.344373 0.057221
vt 0.343982 0.057219
vt 0.344031 0.021396
vt 0.343982 0.012439
vt 0.344280 0.012438
vt 0.116059 0.037273
vt 0.260850 0.051400
vt 0.259340 0.051400
vt 0.259340 0.028740
vt 0.259340 0.006081
vt 0.260850 0.006081
vt 0.260850 0.028740
vt 0.346942 0.057443
vt 0.346641 0.057445
vt 0.346586 0.040181
vt 0.346608 0.012438
vt 0.346978 0.012438
vt 0.346969 0.023535
vt 0.036938 0.034933
vt 0.036938 0.018134
vt 0.041137 0.018134
vt 0.041137 0.034933
vt 0.167383 0.035219
vt 0.176388 0.035219
vt 0.176388 0.044224
vt 0.167383 0.044224
vt 0.027121 0.034950
vt 0.027121 0.051748
vt 0.024322 0.051748
vt 0.024322 0.034950
vt 0.194435 0.041241
vt 0.185430 0.041241
vt 0.185430 0.035237
vt 0.194435 0.035237
vt 0.040710 0.040659
vt 0.036705 0.044664
vt 0.032700 0.040659
vt 0.028695 0.036654
vt 0.032700 0.032649
vt 0.033701 0.031647
vt 0.039709 0.025640
vt 0.043714 0.029645
vt 0.047719 0.033650
vt 0.041711 0.039658
vt 0.176407 0.026214
vt 0.185412 0.026214
vt 0.028521 0.034933
vt 0.028521 0.018134
vt 0.032721 0.018134
vt 0.032721 0.034933
vt 0.182410 0.062271
vt 0.176407 0.062271
vt 0.176407 0.053266
vt 0.182410 0.053266
vt 0.038389 0.034950
vt 0.038389 0.051748
vt 0.035590 0.051748
vt 0.035590 0.034950
vt 0.347893 0.040181
vt 0.347893 0.012438
vt 0.348263 0.012438
vt 0.348263 0.023535
vt 0.348263 0.057442
vt 0.347962 0.057445
vt 0.342393 0.040180
vt 0.342503 0.012438
vt 0.342873 0.012439
vt 0.342829 0.023536
vt 0.342693 0.057443
vt 0.342392 0.057445
vt 0.253251 0.028740
vt 0.253251 0.006081
vt 0.254761 0.006081
vt 0.254762 0.028740
vt 0.254762 0.051400
vt 0.253251 0.051400
vt 0.251729 0.051400
vt 0.251729 0.028740
vt 0.251729 0.006081
vt 0.253239 0.006081
vt 0.253239 0.028740
vt 0.253239 0.051400
vt 0.344465 0.021396
vt 0.344416 0.012439
vt 0.344714 0.012438
vt 0.344838 0.034828
vt 0.344807 0.057221
vt 0.345285 0.057219
vt 0.345334 0.021396
vt 0.345284 0.012439
vt 0.345583 0.012438
vt 0.345706 0.034828
vt 0.345676 0.057221
vt 0.262373 0.051400
vt 0.262373 0.006081
vt 0.262373 0.028740
vt 0.347383 0.012438
vt 0.347374 0.023535
vt 0.347346 0.057443
vt 0.347045 0.057445
vt 0.346990 0.040181
vt 0.346152 0.057219
vt 0.346202 0.021396
vt 0.346152 0.012439
vt 0.346451 0.012438
vt 0.346574 0.034828
vt 0.346543 0.057221
vt 0.054488 0.018134
vt 0.057288 0.018134
vt 0.057288 0.034933
vt 0.054488 0.034933
vt 0.191434 0.026214
vt 0.191434 0.035219
vt 0.024322 0.018134
vt 0.185412 0.044224
vt 0.029938 0.034950
vt 0.029938 0.051748
vt 0.201939 0.053247
vt 0.195936 0.053247
vt 0.195936 0.044242
vt 0.201939 0.044242
vt 0.126365 0.017497
vt 0.126363 0.024751
vt 0.126362 0.026565
vt 0.126358 0.037446
vt 0.119104 0.037444
vt 0.111849 0.037441
vt 0.111853 0.026560
vt 0.111854 0.024746
vt 0.111856 0.017492
vt 0.119111 0.017494
vt 0.047468 0.017379
vt 0.051223 0.021134
vt 0.051724 0.021635
vt 0.052224 0.022136
vt 0.055979 0.025890
vt 0.032700 0.018631
vt 0.028695 0.014626
vt 0.036705 0.006616
vt 0.040710 0.010621
vt 0.041711 0.011622
vt 0.033701 0.019632
vt 0.100968 0.037437
vt 0.111391 0.051950
vt 0.100963 0.051946
vt 0.099149 0.051946
vt 0.091895 0.051943
vt 0.091900 0.037434
vt 0.099154 0.037437
vt 0.126807 0.051955
vt 0.120006 0.051953
vt 0.118192 0.051952
vt 0.049287 0.065605
vt 0.037888 0.065605
vt 0.037888 0.031425
vt 0.049287 0.031425
vt 0.173380 0.015794
vt 0.200184 0.015794
vt 0.200184 0.035887
vt 0.173380 0.035887
vt 0.209394 0.037957
vt 0.182836 0.037957
vt 0.164326 0.037957
vt 0.164326 0.018642
vt 0.182836 0.018642
vt 0.209394 0.018642
vt 0.043896 0.053493
vt 0.029010 0.053493
vt 0.018635 0.053493
vt 0.018635 0.010189
vt 0.029010 0.010189
vt 0.043896 0.010189
vn 0.000000 0.000000 -1.000000
vn 0.000000 1.000000 0.000000
vn 0.000000 -1.000000 0.000000
vn -1.000000 0.000000 0.000000
vn -0.000000 0.000000 1.000000
vn 1.000000 0.000000 0.000000
usemtl TunnelMain
s off
f 20/1/1 19/2/1 13/3/1 14/4/1 12/5/1 21/6/1
f 13/7/2 19/7/2 1/7/2 5/7/2
f 4/7/3 18/7/3 21/7/3 12/7/3
f 1/8/4 19/9/4 20/10/4 21/11/4 18/12/4 2/13/4
f 5/14/5 1/15/5 2/16/5 18/17/5 4/18/5 3/19/5
f 11/20/4 6/21/4 14/22/4 13/23/4
f 6/24/4 10/25/4 12/26/4 14/27/4
f 7/28/4 9/29/4 5/30/4 3/31/4
f 3/32/4 4/33/4 8/34/4 7/35/4
f 5/36/3 9/37/3 69/38/3 43/39/3 31/40/3 47/41/3 45/42/3 68/43/3 11/44/3 13/45/3
f 34/34/1 44/25/1 32/46/1 39/47/1
f 45/48/1 34/49/1 39/50/1 33/51/1
f 41/52/1 58/53/1 56/54/1 36/55/1
f 41/56/1 35/57/1 57/58/1 58/59/1
f 54/60/1 55/61/1 46/62/1 48/63/1 47/64/1 53/65/1
f 64/66/4 62/67/4 56/68/4 58/69/4 57/70/4 63/71/4
f 47/7/2 31/7/2 27/7/2 53/7/2
f 30/7/3 46/7/3 55/7/3 52/7/3
f 57/7/2 33/7/2 61/7/2 63/7/2
f 60/72/1 59/73/1 62/74/1 64/75/1 63/76/1 61/77/1
f 27/78/6 28/79/6 52/80/6 55/81/6 54/82/6 53/83/6
f 33/2/6 39/84/6 32/85/6 59/86/6 60/87/6 61/88/6
f 32/7/3 56/7/3 62/7/3 59/7/3
f 31/89/5 29/90/5 30/91/5 52/92/5 28/93/5 27/94/5
f 74/95/5 77/8/5 80/13/5 76/12/5 75/96/5 82/97/5
f 71/7/3 75/7/3 76/7/3 73/7/3
f 72/7/2 77/7/2 74/7/2 70/7/2
f 71/98/6 81/99/6 70/100/6 74/101/6 82/102/6 75/18/6
f 72/103/4 79/104/4 73/105/4 76/106/4 80/107/4 77/108/4
f 78/109/5 79/110/5 72/111/5 38/112/5
f 78/34/5 37/47/5 73/113/5 79/114/5
f 45/48/6 47/31/6 48/115/6 34/49/6
f 34/34/6 48/116/6 46/26/6 44/25/6
f 40/28/6 29/117/6 31/118/6 43/29/6
f 29/119/6 40/120/6 42/121/6 30/122/6
f 8/123/2 4/124/2 12/125/2 10/126/2 66/127/2 44/128/2 46/129/2 30/130/2 42/131/2 67/132/2
f 68/43/3 45/42/3 24/133/3 50/134/3 83/135/3 16/136/3 25/137/3 11/44/3
f 57/138/3 35/139/3 38/140/3 72/141/3 70/142/3 24/133/3 45/42/3 33/143/3
f 32/144/2 44/128/2 22/145/2 71/146/2 73/147/2 37/148/2 36/149/2 56/150/2
f 10/126/2 23/151/2 17/152/2 51/153/2 22/145/2 44/128/2 66/127/2
f 11/154/4 25/155/4 26/156/4 6/157/4
f 6/158/4 26/159/4 23/160/4 10/161/4
f 26/162/5 85/163/5 81/164/5 71/165/5 22/166/5 23/167/5
f 25/168/5 24/169/5 70/170/5 81/171/5 85/172/5 26/173/5
l 15 65
l 15 84
l 49 65
l 49 84
