# Blender v2.76 (sub 0) OBJ File: 'Tunnela3.blend'
# www.blender.org
mtllib Tunnela3.mtl
g Tunnela1
v 0.760000 2.200000 2.200000
v 0.760000 1.000000 2.200000
v 0.800000 0.400000 2.200000
v 0.800000 0.000000 2.200000
v 0.800000 2.200000 2.200000
v 2.000000 0.000000 0.800000
v 2.000000 2.200000 0.800000
v 0.800000 0.400000 0.800000
v 3.000000 2.200000 0.800000
v 3.000000 0.000000 0.800000
v 3.000000 0.000000 -0.800000
v 3.000000 2.200000 -0.800000
v 2.000000 0.400000 0.800000
v 0.800000 0.400000 3.000000
v 3.000000 0.400000 0.800000
v 0.800000 0.000000 3.000000
v 0.800000 2.200000 3.000000
v 0.800000 0.000000 0.800000
v 0.800000 2.200000 0.800000
v 0.800000 0.000000 2.000000
v 0.800000 2.200000 2.000000
v 0.800000 0.400000 2.000000
v 0.760000 0.000000 2.200000
v 0.760000 2.200000 2.000000
v 0.760000 1.000000 2.000000
v 0.760000 0.000000 2.000000
v 2.200000 0.000000 0.800000
v 2.200000 2.200000 0.800000
v 2.200000 0.400000 0.800000
v 2.000000 0.000000 0.760000
v 2.000000 1.000000 0.760000
v 2.000000 2.200000 0.760000
v 2.200000 0.000000 0.760000
v 2.200000 2.200000 0.760000
v 2.200000 1.000000 0.760000
v 2.000000 2.200000 -0.800000
v 2.000000 0.000000 -0.800000
v 2.200000 2.200000 -0.800000
v 2.200000 0.000000 -0.800000
v 2.000000 2.200000 -0.760000
v 2.000000 0.000000 -0.760000
v 2.200000 0.000000 -0.760000
v 2.200000 2.200000 -0.760000
v 3.000000 0.400000 -0.800000
v 2.200000 0.400000 -0.800000
v 2.200000 1.000000 -0.760000
v 2.000000 0.400000 -0.800000
v 2.000000 1.000000 -0.760000
v -0.760000 2.200000 2.200000
v -0.760000 1.000000 2.200000
v -0.800000 0.400000 2.200000
v -0.800000 0.000000 2.200000
v -0.800000 2.200000 2.200000
v -2.000000 0.000000 0.800000
v -2.000000 2.200000 0.800000
v -0.800000 0.400000 0.800000
v -3.000000 2.200000 0.800000
v -3.000000 0.000000 0.800000
v -3.000000 0.000000 -0.800000
v -3.000000 2.200000 -0.800000
v -2.000000 0.400000 0.800000
v -0.800000 0.400000 3.000000
v -3.000000 0.400000 0.800000
v -0.800000 0.000000 3.000000
v -0.800000 2.200000 3.000000
v -0.800000 0.000000 0.800000
v -0.800000 2.200000 0.800000
v -0.800000 0.000000 2.000000
v -0.800000 2.200000 2.000000
v -0.800000 0.400000 2.000000
v -0.760000 0.000000 2.200000
v -0.760000 2.200000 2.000000
v -0.760000 1.000000 2.000000
v -0.760000 0.000000 2.000000
v -2.200000 0.000000 0.800000
v -2.200000 2.200000 0.800000
v -2.200000 0.400000 0.800000
v -2.000000 0.000000 0.760000
v -2.000000 1.000000 0.760000
v -2.000000 2.200000 0.760000
v -2.200000 0.000000 0.760000
v -2.200000 2.200000 0.760000
v -2.200000 1.000000 0.760000
v 0.000000 0.000000 0.800000
v 0.000000 0.000000 3.000000
v 0.000000 2.200000 0.800000
v 0.000000 2.200000 3.000000
v -2.000000 2.200000 -0.800000
v -2.000000 0.000000 -0.800000
v -2.200000 2.200000 -0.800000
v -2.200000 0.000000 -0.800000
v -2.000000 2.200000 -0.760000
v -2.000000 0.000000 -0.760000
v -2.200000 0.000000 -0.760000
v -2.200000 2.200000 -0.760000
v -3.000000 0.400000 -0.800000
v -2.200000 0.400000 -0.800000
v -2.200000 1.000000 -0.760000
v -2.000000 0.400000 -0.800000
v -2.000000 1.000000 -0.760000
vt 0.167383 0.035219
vt 0.167383 0.026214
vt 0.176388 0.026214
vt 0.176388 0.035219
vt 0.026741 0.036345
vt 0.025268 0.033991
vt 0.031654 0.025302
vt 0.033585 0.026720
vt 0.176388 0.059269
vt 0.167383 0.059269
vt 0.167383 0.053266
vt 0.176388 0.053266
vt 0.033308 0.029771
vt 0.033699 0.031035
vt 0.025171 0.033675
vt 0.024779 0.032412
vt 0.344404 0.034828
vt 0.344373 0.057221
vt 0.343982 0.057219
vt 0.344031 0.021396
vt 0.343982 0.012439
vt 0.344280 0.012438
vt 0.346140 0.034828
vt 0.346110 0.057221
vt 0.345719 0.057219
vt 0.345768 0.021396
vt 0.345718 0.012439
vt 0.346017 0.012438
vt 0.116059 0.037273
vt 0.257806 0.028740
vt 0.257806 0.051400
vt 0.256295 0.051400
vt 0.256295 0.028740
vt 0.256295 0.006081
vt 0.257806 0.006081
vt 0.260850 0.051400
vt 0.259340 0.051400
vt 0.259340 0.028740
vt 0.259340 0.006081
vt 0.260850 0.006081
vt 0.260850 0.028740
vt 0.343187 0.057443
vt 0.342885 0.057445
vt 0.342886 0.040180
vt 0.342997 0.012438
vt 0.343367 0.012439
vt 0.343322 0.023536
vt 0.346942 0.057443
vt 0.346641 0.057445
vt 0.346586 0.040181
vt 0.346608 0.012438
vt 0.346978 0.012438
vt 0.346969 0.023535
vt 0.254773 0.051400
vt 0.254773 0.028740
vt 0.254773 0.006081
vt 0.344850 0.012439
vt 0.345148 0.012438
vt 0.345272 0.034828
vt 0.345242 0.057221
vt 0.344851 0.057219
vt 0.344899 0.021396
vt 0.348645 0.057442
vt 0.348344 0.057445
vt 0.348275 0.040181
vt 0.348275 0.012438
vt 0.348645 0.012438
vt 0.348645 0.023535
vt 0.197455 0.035219
vt 0.191452 0.035219
vt 0.191452 0.026214
vt 0.197455 0.026214
vt 0.035555 0.028110
vt 0.029301 0.036975
vt 0.176388 0.044224
vt 0.167383 0.044224
vt 0.031375 0.027762
vt 0.031019 0.037041
vt 0.029644 0.036988
vt 0.030000 0.027709
vt 0.194435 0.041241
vt 0.185430 0.041241
vt 0.185430 0.035237
vt 0.194435 0.035237
vt 0.030966 0.038415
vt 0.030913 0.039790
vt 0.029539 0.039737
vt 0.029195 0.039724
vt 0.026580 0.040236
vt 0.026570 0.038335
vt 0.185412 0.026214
vt 0.033732 0.049337
vt 0.031961 0.050782
vt 0.025462 0.042810
vt 0.182410 0.062271
vt 0.176407 0.062271
vt 0.182410 0.053266
vt 0.033439 0.045133
vt 0.025311 0.044316
vt 0.025432 0.043112
vt 0.033560 0.043929
vt 0.347893 0.040181
vt 0.347893 0.012438
vt 0.348263 0.023535
vt 0.347962 0.057445
vt 0.342393 0.040180
vt 0.342503 0.012438
vt 0.342873 0.012439
vt 0.342829 0.023536
vt 0.342693 0.057443
vt 0.342392 0.057445
vt 0.253251 0.028740
vt 0.253251 0.006081
vt 0.253251 0.051400
vt 0.251729 0.051400
vt 0.251729 0.028740
vt 0.251729 0.006081
vt 0.253239 0.006081
vt 0.253239 0.028740
vt 0.253239 0.051400
vt 0.344465 0.021396
vt 0.344416 0.012439
vt 0.344714 0.012438
vt 0.344838 0.034828
vt 0.344807 0.057221
vt 0.345285 0.057219
vt 0.345334 0.021396
vt 0.345284 0.012439
vt 0.345583 0.012438
vt 0.345706 0.034828
vt 0.262373 0.051400
vt 0.262373 0.006081
vt 0.262373 0.028740
vt 0.347383 0.012438
vt 0.347374 0.023535
vt 0.347346 0.057443
vt 0.347045 0.057445
vt 0.346990 0.040181
vt 0.346152 0.057219
vt 0.346202 0.021396
vt 0.346152 0.012439
vt 0.346451 0.012438
vt 0.346574 0.034828
vt 0.346543 0.057221
vt 0.014115 0.037098
vt 0.013724 0.035834
vt 0.022252 0.033194
vt 0.022644 0.034457
vt 0.191434 0.026214
vt 0.191434 0.035219
vt 0.035555 0.047924
vt 0.185412 0.044224
vt 0.030558 0.049069
vt 0.029183 0.049016
vt 0.201939 0.053247
vt 0.195936 0.053247
vt 0.195936 0.044242
vt 0.201939 0.044242
vt 0.130051 0.014076
vt 0.130051 0.016174
vt 0.130051 0.016698
vt 0.130051 0.019845
vt 0.127953 0.019845
vt 0.125855 0.019845
vt 0.125855 0.016698
vt 0.125855 0.016174
vt 0.125855 0.014076
vt 0.127953 0.014076
vt 0.133722 0.019845
vt 0.135819 0.019845
vt 0.135819 0.024040
vt 0.133722 0.024040
vt 0.133197 0.024040
vt 0.122709 0.024040
vt 0.122184 0.024040
vt 0.120087 0.024040
vt 0.120087 0.019845
vt 0.122184 0.019845
vt 0.122709 0.019845
vt 0.133197 0.019845
vt 0.014895 0.042052
vt 0.023023 0.042869
vt 0.022902 0.044074
vt 0.014774 0.043256
vt 0.023054 0.042568
vt 0.022741 0.034773
vt 0.212061 0.023423
vt 0.212061 0.034823
vt 0.174061 0.034823
vt 0.174061 0.023423
vt 0.012218 0.035195
vt 0.012530 0.042990
vn 0.000000 0.000000 -1.000000
vn 1.000000 0.000000 0.000000
vn 0.000000 1.000000 0.000000
vn 0.000000 -1.000000 0.000000
vn -1.000000 0.000000 0.000000
vn -0.000000 0.000000 1.000000
usemtl TunnelMain
s off
f 8/1/1 13/2/1 6/3/1 18/4/1
f 19/5/1 7/6/1 13/7/1 8/8/1
f 15/9/1 10/10/1 27/11/1 29/12/1
f 15/13/1 29/14/1 28/15/1 9/16/1
f 25/17/1 24/18/1 21/19/1 22/20/1 20/21/1 26/22/1
f 35/23/2 34/24/2 28/25/2 29/26/2 27/27/2 33/28/2
f 21/29/3 24/29/3 1/29/3 5/29/3
f 4/29/4 23/29/4 26/29/4 20/29/4
f 28/29/3 34/29/3 32/29/3 7/29/3
f 31/30/1 32/31/1 34/32/1 35/33/1 33/34/1 30/35/1
f 1/36/5 24/37/5 25/38/5 26/39/5 23/40/5 2/41/5
f 7/42/5 32/43/5 31/44/5 30/45/5 6/46/5 13/47/5
f 6/29/4 30/29/4 33/29/4 27/29/4
f 5/48/6 1/49/6 2/50/6 23/51/6 4/52/6 3/53/6
f 40/54/6 48/55/6 41/56/6 42/34/6 46/33/6 43/32/6
f 37/29/4 39/29/4 42/29/4 41/29/4
f 38/29/3 36/29/3 40/29/3 43/29/3
f 37/57/5 41/58/5 48/59/5 40/60/5 36/61/5 47/62/5
f 38/63/2 43/64/2 46/65/2 42/66/2 39/67/2 45/68/2
f 44/69/6 45/70/6 39/71/6 11/72/6
f 19/5/5 8/8/5 22/73/5 21/74/5
f 8/1/5 18/4/5 20/75/5 22/76/5
f 14/77/5 17/78/5 5/79/5 3/80/5
f 3/81/5 4/82/5 16/83/5 14/84/5
f 5/79/4 17/78/4 87/85/4 65/86/4 53/87/4 69/88/4 67/89/4 86/90/4 19/5/4 21/74/4
f 56/83/1 66/4/1 54/3/1 61/91/1
f 67/89/1 56/92/1 61/93/1 55/94/1
f 63/95/1 77/96/1 75/12/1 58/97/1
f 63/98/1 57/99/1 76/100/1 77/101/1
f 73/102/1 74/103/1 68/66/1 70/104/1 69/64/1 72/105/1
f 83/106/5 81/107/5 75/108/5 77/109/5 76/110/5 82/111/5
f 69/29/3 53/29/3 49/29/3 72/29/3
f 52/29/4 68/29/4 74/29/4 71/29/4
f 76/29/3 55/29/3 80/29/3 82/29/3
f 79/112/1 78/113/1 81/56/1 83/55/1 82/54/1 80/114/1
f 49/115/2 50/116/2 71/117/2 74/118/2 73/119/2 72/120/2
f 55/18/2 61/121/2 54/122/2 78/123/2 79/124/2 80/125/2
f 54/29/4 75/29/4 81/29/4 78/29/4
f 53/126/6 51/127/6 52/128/6 71/129/6 50/130/6 49/25/6
f 92/131/6 95/36/6 98/41/6 94/40/6 93/132/6 100/133/6
f 89/29/4 93/29/4 94/29/4 91/29/4
f 90/29/3 95/29/3 92/29/3 88/29/3
f 89/134/2 99/135/2 88/136/2 92/137/2 100/138/2 93/52/2
f 90/139/5 97/140/5 91/141/5 94/142/5 98/143/5 95/144/5
f 45/145/6 44/146/6 12/147/6 38/148/6
f 96/83/6 59/91/6 91/149/6 97/150/6
f 67/89/2 69/88/2 70/151/2 56/92/2
f 56/83/2 70/152/2 68/75/2 66/4/2
f 62/153/2 51/154/2 53/87/2 65/86/2
f 51/155/2 62/156/2 64/157/2 52/158/2
f 16/159/3 4/160/3 20/161/3 18/162/3 84/163/3 66/164/3 68/165/3 52/166/3 64/167/3 85/168/3
f 27/169/3 10/170/3 11/171/3 39/172/3 37/173/3 89/174/3 91/175/3 59/176/3 58/177/3 75/178/3 54/179/3 66/164/3 84/163/3 18/162/3 6/180/3
f 97/181/6 90/182/6 60/183/6 96/184/6
f 7/6/4 19/5/4 86/90/4 67/89/4 55/94/4 76/100/4 57/99/4 60/183/4 90/182/4 88/185/4 36/186/4 38/148/4 12/147/4 9/16/4 28/15/4
f 37/187/6 47/188/6 99/189/6 89/190/6
f 47/191/6 36/186/6 88/185/6 99/192/6
