# Blender v2.76 (sub 0) OBJ File: 'tunnel1.blend'
# www.blender.org
mtllib tunnel1.mtl
o Tunnel1
v 1.000000 2.000000 3.000000
v 1.000000 0.000000 3.000000
v -1.000000 2.000000 3.000000
v -1.000000 0.000000 3.000000
v -1.000000 2.000000 -3.000000
v -1.000000 0.000000 -3.000000
v 1.000000 2.000000 -3.000000
v 1.000000 0.000000 -3.000000
vt 0.000099 0.975145
vt 0.999901 0.975145
vt 0.999901 0.000099
vt 0.000099 0.000099
vn 0.000000 -1.000000 0.000000
vn 0.000000 1.000000 0.000000
vn -1.000000 0.000000 0.000000
vn 1.000000 0.000000 0.000000
usemtl Tunnel1
s off
f 3/1/1 5/2/1 7/3/1 1/4/1
f 4/4/2 2/1/2 8/2/2 6/3/2
f 8/2/3 2/1/3 1/4/3 7/3/3
f 6/2/4 5/3/4 3/4/4 4/1/4
