# Blender v2.76 (sub 0) OBJ File: 'Tunneb2.blend'
# www.blender.org
mtllib Tunneb2.mtl
g Tunnela1
v -0.800000 0.000000 2.000000
v -0.800000 2.200000 2.000000
v -0.800000 0.000000 3.000000
v -0.800000 2.200000 3.000000
v -0.800000 2.200000 2.200000
v -0.800000 0.000000 2.200000
v -0.800000 0.000000 0.100000
v -0.800000 2.200000 0.100000
v -0.800000 0.400000 2.200000
v -0.800000 0.400000 3.000000
v -0.800000 0.400000 2.000000
v -0.800000 0.400000 0.100000
v -0.800000 0.000000 -2.000000
v -0.800000 2.200000 -2.000000
v -0.800000 0.000000 -3.000000
v -0.800000 2.200000 -3.000000
v -0.800000 2.200000 -2.200000
v -0.800000 0.000000 -2.200000
v -0.800000 0.000000 -0.100000
v -0.800000 2.200000 -0.100000
v -0.800000 0.400000 -2.200000
v -0.800000 0.400000 -3.000000
v -0.800000 0.400000 -2.000000
v -0.800000 0.400000 -0.100000
v -0.760000 1.000000 0.100000
v -0.760000 2.200000 0.100000
v -0.760000 0.000000 0.100000
v -0.760000 1.000000 -0.100000
v -0.760000 2.200000 -0.100000
v -0.760000 0.000000 -0.100000
v 0.800000 0.000000 2.000000
v 0.800000 2.200000 2.000000
v 0.800000 0.000000 3.000000
v 0.800000 2.200000 3.000000
v 0.800000 2.200000 2.200000
v 0.800000 0.000000 2.200000
v 0.800000 0.000000 0.100000
v 0.800000 2.200000 0.100000
v 0.800000 0.400000 2.200000
v 0.800000 0.400000 3.000000
v 0.800000 0.400000 2.000000
v 0.800000 0.400000 0.100000
v 0.800000 0.000000 -2.000000
v 0.800000 2.200000 -2.000000
v 0.800000 0.000000 -3.000000
v 0.800000 2.200000 -3.000000
v 0.800000 2.200000 -2.200000
v 0.800000 0.000000 -2.200000
v 0.800000 0.000000 -0.100000
v 0.800000 2.200000 -0.100000
v 0.800000 0.400000 -2.200000
v 0.800000 0.400000 -3.000000
v 0.800000 0.400000 -2.000000
v 0.800000 0.400000 -0.100000
v 0.760000 1.000000 0.100000
v 0.760000 2.200000 0.100000
v 0.760000 0.000000 0.100000
v 0.760000 1.000000 -0.100000
v 0.760000 2.200000 -0.100000
v 0.760000 0.000000 -0.100000
v -0.800000 2.200000 3.476128
v 0.800000 2.200000 3.476128
v -0.800000 2.200000 3.000000
v 0.800000 2.200000 3.000000
v -0.800000 2.200000 3.476128
v 0.800000 2.200000 3.476128
vt 0.427270 0.035670
vt 0.442416 0.035670
vt 0.442416 0.045237
vt 0.427270 0.045237
vt 0.425675 0.045237
vt 0.419298 0.045237
vt 0.419298 0.035670
vt 0.425675 0.035670
vt 0.814512 -0.954522
vt 0.817659 -0.954522
vt 0.818445 -0.954522
vt 0.825918 -0.954522
vt 0.825918 -0.935644
vt 0.818445 -0.935644
vt 0.817659 -0.935644
vt 0.814512 -0.935644
vt 0.442416 0.054815
vt 0.427270 0.054815
vt 0.425675 0.054815
vt 0.419298 0.054815
vt 0.423544 0.040522
vt 0.423534 0.061080
vt 0.423320 0.060870
vt 0.423352 0.049108
vt 0.423320 0.035685
vt 0.423493 0.035421
vt 0.409794 0.022704
vt 0.433891 0.021737
vt 0.430541 0.026873
vt 0.412912 0.026326
vt 0.422203 0.061128
vt 0.422195 0.040366
vt 0.422254 0.035470
vt 0.422414 0.035657
vt 0.422387 0.049099
vt 0.422430 0.060842
vt 0.437444 0.027713
vt 0.411566 0.028639
vt 0.415988 0.023080
vt 0.433295 0.023628
vt 0.411568 0.041388
vt 0.411510 0.070925
vt 0.409518 0.070863
vt 0.409448 0.041369
vt 0.409518 0.015524
vt 0.411473 0.015586
vt 0.811354 -0.935644
vt 0.810568 -0.935644
vt 0.803095 -0.935644
vt 0.803095 -0.954522
vt 0.810568 -0.954522
vt 0.811354 -0.954522
vt 0.434444 0.035659
vt 0.419298 0.026092
vt 0.434444 0.026092
vt 0.436039 0.026092
vt 0.442416 0.026092
vt 0.436039 0.035659
vt 0.837335 -0.954522
vt 0.837335 -0.935644
vt 0.834189 -0.935644
vt 0.833402 -0.935644
vt 0.833402 -0.954522
vt 0.834189 -0.954522
vt 0.806242 -0.935633
vt 0.807028 -0.935633
vt 0.814501 -0.916755
vt 0.807028 -0.916755
vt 0.806242 -0.916755
vt 0.803095 -0.916755
vt 0.422195 0.040515
vt 0.422246 0.035421
vt 0.422418 0.060853
vt 0.433751 0.023202
vt 0.430624 0.026769
vt 0.412986 0.026957
vt 0.409654 0.021737
vt 0.423308 0.060838
vt 0.423485 0.035496
vt 0.423543 0.040390
vt 0.411593 0.027313
vt 0.415740 0.023280
vt 0.433053 0.023000
vt 0.437467 0.028639
vt 0.409451 0.041370
vt 0.409546 0.015596
vt 0.820969 -0.928811
vt 0.823316 -0.928811
vt 0.845618 -0.928811
vt 0.847965 -0.928811
vt 0.857355 -0.928811
vt 0.857355 -0.910031
vt 0.847965 -0.910031
vt 0.845618 -0.910031
vt 0.823316 -0.910031
vt 0.820969 -0.910031
vt 0.798667 -0.910031
vt 0.796319 -0.910031
vt 0.786929 -0.910031
vt 0.786929 -0.928811
vt 0.796319 -0.928811
vt 0.798667 -0.928811
vt 0.422213 0.069506
vt 0.403469 0.069506
vt 0.401496 0.069506
vt 0.393603 0.069506
vt 0.393603 0.053721
vt 0.401496 0.053721
vt 0.403469 0.053721
vt 0.422213 0.053721
vt 0.424186 0.053721
vt 0.442931 0.053721
vt 0.444904 0.053721
vt 0.452796 0.053721
vt 0.452796 0.069506
vt 0.444904 0.069506
vt 0.442931 0.069506
vt 0.424186 0.069506
vt 0.434444 0.064393
vt 0.419298 0.064393
vt 0.434444 0.054826
vt 0.436039 0.054826
vt 0.442416 0.064393
vt 0.436039 0.064393
vn -1.000000 -0.000000 0.000000
vn 1.000000 0.000000 0.000000
vn -0.000000 0.000000 -1.000000
vn 0.000000 -1.000000 0.000000
vn -0.000000 0.000000 1.000000
vn 0.000000 1.000000 0.000000
usemtl TunnelMain
s off
f 41/1/1 42/2/1 37/3/1 31/4/1 36/5/1 33/6/1 40/7/1 39/8/1
f 10/9/2 9/10/2 11/11/2 12/12/2 8/13/2 2/14/2 5/15/2 4/16/2
f 1/4/2 7/3/2 12/17/2 11/18/2 9/19/2 10/20/2 3/6/2 6/5/2
f 24/21/3 20/22/3 29/23/3 28/24/3 30/25/3 19/26/3
f 7/27/4 19/28/4 30/29/4 27/30/4
f 8/31/5 12/32/5 7/33/5 27/34/5 25/35/5 26/36/5
f 20/37/6 8/38/6 26/39/6 29/40/6
f 25/41/2 27/42/2 30/43/2 28/44/2 29/45/2 26/46/2
f 22/9/2 16/16/2 17/47/2 14/48/2 20/49/2 24/50/2 23/51/2 21/52/2
f 43/53/1 49/7/1 54/54/1 53/55/1 51/56/1 52/57/1 45/2/1 48/58/1
f 40/59/1 34/60/1 35/61/1 32/62/1 38/13/1 42/12/1 41/63/1 39/64/1
f 52/49/1 51/65/1 53/66/1 54/16/1 50/67/1 44/68/1 47/69/1 46/70/1
f 54/71/3 49/72/3 60/34/3 58/35/3 59/73/3 50/31/3
f 37/74/4 57/75/4 60/76/4 49/77/4
f 38/22/5 56/78/5 55/24/5 57/25/5 37/79/5 42/80/5
f 50/81/6 59/82/6 56/83/6 38/84/6
f 55/85/1 56/86/1 59/46/1 58/41/1 60/42/1 57/43/1
f 8/87/4 20/88/4 14/89/4 17/90/4 16/91/4 46/92/4 47/93/4 44/94/4 50/95/4 38/96/4 32/97/4 35/98/4 34/99/4 4/100/4 5/101/4 2/102/4
f 7/103/6 1/104/6 6/105/6 3/106/6 33/107/6 36/108/6 31/109/6 37/110/6 49/111/6 43/112/6 48/113/6 45/114/6 15/115/6 18/116/6 13/117/6 19/118/6
f 23/119/2 24/120/2 19/20/2 13/121/2 18/122/2 15/17/2 22/123/2 21/124/2
f 4/100/5 34/99/5 64/99/5 63/100/5
l 65 61
l 62 66
