# Blender v2.76 (sub 0) OBJ File: 'Tunnela3.blend'
# www.blender.org
mtllib Tunnela3.mtl
g Tunnela1
v 0.760000 2.000000 2.200000
v 0.760000 1.000000 2.200000
v 0.800000 0.400000 2.200000
v 0.800000 0.000000 2.200000
v 0.800000 2.000000 2.200000
v 2.000000 0.000000 0.800000
v 2.000000 2.000000 0.800000
v 0.800000 0.400000 0.800000
v 3.000000 2.000000 0.800000
v 3.000000 0.000000 0.800000
v 3.000000 0.000000 -0.800000
v 3.000000 2.000000 -0.800000
v 2.000000 0.400000 0.800000
v 0.800000 0.400000 3.000000
v 3.000000 0.400000 0.800000
v 0.800000 0.000000 3.000000
v 0.800000 2.000000 3.000000
v 0.800000 0.000000 0.800000
v 0.800000 2.000000 0.800000
v 0.800000 0.000000 2.000000
v 0.800000 2.000000 2.000000
v 0.800000 0.400000 2.000000
v 0.100000 0.000000 -0.760000
v 0.100000 2.000000 -0.800000
v 0.100000 0.000000 -0.800000
v 0.760000 0.000000 2.200000
v 0.760000 2.000000 2.000000
v 0.760000 1.000000 2.000000
v 0.760000 0.000000 2.000000
v 2.200000 0.000000 0.800000
v 2.200000 2.000000 0.800000
v 2.200000 0.400000 0.800000
v 2.000000 0.000000 0.760000
v 2.000000 1.000000 0.760000
v 2.000000 2.000000 0.760000
v 2.200000 0.000000 0.760000
v 2.200000 2.000000 0.760000
v 2.200000 1.000000 0.760000
v 2.000000 2.000000 -0.800000
v 2.000000 0.000000 -0.800000
v 2.200000 2.000000 -0.800000
v 2.200000 0.000000 -0.800000
v 2.000000 2.000000 -0.760000
v 2.000000 0.000000 -0.760000
v 2.200000 0.000000 -0.760000
v 2.200000 2.000000 -0.760000
v 3.000000 0.400000 -0.800000
v 2.200000 0.400000 -0.800000
v 2.200000 1.000000 -0.760000
v 2.000000 0.400000 -0.800000
v 2.000000 1.000000 -0.760000
v 0.100000 0.400000 -0.800000
v -0.760000 2.000000 2.200000
v -0.760000 1.000000 2.200000
v -0.800000 0.400000 2.200000
v -0.800000 0.000000 2.200000
v -0.800000 2.000000 2.200000
v -2.000000 0.000000 0.800000
v -2.000000 2.000000 0.800000
v -0.800000 0.400000 0.800000
v -3.000000 2.000000 0.800000
v -3.000000 0.000000 0.800000
v -3.000000 0.000000 -0.800000
v -3.000000 2.000000 -0.800000
v -2.000000 0.400000 0.800000
v -0.800000 0.400000 3.000000
v -3.000000 0.400000 0.800000
v -0.800000 0.000000 3.000000
v -0.800000 2.000000 3.000000
v -0.800000 0.000000 0.800000
v -0.800000 2.000000 0.800000
v -0.800000 0.000000 2.000000
v -0.800000 2.000000 2.000000
v -0.800000 0.400000 2.000000
v -0.100000 0.000000 -0.760000
v -0.100000 2.000000 -0.800000
v -0.100000 0.000000 -0.800000
v -0.760000 0.000000 2.200000
v -0.760000 2.000000 2.000000
v -0.760000 1.000000 2.000000
v -0.760000 0.000000 2.000000
v -2.200000 0.000000 0.800000
v -2.200000 2.000000 0.800000
v -2.200000 0.400000 0.800000
v -2.000000 0.000000 0.760000
v -2.000000 1.000000 0.760000
v -2.000000 2.000000 0.760000
v -2.200000 0.000000 0.760000
v -2.200000 2.000000 0.760000
v -2.200000 1.000000 0.760000
v 0.000000 0.000000 -0.760000
v 0.000000 0.000000 0.800000
v 0.000000 0.000000 3.000000
v 0.000000 2.000000 0.800000
v 0.000000 2.000000 3.000000
v -2.000000 2.000000 -0.800000
v -2.000000 0.000000 -0.800000
v -2.200000 2.000000 -0.800000
v -2.200000 0.000000 -0.800000
v -2.000000 2.000000 -0.760000
v -2.000000 0.000000 -0.760000
v -2.200000 0.000000 -0.760000
v -2.200000 2.000000 -0.760000
v -3.000000 0.400000 -0.800000
v -2.200000 0.400000 -0.800000
v -2.200000 1.000000 -0.760000
v -2.000000 0.400000 -0.800000
v -2.000000 1.000000 -0.760000
v -0.100000 0.400000 -0.800000
v 0.000000 2.000000 -0.800000
v 0.000000 0.000000 -0.800000
v 0.000000 0.000000 -0.760000
vt 0.167383 0.035219
vt 0.167383 0.026214
vt 0.176388 0.026214
vt 0.176388 0.035219
vt 0.036938 0.034933
vt 0.032738 0.034933
vt 0.032738 0.018134
vt 0.036938 0.018134
vt 0.176388 0.059269
vt 0.167383 0.059269
vt 0.167383 0.053266
vt 0.176388 0.053266
vt 0.029956 0.034950
vt 0.032755 0.034950
vt 0.032755 0.051748
vt 0.029956 0.051748
vt 0.344404 0.034828
vt 0.344373 0.057221
vt 0.343982 0.057219
vt 0.344031 0.021396
vt 0.343982 0.012439
vt 0.344280 0.012438
vt 0.346140 0.034828
vt 0.346110 0.057221
vt 0.345719 0.057219
vt 0.345768 0.021396
vt 0.345718 0.012439
vt 0.346017 0.012438
vt 0.116059 0.037273
vt 0.257806 0.028740
vt 0.257806 0.051400
vt 0.256295 0.051400
vt 0.256295 0.028740
vt 0.256295 0.006081
vt 0.257806 0.006081
vt 0.260850 0.051400
vt 0.259340 0.051400
vt 0.259340 0.028740
vt 0.259340 0.006081
vt 0.260850 0.006081
vt 0.260850 0.028740
vt 0.343187 0.057443
vt 0.342885 0.057445
vt 0.342886 0.040180
vt 0.342997 0.012438
vt 0.343367 0.012439
vt 0.343322 0.023536
vt 0.346942 0.057443
vt 0.346641 0.057445
vt 0.346586 0.040181
vt 0.346608 0.012438
vt 0.346978 0.012438
vt 0.346969 0.023535
vt 0.254773 0.051400
vt 0.254773 0.028740
vt 0.254773 0.006081
vt 0.344850 0.012439
vt 0.345148 0.012438
vt 0.345272 0.034828
vt 0.345242 0.057221
vt 0.344851 0.057219
vt 0.344899 0.021396
vt 0.348645 0.057442
vt 0.348344 0.057445
vt 0.348275 0.040181
vt 0.348275 0.012438
vt 0.348645 0.012438
vt 0.348645 0.023535
vt 0.035572 0.034950
vt 0.035572 0.051748
vt 0.197455 0.035219
vt 0.191452 0.035219
vt 0.191452 0.026214
vt 0.197455 0.026214
vt 0.041137 0.018134
vt 0.041137 0.034933
vt 0.176388 0.044224
vt 0.167383 0.044224
vt 0.027121 0.034950
vt 0.027121 0.051748
vt 0.024322 0.051748
vt 0.024322 0.034950
vt 0.194435 0.041241
vt 0.185430 0.041241
vt 0.185430 0.035237
vt 0.194435 0.035237
vt 0.039253 0.036868
vt 0.028095 0.036868
vt 0.028095 0.025710
vt 0.028095 0.014552
vt 0.039253 0.014552
vt 0.042043 0.014552
vt 0.058780 0.014552
vt 0.058780 0.025710
vt 0.058780 0.036868
vt 0.042043 0.036868
vt 0.139084 0.037816
vt 0.145645 0.037816
vt 0.145645 0.050939
vt 0.139084 0.050939
vt 0.137443 0.050939
vt 0.121860 0.050939
vt 0.121039 0.050939
vt 0.120219 0.050939
vt 0.104636 0.050939
vt 0.102995 0.050939
vt 0.096434 0.050939
vt 0.096434 0.037816
vt 0.102995 0.037816
vt 0.104636 0.037816
vt 0.114478 0.037816
vt 0.121039 0.037816
vt 0.127601 0.037816
vt 0.137443 0.037816
vt 0.185412 0.026214
vt 0.028521 0.034933
vt 0.028521 0.018134
vt 0.182410 0.062271
vt 0.176407 0.062271
vt 0.182410 0.053266
vt 0.038389 0.034950
vt 0.038389 0.051748
vt 0.347893 0.040181
vt 0.347893 0.012438
vt 0.348263 0.023535
vt 0.347962 0.057445
vt 0.342393 0.040180
vt 0.342503 0.012438
vt 0.342873 0.012439
vt 0.342829 0.023536
vt 0.342693 0.057443
vt 0.342392 0.057445
vt 0.253251 0.028740
vt 0.253251 0.006081
vt 0.253251 0.051400
vt 0.251729 0.051400
vt 0.251729 0.028740
vt 0.251729 0.006081
vt 0.253239 0.006081
vt 0.253239 0.028740
vt 0.253239 0.051400
vt 0.344465 0.021396
vt 0.344416 0.012439
vt 0.344714 0.012438
vt 0.344838 0.034828
vt 0.344807 0.057221
vt 0.345285 0.057219
vt 0.345334 0.021396
vt 0.345284 0.012439
vt 0.345583 0.012438
vt 0.345706 0.034828
vt 0.042184 0.016265
vt 0.054514 0.016265
vt 0.054514 0.047416
vt 0.042184 0.047416
vt 0.040886 0.047416
vt 0.028555 0.047416
vt 0.028555 0.016265
vt 0.040886 0.016265
vt 0.262373 0.051400
vt 0.262373 0.006081
vt 0.262373 0.028740
vt 0.347383 0.012438
vt 0.347374 0.023535
vt 0.347346 0.057443
vt 0.347045 0.057445
vt 0.346990 0.040181
vt 0.346152 0.057219
vt 0.346202 0.021396
vt 0.346152 0.012439
vt 0.346451 0.012438
vt 0.346574 0.034828
vt 0.346543 0.057221
vt 0.054488 0.018134
vt 0.057288 0.018134
vt 0.057288 0.034933
vt 0.054488 0.034933
vt 0.191434 0.026214
vt 0.191434 0.035219
vt 0.024322 0.018134
vt 0.185412 0.044224
vt 0.029938 0.034950
vt 0.029938 0.051748
vt 0.201939 0.053247
vt 0.195936 0.053247
vt 0.195936 0.044242
vt 0.201939 0.044242
vt 0.133802 0.030300
vt 0.133802 0.037674
vt 0.133802 0.039518
vt 0.133802 0.050580
vt 0.126427 0.050580
vt 0.119053 0.050580
vt 0.119053 0.039518
vt 0.119053 0.037674
vt 0.119053 0.030300
vt 0.126427 0.030300
vt 0.067176 0.059297
vt 0.066056 0.059297
vt 0.059334 0.059297
vt 0.054853 0.059297
vt 0.050372 0.059297
vt 0.043650 0.059297
vt 0.042530 0.059297
vt 0.038048 0.059297
vt 0.038048 0.050334
vt 0.042530 0.050334
vt 0.043650 0.050334
vt 0.054293 0.050334
vt 0.054853 0.050334
vt 0.055413 0.050334
vt 0.066056 0.050334
vt 0.067176 0.050334
vt 0.071657 0.050334
vt 0.071657 0.059297
vt 0.194271 0.009465
vt 0.217250 0.009465
vt 0.217250 0.023978
vt 0.194271 0.023978
vt 0.191852 0.023978
vt 0.168872 0.023978
vt 0.168872 0.009465
vt 0.191852 0.009465
vn 0.000000 0.000000 -1.000000
vn 1.000000 0.000000 0.000000
vn 0.000000 1.000000 0.000000
vn 0.000000 -1.000000 0.000000
vn -1.000000 0.000000 0.000000
vn -0.000000 0.000000 1.000000
usemtl TunnelMain
s off
f 8/1/1 13/2/1 6/3/1 18/4/1
f 19/5/1 7/6/1 13/7/1 8/8/1
f 15/9/1 10/10/1 30/11/1 32/12/1
f 15/13/1 32/14/1 31/15/1 9/16/1
f 28/17/1 27/18/1 21/19/1 22/20/1 20/21/1 29/22/1
f 38/23/2 37/24/2 31/25/2 32/26/2 30/27/2 36/28/2
f 21/29/3 27/29/3 1/29/3 5/29/3
f 4/29/4 26/29/4 29/29/4 20/29/4
f 31/29/3 37/29/3 35/29/3 7/29/3
f 34/30/1 35/31/1 37/32/1 38/33/1 36/34/1 33/35/1
f 1/36/5 27/37/5 28/38/5 29/39/5 26/40/5 2/41/5
f 7/42/5 35/43/5 34/44/5 33/45/5 6/46/5 13/47/5
f 6/29/4 33/29/4 36/29/4 30/29/4
f 5/48/6 1/49/6 2/50/6 26/51/6 4/52/6 3/53/6
f 43/54/6 51/55/6 44/56/6 45/34/6 49/33/6 46/32/6
f 40/29/4 42/29/4 45/29/4 44/29/4
f 41/29/3 39/29/3 43/29/3 46/29/3
f 40/57/5 44/58/5 51/59/5 43/60/5 39/61/5 50/62/5
f 41/63/2 46/64/2 49/65/2 45/66/2 42/67/2 48/68/2
f 47/69/6 12/70/6 41/15/6 48/14/6
f 47/71/6 48/72/6 42/73/6 11/74/6
f 19/5/5 8/8/5 22/75/5 21/76/5
f 8/1/5 18/4/5 20/77/5 22/78/5
f 14/79/5 17/80/5 5/81/5 3/82/5
f 3/83/5 4/84/5 16/85/5 14/86/5
f 5/87/4 17/88/4 95/89/4 69/90/4 57/91/4 73/92/4 71/93/4 94/94/4 19/95/4 21/96/4
f 30/97/3 10/98/3 11/99/3 42/100/3 40/101/3 25/102/3 111/103/3 77/104/3 97/105/3 99/106/3 63/107/3 62/108/3 82/109/3 58/110/3 70/111/3 92/112/3 18/113/3 6/114/3
f 60/85/1 70/4/1 58/3/1 65/115/1
f 71/116/1 60/117/1 65/7/1 59/6/1
f 67/118/1 84/119/1 82/12/1 62/120/1
f 67/121/1 61/122/1 83/70/1 84/69/1
f 80/123/1 81/124/1 72/66/1 74/125/1 73/64/1 79/126/1
f 90/127/5 88/128/5 82/129/5 84/130/5 83/131/5 89/132/5
f 73/29/3 57/29/3 53/29/3 79/29/3
f 56/29/4 72/29/4 81/29/4 78/29/4
f 83/29/3 59/29/3 87/29/3 89/29/3
f 86/133/1 85/134/1 88/56/1 90/55/1 89/54/1 87/135/1
f 53/136/2 54/137/2 78/138/2 81/139/2 80/140/2 79/141/2
f 59/18/2 65/142/2 58/143/2 85/144/2 86/145/2 87/146/2
f 58/29/4 82/29/4 88/29/4 85/29/4
f 57/147/6 55/148/6 56/149/6 78/150/6 54/151/6 53/25/6
f 52/152/6 50/153/6 39/154/6 24/155/6 76/156/6 96/157/6 107/158/6 109/159/6
f 100/160/6 103/36/6 106/41/6 102/40/6 101/161/6 108/162/6
f 97/29/4 101/29/4 102/29/4 99/29/4
f 98/29/3 103/29/3 100/29/3 96/29/3
f 97/163/2 107/164/2 96/165/2 100/166/2 108/167/2 101/52/2
f 98/168/5 105/169/5 99/170/5 102/171/5 106/172/5 103/173/5
f 104/174/6 105/175/6 98/176/6 64/177/6
f 104/85/6 63/115/6 99/178/6 105/179/6
f 71/116/2 73/82/2 74/180/2 60/117/2
f 60/85/2 74/181/2 72/77/2 70/4/2
f 66/79/2 55/182/2 57/183/2 69/80/2
f 55/184/2 66/185/2 68/186/2 56/187/2
f 16/188/3 4/189/3 20/190/3 18/191/3 92/192/3 70/193/3 72/194/3 56/195/3 68/196/3 93/197/3
f 31/198/4 7/199/4 19/200/4 94/201/4 71/202/4 59/203/4 83/204/4 61/205/4 64/206/4 98/207/4 96/208/4 76/209/4 110/210/4 24/211/4 39/212/4 41/213/4 12/214/4 9/215/4
f 25/216/6 40/217/6 50/218/6 52/219/6 109/220/6 107/221/6 97/222/6 77/223/6
l 23 91
l 23 112
l 75 91
l 75 112
