# Blender v2.76 (sub 0) OBJ File: 'Tunnele5.blend'
# www.blender.org
mtllib Tunnele5.mtl
g Tunnela1
v 0.760000 2.200000 -2.200000
v 0.760000 1.000000 -2.200000
v 0.800000 0.400000 -2.200000
v 0.800000 0.000000 -2.200000
v 0.800000 2.200000 -2.200000
v 2.000000 0.000000 -0.800000
v 2.000000 2.200000 -0.800000
v 0.800000 0.400000 -0.800000
v 3.000000 2.200000 -0.800000
v 3.000000 0.000000 -0.800000
v 2.000000 0.400000 -0.800000
v 0.800000 0.400000 -3.000000
v 3.000000 0.400000 -0.800000
v 0.800000 0.000000 -3.000000
v 0.800000 2.200000 -3.000000
v 0.800000 0.000000 -0.800000
v 0.800000 2.200000 -0.800000
v 0.800000 0.000000 -2.000000
v 0.800000 2.200000 -2.000000
v 0.800000 0.400000 -2.000000
v 0.760000 0.000000 -2.200000
v 0.760000 2.200000 -2.000000
v 0.760000 1.000000 -2.000000
v 0.760000 0.000000 -2.000000
v 2.200000 0.000000 -0.800000
v 2.200000 2.200000 -0.800000
v 2.200000 0.400000 -0.800000
v 2.000000 0.000000 -0.760000
v 2.000000 1.000000 -0.760000
v 2.000000 2.200000 -0.760000
v 2.200000 0.000000 -0.760000
v 2.200000 2.200000 -0.760000
v 2.200000 1.000000 -0.760000
v -0.760000 2.200000 -2.200000
v -0.760000 1.000000 -2.200000
v -0.800000 0.400000 -2.200000
v -0.800000 0.000000 -2.200000
v -0.800000 2.200000 -2.200000
v -2.000000 0.000000 -0.800000
v -2.000000 2.200000 -0.800000
v -0.800000 0.400000 -0.800000
v -3.000000 2.200000 -0.800000
v -3.000000 0.000000 -0.800000
v -2.000000 0.400000 -0.800000
v -0.800000 0.400000 -3.000000
v -3.000000 0.400000 -0.800000
v -0.800000 0.000000 -3.000000
v -0.800000 2.200000 -3.000000
v -0.800000 0.000000 -0.800000
v -0.800000 2.200000 -0.800000
v -0.800000 0.000000 -2.000000
v -0.800000 2.200000 -2.000000
v -0.800000 0.400000 -2.000000
v -0.760000 0.000000 -2.200000
v -0.760000 2.200000 -2.000000
v -0.760000 1.000000 -2.000000
v -0.760000 0.000000 -2.000000
v -2.200000 0.000000 -0.800000
v -2.200000 2.200000 -0.800000
v -2.200000 0.400000 -0.800000
v -2.000000 0.000000 -0.760000
v -2.000000 1.000000 -0.760000
v -2.000000 2.200000 -0.760000
v -2.200000 0.000000 -0.760000
v -2.200000 2.200000 -0.760000
v -2.200000 1.000000 -0.760000
v -0.000000 0.000000 0.760000
v 0.760000 2.200000 2.200000
v 0.760000 1.000000 2.200000
v 0.800000 0.400000 2.200000
v 0.800000 0.000000 2.200000
v 0.800000 2.200000 2.200000
v 2.000000 0.000000 0.800000
v 2.000000 2.200000 0.800000
v 0.800000 0.400000 0.800000
v 3.000000 2.200000 0.800000
v 3.000000 0.000000 0.800000
v 2.000000 0.400000 0.800000
v 0.800000 0.400000 3.000000
v 3.000000 0.400000 0.800000
v 0.800000 0.000000 3.000000
v 0.800000 2.200000 3.000000
v 0.800000 0.000000 0.800000
v 0.800000 2.200000 0.800000
v 0.800000 0.000000 2.000000
v 0.800000 2.200000 2.000000
v 0.800000 0.400000 2.000000
v 0.760000 0.000000 2.200000
v 0.760000 2.200000 2.000000
v 0.760000 1.000000 2.000000
v 0.760000 0.000000 2.000000
v 2.200000 0.000000 0.800000
v 2.200000 2.200000 0.800000
v 2.200000 0.400000 0.800000
v 2.000000 0.000000 0.760000
v 2.000000 1.000000 0.760000
v 2.000000 2.200000 0.760000
v 2.200000 0.000000 0.760000
v 2.200000 2.200000 0.760000
v 2.200000 1.000000 0.760000
v -0.760000 2.200000 2.200000
v -0.760000 1.000000 2.200000
v -0.800000 0.400000 2.200000
v -0.800000 0.000000 2.200000
v -0.800000 2.200000 2.200000
v -2.000000 0.000000 0.800000
v -2.000000 2.200000 0.800000
v -0.800000 0.400000 0.800000
v -3.000000 2.200000 0.800000
v -3.000000 0.000000 0.800000
v -2.000000 0.400000 0.800000
v -0.800000 0.400000 3.000000
v -3.000000 0.400000 0.800000
v -0.800000 0.000000 3.000000
v -0.800000 2.200000 3.000000
v -0.800000 0.000000 0.800000
v -0.800000 2.200000 0.800000
v -0.800000 0.000000 2.000000
v -0.800000 2.200000 2.000000
v -0.800000 0.400000 2.000000
v -0.760000 0.000000 2.200000
v -0.760000 2.200000 2.000000
v -0.760000 1.000000 2.000000
v -0.760000 0.000000 2.000000
v -2.200000 0.000000 0.800000
v -2.200000 2.200000 0.800000
v -2.200000 0.400000 0.800000
v -2.000000 0.000000 0.760000
v -2.000000 1.000000 0.760000
v -2.000000 2.200000 0.760000
v -2.200000 0.000000 0.760000
v -2.200000 2.200000 0.760000
v -2.200000 1.000000 0.760000
v 0.000000 0.000000 -0.760000
vt 0.566060 0.117189
vt 0.561695 0.117189
vt 0.561695 0.112825
vt 0.566060 0.112825
vt 0.643994 0.113677
vt 0.643994 0.095464
vt 0.648547 0.095464
vt 0.648547 0.113677
vt 0.564605 0.130301
vt 0.561695 0.130301
vt 0.561695 0.125936
vt 0.564605 0.125936
vt 0.659191 0.095464
vt 0.659191 0.113677
vt 0.656156 0.113677
vt 0.656156 0.095464
vt 0.703981 0.111334
vt 0.703981 0.097887
vt 0.704160 0.097887
vt 0.704160 0.103266
vt 0.704160 0.119700
vt 0.704014 0.119701
vt 0.701315 0.111334
vt 0.701369 0.097887
vt 0.701548 0.097888
vt 0.701527 0.103267
vt 0.701461 0.119701
vt 0.701315 0.119701
vt 0.018402 0.959147
vt 0.054032 0.036553
vt 0.054032 0.013893
vt 0.055543 0.013893
vt 0.055543 0.036553
vt 0.055543 0.059212
vt 0.054032 0.059212
vt 0.052510 0.059212
vt 0.052510 0.036553
vt 0.052510 0.013893
vt 0.702296 0.119592
vt 0.702320 0.102229
vt 0.702296 0.097888
vt 0.702440 0.097887
vt 0.702500 0.108740
vt 0.702486 0.119593
vt 0.702717 0.119592
vt 0.702741 0.102229
vt 0.702717 0.097888
vt 0.702861 0.097887
vt 0.702921 0.108740
vt 0.702906 0.119593
vt 0.653521 0.116964
vt 0.649322 0.116964
vt 0.649322 0.100165
vt 0.653521 0.100165
vt 0.566060 0.121554
vt 0.561695 0.121554
vt 0.652139 0.116981
vt 0.654938 0.116981
vt 0.654938 0.133780
vt 0.652139 0.133780
vt 0.574070 0.125927
vt 0.571161 0.125927
vt 0.571161 0.121563
vt 0.574070 0.121563
vt 0.653107 0.113677
vt 0.648554 0.113677
vt 0.648554 0.095464
vt 0.653107 0.095464
vt 0.656149 0.095464
vt 0.656149 0.113677
vt 0.577779 0.117189
vt 0.577779 0.121554
vt 0.573414 0.121554
vt 0.573414 0.117189
vt 0.645516 0.131328
vt 0.644548 0.132296
vt 0.640677 0.136167
vt 0.632934 0.128424
vt 0.636805 0.124553
vt 0.637773 0.123585
vt 0.643580 0.117778
vt 0.651323 0.125521
vt 0.636805 0.111003
vt 0.632934 0.107132
vt 0.640677 0.099389
vt 0.644548 0.103261
vt 0.645516 0.104229
vt 0.651323 0.110036
vt 0.637773 0.111971
vt 0.658098 0.132296
vt 0.657130 0.131328
vt 0.659065 0.117778
vt 0.664872 0.123585
vt 0.665840 0.124553
vt 0.669712 0.128424
vt 0.661969 0.136167
vt 0.664872 0.111971
vt 0.657130 0.104229
vt 0.658098 0.103261
vt 0.661969 0.099389
vt 0.669712 0.107132
vt 0.665840 0.111003
vt 0.483794 0.115248
vt 0.480577 0.112031
vt 0.487012 0.105596
vt 0.490229 0.108813
vt 0.491034 0.109617
vt 0.495860 0.114444
vt 0.489425 0.120879
vt 0.484599 0.116052
vt 0.500686 0.109617
vt 0.501490 0.108813
vt 0.504708 0.105596
vt 0.511143 0.112031
vt 0.507925 0.115248
vt 0.507121 0.116052
vt 0.502295 0.120879
vt 0.501490 0.132944
vt 0.500686 0.132140
vt 0.495860 0.127314
vt 0.507121 0.125705
vt 0.507925 0.126509
vt 0.511143 0.129727
vt 0.504708 0.136162
vt 0.484599 0.125705
vt 0.491034 0.132140
vt 0.490229 0.132944
vt 0.487012 0.136162
vt 0.480577 0.129727
vt 0.483794 0.126509
vn -0.000000 0.000000 1.000000
vn 1.000000 0.000000 0.000000
vn 0.000000 1.000000 0.000000
vn 0.000000 -1.000000 0.000000
vn -1.000000 0.000000 0.000000
vn 0.000000 0.000000 -1.000000
usemtl TunnelMain
s off
f 8/1/1 16/2/1 6/3/1 11/4/1
f 17/5/1 8/6/1 11/7/1 7/8/1
f 13/9/1 27/10/1 25/11/1 10/12/1
f 13/13/1 9/14/1 26/15/1 27/16/1
f 23/17/1 24/18/1 18/19/1 20/20/1 19/21/1 22/22/1
f 33/23/2 31/24/2 25/25/2 27/26/2 26/27/2 32/28/2
f 19/29/3 5/29/3 1/29/3 22/29/3
f 4/29/4 18/29/4 24/29/4 21/29/4
f 26/29/3 7/29/3 30/29/3 32/29/3
f 29/30/1 28/31/1 31/32/1 33/33/1 32/34/1 30/35/1
f 1/36/5 2/37/5 21/38/5 24/31/5 23/30/5 22/35/5
f 7/39/5 11/40/5 6/41/5 28/42/5 29/43/5 30/44/5
f 6/29/4 25/29/4 31/29/4 28/29/4
f 5/45/6 3/46/6 4/47/6 21/48/6 2/49/6 1/50/6
f 17/51/5 19/52/5 20/53/5 8/54/5
f 8/1/5 20/55/5 18/56/5 16/2/5
f 12/57/5 3/58/5 5/59/5 15/60/5
f 3/61/5 12/62/5 14/63/5 4/64/5
f 41/1/1 44/4/1 39/3/1 49/2/1
f 50/8/1 40/5/1 44/6/1 41/7/1
f 46/9/1 43/12/1 58/11/1 60/10/1
f 46/16/1 60/13/1 59/14/1 42/15/1
f 56/17/1 55/22/1 52/21/1 53/20/1 51/19/1 57/18/1
f 66/23/5 65/28/5 59/27/5 60/26/5 58/25/5 64/24/5
f 52/29/3 55/29/3 34/29/3 38/29/3
f 37/29/4 54/29/4 57/29/4 51/29/4
f 59/29/3 65/29/3 63/29/3 40/29/3
f 62/30/1 63/35/1 65/34/1 66/33/1 64/32/1 61/31/1
f 34/36/2 55/35/2 56/30/2 57/31/2 54/38/2 35/37/2
f 40/39/2 63/44/2 62/43/2 61/42/2 39/41/2 44/40/2
f 39/29/4 61/29/4 64/29/4 58/29/4
f 38/45/6 34/50/6 35/49/6 54/48/6 37/47/6 36/46/6
f 50/51/2 41/54/2 53/53/2 52/52/2
f 41/1/2 49/2/2 51/56/2 53/55/2
f 45/57/2 48/60/2 38/59/2 36/58/2
f 36/61/2 37/64/2 47/63/2 45/62/2
f 75/1/6 78/4/6 73/3/6 83/2/6
f 84/65/6 74/66/6 78/67/6 75/68/6
f 80/9/6 77/12/6 92/11/6 94/10/6
f 80/68/6 94/69/6 93/70/6 76/65/6
f 90/17/6 89/22/6 86/21/6 87/20/6 85/19/6 91/18/6
f 100/23/2 99/28/2 93/27/2 94/26/2 92/25/2 98/24/2
f 86/29/3 89/29/3 68/29/3 72/29/3
f 71/29/4 88/29/4 91/29/4 85/29/4
f 93/29/3 99/29/3 97/29/3 74/29/3
f 96/30/6 97/35/6 99/34/6 100/33/6 98/32/6 95/31/6
f 68/36/5 89/35/5 90/30/5 91/31/5 88/38/5 69/37/5
f 74/39/5 97/44/5 96/43/5 95/42/5 73/41/5 78/40/5
f 73/29/4 95/29/4 98/29/4 92/29/4
f 72/45/1 68/50/1 69/49/1 88/48/1 71/47/1 70/46/1
f 84/66/5 75/67/5 87/68/5 86/65/5
f 75/1/5 83/2/5 85/56/5 87/55/5
f 79/69/5 82/70/5 72/65/5 70/68/5
f 70/61/5 71/64/5 81/63/5 79/62/5
f 108/1/6 116/2/6 106/3/6 111/4/6
f 117/66/6 108/67/6 111/68/6 107/65/6
f 113/9/6 127/10/6 125/11/6 110/12/6
f 113/69/6 109/70/6 126/65/6 127/68/6
f 123/17/6 124/18/6 118/19/6 120/20/6 119/21/6 122/22/6
f 133/23/5 131/24/5 125/25/5 127/26/5 126/27/5 132/28/5
f 119/29/3 105/29/3 101/29/3 122/29/3
f 104/29/4 118/29/4 124/29/4 121/29/4
f 126/29/3 107/29/3 130/29/3 132/29/3
f 129/30/6 128/31/6 131/32/6 133/33/6 132/34/6 130/35/6
f 101/36/2 102/37/2 121/38/2 124/31/2 123/30/2 122/35/2
f 107/39/2 111/40/2 106/41/2 128/42/2 129/43/2 130/44/2
f 106/29/4 125/29/4 131/29/4 128/29/4
f 105/45/1 103/46/1 104/47/1 121/48/1 102/49/1 101/50/1
f 117/8/2 119/5/2 120/6/2 108/7/2
f 108/71/2 120/72/2 118/73/2 116/74/2
f 112/16/2 103/13/2 105/14/2 115/15/2
f 103/61/2 112/62/2 114/63/2 104/64/2
f 7/75/4 26/76/4 9/77/4 76/78/4 93/79/4 74/80/4 84/81/4 17/82/4
f 72/83/4 82/84/4 115/85/4 105/86/4 119/87/4 117/88/4 84/81/4 86/89/4
f 5/90/4 19/91/4 17/82/4 50/92/4 52/93/4 38/94/4 48/95/4 15/96/4
f 40/97/4 50/92/4 117/88/4 107/98/4 126/99/4 109/100/4 42/101/4 59/102/4
f 84/81/4 117/88/4 50/92/4 17/82/4
f 4/103/3 14/104/3 47/105/3 37/106/3 51/107/3 49/108/3 16/109/3 18/110/3
f 39/111/3 58/112/3 43/113/3 110/114/3 125/115/3 106/116/3 116/117/3 49/108/3
f 71/118/3 85/119/3 83/120/3 116/117/3 118/121/3 104/122/3 114/123/3 81/124/3
f 6/125/3 16/109/3 83/120/3 73/126/3 92/127/3 77/128/3 10/129/3 25/130/3
f 49/108/3 116/117/3 83/120/3 16/109/3
