# Blender v2.76 (sub 0) OBJ File: 'Tunnelc3.blend'
# www.blender.org
mtllib Tunnelc3.mtl
g Tunnela1
v 0.760000 2.200000 2.200000
v 0.760000 1.000000 2.200000
v 0.800000 0.400000 2.200000
v 0.800000 0.000000 2.200000
v 0.800000 2.200000 2.200000
v 2.000000 0.000000 0.800000
v 2.000000 2.200000 0.800000
v 0.800000 0.400000 0.800000
v 3.000000 2.200000 0.800000
v 3.000000 0.000000 0.800000
v 3.000000 0.000000 -0.800000
v 3.000000 2.200000 -0.800000
v 2.000000 0.400000 0.800000
v 0.800000 0.400000 3.000000
v 3.000000 0.400000 0.800000
v 0.800000 0.000000 3.000000
v 0.800000 2.200000 3.000000
v 0.800000 0.000000 0.800000
v 0.800000 2.200000 0.800000
v 0.800000 0.000000 2.000000
v 0.800000 2.200000 2.000000
v 0.800000 0.400000 2.000000
v 0.760000 0.000000 2.200000
v 0.760000 2.200000 2.000000
v 0.760000 1.000000 2.000000
v 0.760000 0.000000 2.000000
v 2.200000 0.000000 0.800000
v 2.200000 2.200000 0.800000
v 2.200000 0.400000 0.800000
v 2.000000 0.000000 0.760000
v 2.000000 1.000000 0.760000
v 2.000000 2.200000 0.760000
v 2.200000 0.000000 0.760000
v 2.200000 2.200000 0.760000
v 2.200000 1.000000 0.760000
v 2.000000 2.200000 -0.800000
v 2.000000 0.000000 -0.800000
v 2.200000 2.200000 -0.800000
v 2.200000 0.000000 -0.800000
v 2.000000 2.200000 -0.760000
v 2.000000 0.000000 -0.760000
v 2.200000 0.000000 -0.760000
v 2.200000 2.200000 -0.760000
v 3.000000 0.400000 -0.800000
v 2.200000 0.400000 -0.800000
v 2.200000 1.000000 -0.760000
v 2.000000 0.400000 -0.800000
v 2.000000 1.000000 -0.760000
v -0.760000 2.200000 2.200000
v -0.760000 1.000000 2.200000
v -0.800000 0.400000 2.200000
v -0.800000 0.000000 2.200000
v -0.800000 2.200000 2.200000
v -2.000000 0.000000 0.800000
v -2.000000 2.200000 0.800000
v -0.800000 0.400000 0.800000
v -3.000000 2.200000 0.800000
v -3.000000 0.000000 0.800000
v -3.000000 0.000000 -0.800000
v -3.000000 2.200000 -0.800000
v -2.000000 0.400000 0.800000
v -0.800000 0.400000 3.000000
v -3.000000 0.400000 0.800000
v -0.800000 0.000000 3.000000
v -0.800000 2.200000 3.000000
v -0.800000 0.000000 0.800000
v -0.800000 2.200000 0.800000
v -0.800000 0.000000 2.000000
v -0.800000 2.200000 2.000000
v -0.800000 0.400000 2.000000
v -0.760000 0.000000 2.200000
v -0.760000 2.200000 2.000000
v -0.760000 1.000000 2.000000
v -0.760000 0.000000 2.000000
v -2.200000 0.000000 0.800000
v -2.200000 2.200000 0.800000
v -2.200000 0.400000 0.800000
v -2.000000 0.000000 0.760000
v -2.000000 1.000000 0.760000
v -2.000000 2.200000 0.760000
v -2.200000 0.000000 0.760000
v -2.200000 2.200000 0.760000
v -2.200000 1.000000 0.760000
v 0.000000 0.000000 0.800000
v 0.000000 0.000000 3.000000
v 0.000000 2.200000 0.800000
v 0.000000 2.200000 3.000000
v -2.000000 2.200000 -0.800000
v -2.000000 0.000000 -0.800000
v -2.200000 2.200000 -0.800000
v -2.200000 0.000000 -0.800000
v -2.000000 2.200000 -0.760000
v -2.000000 0.000000 -0.760000
v -2.200000 0.000000 -0.760000
v -2.200000 2.200000 -0.760000
v -3.000000 0.400000 -0.800000
v -2.200000 0.400000 -0.800000
v -2.200000 1.000000 -0.760000
v -2.000000 0.400000 -0.800000
v -2.000000 1.000000 -0.760000
vt 0.940916 0.032640
vt 0.940916 0.026249
vt 0.947307 0.026249
vt 0.947307 0.032640
vt 0.896183 0.044234
vt 0.892298 0.044234
vt 0.892298 0.026754
vt 0.896183 0.026754
vt 0.962256 0.036913
vt 0.955865 0.036913
vt 0.955865 0.032652
vt 0.962256 0.032652
vt 0.876755 0.044250
vt 0.879344 0.044250
vt 0.879344 0.061730
vt 0.876755 0.061730
vt 0.955484 0.038824
vt 0.955428 0.062984
vt 0.955007 0.062980
vt 0.955090 0.026744
vt 0.955007 0.018689
vt 0.955275 0.018686
vt 0.953533 0.038824
vt 0.953477 0.062984
vt 0.953055 0.062980
vt 0.953139 0.026744
vt 0.953055 0.018689
vt 0.953324 0.018686
vt 0.116059 0.037273
vt 0.032022 0.030967
vt 0.032022 0.041451
vt 0.031440 0.041451
vt 0.031440 0.030967
vt 0.031440 0.022231
vt 0.032022 0.022231
vt 0.032609 0.041451
vt 0.032609 0.022231
vt 0.032609 0.030967
vt 0.956682 0.063594
vt 0.956406 0.063598
vt 0.956295 0.047737
vt 0.956295 0.018686
vt 0.956683 0.018686
vt 0.956682 0.030306
vt 0.957478 0.063594
vt 0.957201 0.063598
vt 0.957091 0.047737
vt 0.957091 0.018686
vt 0.957478 0.018686
vt 0.957478 0.030306
vt 0.033786 0.041451
vt 0.033786 0.030967
vt 0.033786 0.022231
vt 0.034368 0.022231
vt 0.034368 0.030967
vt 0.034368 0.041451
vt 0.954031 0.018689
vt 0.954299 0.018686
vt 0.954508 0.038824
vt 0.954453 0.062984
vt 0.954031 0.062980
vt 0.954114 0.026744
vt 0.955887 0.063594
vt 0.955610 0.063598
vt 0.955498 0.047737
vt 0.955495 0.018686
vt 0.955882 0.018686
vt 0.955883 0.030306
vt 0.951580 0.039043
vt 0.947319 0.039043
vt 0.947319 0.032652
vt 0.951580 0.032652
vt 0.900067 0.026754
vt 0.900067 0.044234
vt 0.940916 0.039031
vt 0.876739 0.044250
vt 0.876739 0.061730
vt 0.874149 0.061730
vt 0.874149 0.044250
vt 0.955865 0.043316
vt 0.960126 0.036925
vt 0.960126 0.043316
vt 0.885525 0.043403
vt 0.885525 0.047579
vt 0.881348 0.047579
vt 0.877172 0.047579
vt 0.877172 0.043403
vt 0.877172 0.042359
vt 0.877172 0.036094
vt 0.881348 0.036094
vt 0.885525 0.036094
vt 0.885525 0.042359
vt 0.953710 0.026249
vt 0.953710 0.032640
vt 0.888392 0.044236
vt 0.888398 0.026756
vt 0.964374 0.032640
vt 0.960113 0.032640
vt 0.960113 0.026249
vt 0.964374 0.026249
vt 0.902673 0.026754
vt 0.902673 0.044234
vt 0.957489 0.047737
vt 0.957876 0.018686
vt 0.957876 0.030306
vt 0.957876 0.063594
vt 0.957599 0.063598
vt 0.955897 0.047737
vt 0.956285 0.030306
vt 0.956285 0.063594
vt 0.956008 0.063598
vt 0.030854 0.030967
vt 0.030854 0.022231
vt 0.030854 0.041451
vt 0.033195 0.022231
vt 0.033195 0.030967
vt 0.033195 0.041451
vt 0.953627 0.026744
vt 0.953543 0.018689
vt 0.953812 0.018686
vt 0.954020 0.038824
vt 0.952567 0.062980
vt 0.952651 0.026744
vt 0.952567 0.018689
vt 0.952836 0.018686
vt 0.953045 0.038824
vt 0.952989 0.062984
vt 0.957080 0.030306
vt 0.957080 0.063594
vt 0.956804 0.063598
vt 0.956693 0.047737
vt 0.954602 0.026744
vt 0.954519 0.018689
vt 0.954787 0.018686
vt 0.954996 0.038824
vt 0.954940 0.062984
vt 0.871544 0.044250
vt 0.871544 0.061730
vt 0.955853 0.039043
vt 0.884508 0.044234
vt 0.884514 0.026754
vt 0.879360 0.044250
vt 0.881950 0.044250
vt 0.881950 0.061730
vt 0.879360 0.061730
vt 0.964398 0.043316
vt 0.964398 0.036925
vt 0.731527 0.032678
vt 0.731527 0.034776
vt 0.731527 0.035301
vt 0.731527 0.038447
vt 0.729429 0.038447
vt 0.727331 0.038447
vt 0.727331 0.035301
vt 0.727331 0.034776
vt 0.727331 0.032678
vt 0.729429 0.032678
vt 0.735198 0.038447
vt 0.737295 0.038447
vt 0.737295 0.042642
vt 0.735198 0.042642
vt 0.734673 0.042642
vt 0.724185 0.042642
vt 0.723660 0.042642
vt 0.721563 0.042642
vt 0.721563 0.038447
vt 0.723660 0.038447
vt 0.724185 0.038447
vt 0.734673 0.038447
vt 0.905278 0.026754
vt 0.905278 0.044234
vt 0.891789 0.036094
vt 0.870908 0.036094
vt 0.869864 0.036094
vt 0.865687 0.036094
vt 0.865687 0.027742
vt 0.869864 0.027742
vt 0.870908 0.027742
vt 0.891789 0.027742
vt 0.892833 0.027742
vt 0.897009 0.027742
vt 0.897009 0.036094
vt 0.892833 0.036094
vt 0.962219 0.019846
vt 0.962219 0.026237
vt 0.940916 0.019846
vt 0.871544 0.044234
vt 0.871544 0.026754
vn 0.000000 0.000000 -1.000000
vn 1.000000 0.000000 0.000000
vn 0.000000 1.000000 0.000000
vn 0.000000 -1.000000 0.000000
vn -1.000000 0.000000 0.000000
vn -0.000000 0.000000 1.000000
usemtl TunnelMain
s off
f 8/1/1 13/2/1 6/3/1 18/4/1
f 19/5/1 7/6/1 13/7/1 8/8/1
f 15/9/1 10/10/1 27/11/1 29/12/1
f 15/13/1 29/14/1 28/15/1 9/16/1
f 25/17/1 24/18/1 21/19/1 22/20/1 20/21/1 26/22/1
f 35/23/2 34/24/2 28/25/2 29/26/2 27/27/2 33/28/2
f 21/29/3 24/29/3 1/29/3 5/29/3
f 4/29/4 23/29/4 26/29/4 20/29/4
f 28/29/3 34/29/3 32/29/3 7/29/3
f 31/30/1 32/31/1 34/32/1 35/33/1 33/34/1 30/35/1
f 1/36/5 24/31/5 25/30/5 26/35/5 23/37/5 2/38/5
f 7/39/5 32/40/5 31/41/5 30/42/5 6/43/5 13/44/5
f 6/29/4 30/29/4 33/29/4 27/29/4
f 5/45/6 1/46/6 2/47/6 23/48/6 4/49/6 3/50/6
f 40/51/6 48/52/6 41/53/6 42/54/6 46/55/6 43/56/6
f 37/29/4 39/29/4 42/29/4 41/29/4
f 38/29/3 36/29/3 40/29/3 43/29/3
f 37/57/5 41/58/5 48/59/5 40/60/5 36/61/5 47/62/5
f 38/63/2 43/64/2 46/65/2 42/66/2 39/67/2 45/68/2
f 44/69/6 45/70/6 39/71/6 11/72/6
f 19/5/5 8/8/5 22/73/5 21/74/5
f 8/1/5 18/4/5 20/70/5 22/75/5
f 14/76/5 17/77/5 5/78/5 3/79/5
f 3/80/5 4/10/5 16/81/5 14/82/5
f 5/83/4 17/84/4 87/85/4 65/86/4 53/87/4 69/88/4 67/89/4 86/90/4 19/91/4 21/92/4
f 56/93/1 66/94/1 54/4/1 61/3/1
f 67/95/1 56/96/1 61/7/1 55/6/1
f 63/97/1 77/98/1 75/99/1 58/100/1
f 63/101/1 57/102/1 76/74/1 77/73/1
f 73/103/1 74/49/1 68/104/1 70/105/1 69/106/1 72/107/1
f 83/108/5 81/67/5 75/42/5 77/109/5 76/110/5 82/111/5
f 69/29/3 53/29/3 49/29/3 72/29/3
f 52/29/4 68/29/4 74/29/4 71/29/4
f 76/29/3 55/29/3 80/29/3 82/29/3
f 79/112/1 78/113/1 81/34/1 83/33/1 82/32/1 80/114/1
f 49/36/2 50/38/2 71/37/2 74/115/2 73/116/2 72/117/2
f 55/24/2 61/118/2 54/119/2 78/120/2 79/121/2 80/61/2
f 54/29/4 75/29/4 81/29/4 78/29/4
f 53/122/6 51/123/6 52/124/6 71/125/6 50/126/6 49/127/6
f 92/51/6 95/117/6 98/116/6 94/115/6 93/53/6 100/52/6
f 89/29/4 93/29/4 94/29/4 91/29/4
f 90/29/3 95/29/3 92/29/3 88/29/3
f 89/48/2 99/128/2 88/129/2 92/130/2 100/131/2 93/43/2
f 90/60/5 97/132/5 91/133/5 94/134/5 98/135/5 95/136/5
f 45/137/6 44/79/6 12/78/6 38/138/6
f 96/69/6 59/72/6 91/11/6 97/139/6
f 67/95/2 69/140/2 70/141/2 56/96/2
f 56/93/2 70/99/2 68/98/2 66/94/2
f 62/142/2 51/143/2 53/144/2 65/145/2
f 51/146/2 62/82/2 64/81/2 52/147/2
f 16/148/3 4/149/3 20/150/3 18/151/3 84/152/3 66/153/3 68/154/3 52/155/3 64/156/3 85/157/3
f 27/158/3 10/159/3 11/160/3 39/161/3 37/162/3 89/163/3 91/164/3 59/165/3 58/166/3 75/167/3 54/168/3 66/153/3 84/152/3 18/151/3 6/169/3
f 97/170/6 90/171/6 60/102/6 96/101/6
f 7/172/4 19/91/4 86/90/4 67/89/4 55/173/4 76/174/4 57/175/4 60/176/4 90/177/4 88/178/4 36/179/4 38/180/4 12/181/4 9/182/4 28/183/4
f 37/184/6 47/185/6 99/2/6 89/186/6
f 47/141/6 36/140/6 88/187/6 99/188/6
