# Blender v2.76 (sub 0) OBJ File: 'Tunnela4.blend'
# www.blender.org
mtllib Tunnela4.mtl
g Tunnela1
v 0.760000 2.200000 2.200000
v 0.760000 1.000000 2.200000
v 0.800000 0.400000 2.200000
v 0.800000 0.000000 2.200000
v 0.800000 2.200000 2.200000
v 0.800000 0.400000 0.800000
v 0.800000 0.400000 3.000000
v 0.800000 0.000000 3.000000
v 0.800000 2.200000 3.000000
v 0.800000 0.000000 0.800000
v 0.800000 2.200000 0.800000
v 0.800000 0.000000 2.000000
v 0.800000 2.200000 2.000000
v 0.800000 0.400000 2.000000
v 0.100000 0.000000 -0.760000
v 0.100000 0.000000 -0.800000
v 0.760000 0.000000 2.200000
v 0.760000 2.200000 2.000000
v 0.760000 1.000000 2.000000
v 0.760000 0.000000 2.000000
v -0.850000 0.000000 -0.800000
v 0.800000 0.000000 -0.800000
v -0.850000 2.200000 -0.800000
v 0.800000 2.200000 -0.800000
v 0.800000 0.400000 -0.800000
v -0.760000 2.200000 2.200000
v -0.760000 1.000000 2.200000
v -0.800000 0.400000 2.200000
v -0.800000 0.000000 2.200000
v -0.800000 2.200000 2.200000
v -2.000000 0.000000 0.800000
v -2.000000 2.200000 0.800000
v -0.800000 0.400000 0.800000
v -3.000000 2.200000 0.800000
v -3.000000 0.000000 0.800000
v -3.000000 0.000000 -0.800000
v -3.000000 2.200000 -0.800000
v -2.000000 0.400000 0.800000
v -0.800000 0.400000 3.000000
v -3.000000 0.400000 0.800000
v -0.800000 0.000000 3.000000
v -0.800000 2.200000 3.000000
v -0.800000 0.000000 0.800000
v -0.800000 2.200000 0.800000
v -0.800000 0.000000 2.000000
v -0.800000 2.200000 2.000000
v -0.800000 0.400000 2.000000
v -0.100000 0.000000 -0.760000
v -0.100000 0.000000 -0.800000
v -0.760000 0.000000 2.200000
v -0.760000 2.200000 2.000000
v -0.760000 1.000000 2.000000
v -0.760000 0.000000 2.000000
v -2.200000 0.000000 0.800000
v -2.200000 2.200000 0.800000
v -2.200000 0.400000 0.800000
v -2.000000 0.000000 0.760000
v -2.000000 1.000000 0.760000
v -2.000000 2.200000 0.760000
v -2.200000 0.000000 0.760000
v -2.200000 2.200000 0.760000
v -2.200000 1.000000 0.760000
v 0.000000 0.000000 -0.760000
v 0.000000 0.000000 0.800000
v 0.000000 0.000000 3.000000
v 0.000000 2.200000 0.800000
v 0.000000 2.200000 3.000000
v -2.000000 2.200000 -0.800000
v -2.000000 0.000000 -0.800000
v -2.200000 2.200000 -0.800000
v -2.200000 0.000000 -0.800000
v -2.000000 2.200000 -0.760000
v -2.000000 0.000000 -0.760000
v -2.200000 0.000000 -0.760000
v -2.200000 2.200000 -0.760000
v -3.000000 0.400000 -0.800000
v -2.200000 0.400000 -0.800000
v -2.200000 1.000000 -0.760000
v -2.000000 0.400000 -0.800000
v -2.000000 1.000000 -0.760000
v 0.000000 0.000000 -0.760000
v -0.850000 0.400000 -0.800000
vt 0.344404 0.034828
vt 0.344373 0.057221
vt 0.343982 0.057219
vt 0.344031 0.021396
vt 0.343982 0.012439
vt 0.344280 0.012438
vt 0.116059 0.037273
vt 0.260850 0.051400
vt 0.259340 0.051400
vt 0.259340 0.028740
vt 0.259340 0.006081
vt 0.260850 0.006081
vt 0.260850 0.028740
vt 0.346942 0.057443
vt 0.346641 0.057445
vt 0.346586 0.040181
vt 0.346608 0.012438
vt 0.346978 0.012438
vt 0.346969 0.023535
vt 0.026817 0.047130
vt 0.024288 0.071816
vt 0.018525 0.071255
vt 0.021045 0.045320
vt 0.167383 0.035219
vt 0.176388 0.035219
vt 0.176388 0.044224
vt 0.167383 0.044224
vt 0.007679 0.071231
vt 0.015963 0.043786
vt 0.020029 0.045013
vt 0.011745 0.072459
vt 0.194435 0.041241
vt 0.185430 0.041241
vt 0.185430 0.035237
vt 0.194435 0.035237
vt 0.017190 0.039720
vt 0.018418 0.035654
vt 0.022484 0.036881
vt 0.023500 0.037188
vt 0.031411 0.038139
vt 0.028633 0.043275
vt 0.176407 0.026214
vt 0.185412 0.026214
vt 0.027428 0.002643
vt 0.034919 0.001760
vt 0.038890 0.035471
vt 0.182410 0.062271
vt 0.176407 0.062271
vt 0.176407 0.053266
vt 0.182410 0.053266
vt 0.030748 0.004053
vt 0.044245 0.032972
vt 0.039961 0.034971
vt 0.026464 0.006052
vt 0.347893 0.040181
vt 0.347893 0.012438
vt 0.348263 0.012438
vt 0.348263 0.023535
vt 0.348263 0.057442
vt 0.347962 0.057445
vt 0.342393 0.040180
vt 0.342503 0.012438
vt 0.342873 0.012439
vt 0.342829 0.023536
vt 0.342693 0.057443
vt 0.342392 0.057445
vt 0.253251 0.028740
vt 0.253251 0.006081
vt 0.254761 0.006081
vt 0.254762 0.028740
vt 0.254762 0.051400
vt 0.253251 0.051400
vt 0.251729 0.051400
vt 0.251729 0.028740
vt 0.251729 0.006081
vt 0.253239 0.006081
vt 0.253239 0.028740
vt 0.253239 0.051400
vt 0.344465 0.021396
vt 0.344416 0.012439
vt 0.344714 0.012438
vt 0.344838 0.034828
vt 0.344807 0.057221
vt 0.345285 0.057219
vt 0.345334 0.021396
vt 0.345284 0.012439
vt 0.345583 0.012438
vt 0.345706 0.034828
vt 0.345676 0.057221
vt 0.262373 0.051400
vt 0.262373 0.006081
vt 0.262373 0.028740
vt 0.347383 0.012438
vt 0.347374 0.023535
vt 0.347346 0.057443
vt 0.347045 0.057445
vt 0.346990 0.040181
vt 0.346152 0.057219
vt 0.346202 0.021396
vt 0.346152 0.012439
vt 0.346451 0.012438
vt 0.346574 0.034828
vt 0.346543 0.057221
vt 0.061741 0.070459
vt 0.057457 0.072459
vt 0.043960 0.043540
vt 0.048244 0.041540
vt 0.191434 0.026214
vt 0.191434 0.035219
vt 0.019928 0.003437
vt 0.185412 0.044224
vt 0.026702 0.008209
vt 0.030768 0.009436
vt 0.201939 0.053247
vt 0.195936 0.053247
vt 0.195936 0.044242
vt 0.201939 0.044242
vt 0.126365 0.017497
vt 0.126363 0.024751
vt 0.126362 0.026565
vt 0.126358 0.037446
vt 0.119104 0.037444
vt 0.111849 0.037441
vt 0.111853 0.026560
vt 0.111854 0.024746
vt 0.111856 0.017492
vt 0.119111 0.017494
vt 0.037520 0.046250
vt 0.032333 0.049558
vt 0.042889 0.044040
vt 0.100968 0.037437
vt 0.111391 0.051950
vt 0.100963 0.051946
vt 0.099149 0.051946
vt 0.091895 0.051943
vt 0.091900 0.037434
vt 0.099154 0.037437
vt 0.126807 0.051955
vt 0.120006 0.051953
vt 0.118192 0.051952
vt 0.033605 0.071965
vt 0.173380 0.015794
vt 0.200184 0.015794
vt 0.200184 0.035887
vt 0.173380 0.035887
vt 0.209394 0.037957
vt 0.182836 0.037957
vt 0.164326 0.037957
vt 0.164326 0.018642
vt 0.182836 0.018642
vt 0.209394 0.018642
vt 0.043177 0.070761
vt 0.048603 0.069598
vn 0.000000 0.000000 -1.000000
vn 0.000000 1.000000 0.000000
vn 0.000000 -1.000000 0.000000
vn -1.000000 0.000000 0.000000
vn -0.000000 0.000000 1.000000
vn 1.000000 0.000000 0.000000
usemtl TunnelMain
s off
f 19/1/1 18/2/1 13/3/1 14/4/1 12/5/1 20/6/1
f 13/7/2 18/7/2 1/7/2 5/7/2
f 4/7/3 17/7/3 20/7/3 12/7/3
f 1/8/4 18/9/4 19/10/4 20/11/4 17/12/4 2/13/4
f 5/14/5 1/15/5 2/16/5 17/17/5 4/18/5 3/19/5
f 11/20/4 6/21/4 14/22/4 13/23/4
f 6/24/4 10/25/4 12/26/4 14/27/4
f 7/28/4 9/29/4 5/30/4 3/31/4
f 3/32/4 4/33/4 8/34/4 7/35/4
f 5/30/3 9/29/3 67/36/3 42/37/3 30/38/3 46/39/3 44/40/3 66/41/3 11/20/3 13/23/3
f 33/34/1 43/25/1 31/42/1 38/43/1
f 44/40/1 33/44/1 38/45/1 32/46/1
f 40/47/1 56/48/1 54/49/1 35/50/1
f 40/51/1 34/52/1 55/53/1 56/54/1
f 52/55/1 53/56/1 45/57/1 47/58/1 46/59/1 51/60/1
f 62/61/4 60/62/4 54/63/4 56/64/4 55/65/4 61/66/4
f 46/7/2 30/7/2 26/7/2 51/7/2
f 29/7/3 45/7/3 53/7/3 50/7/3
f 55/7/2 32/7/2 59/7/2 61/7/2
f 58/67/1 57/68/1 60/69/1 62/70/1 61/71/1 59/72/1
f 26/73/6 27/74/6 50/75/6 53/76/6 52/77/6 51/78/6
f 32/2/6 38/79/6 31/80/6 57/81/6 58/82/6 59/83/6
f 31/7/3 54/7/3 60/7/3 57/7/3
f 30/84/5 28/85/5 29/86/5 50/87/5 27/88/5 26/89/5
f 72/90/5 75/8/5 78/13/5 74/12/5 73/91/5 80/92/5
f 69/7/3 73/7/3 74/7/3 71/7/3
f 70/7/2 75/7/2 72/7/2 68/7/2
f 69/93/6 79/94/6 68/95/6 72/96/6 80/97/6 73/18/6
f 70/98/4 77/99/4 71/100/4 74/101/4 78/102/4 75/103/4
f 76/104/5 77/105/5 70/106/5 37/107/5
f 76/34/5 36/43/5 71/108/5 77/109/5
f 44/40/6 46/39/6 47/110/6 33/44/6
f 33/34/6 47/111/6 45/26/6 43/25/6
f 39/112/6 28/113/6 30/38/6 42/37/6
f 28/114/6 39/115/6 41/116/6 29/117/6
f 8/118/2 4/119/2 12/120/2 10/121/2 64/122/2 43/123/2 45/124/2 29/125/2 41/126/2 65/127/2
f 66/41/3 44/40/3 23/128/3 24/129/3 11/20/3
f 55/53/3 34/52/3 37/107/3 70/106/3 68/130/3 23/128/3 44/40/3 32/46/3
f 31/131/2 43/123/2 21/132/2 69/133/2 71/134/2 36/135/2 35/136/2 54/137/2
f 10/121/2 22/138/2 16/139/2 49/140/2 21/132/2 43/123/2 64/122/2
f 11/20/4 24/129/4 25/141/4 6/21/4
f 6/142/4 25/143/4 22/144/4 10/145/4
f 25/146/5 82/147/5 79/148/5 69/149/5 21/150/5 22/151/5
f 25/141/5 24/129/5 23/128/5 82/152/5
f 82/152/5 23/128/5 68/130/5 79/153/5
l 15 63
l 15 81
l 48 63
l 48 81
