# Blender v2.76 (sub 0) OBJ File: 'Tunneld2.blend'
# www.blender.org
mtllib Tunneld2.mtl
g Tunnela1
v -0.800000 0.000000 2.000000
v -0.800000 2.200000 2.000000
v -0.800000 0.000000 3.000000
v -0.800000 2.200000 3.000000
v -0.800000 2.200000 2.200000
v -0.800000 0.000000 2.200000
v -0.800000 0.000000 0.100000
v -0.800000 2.200000 0.100000
v -0.800000 0.400000 2.200000
v -0.800000 0.400000 3.000000
v -0.800000 0.400000 2.000000
v -0.800000 0.400000 0.100000
v -0.800000 0.000000 -2.000000
v -0.800000 2.200000 -2.000000
v -0.800000 0.000000 -3.000000
v -0.800000 2.200000 -3.000000
v -0.800000 2.200000 -2.200000
v -0.800000 0.000000 -2.200000
v -0.800000 0.000000 -0.100000
v -0.800000 2.200000 -0.100000
v -0.800000 0.400000 -2.200000
v -0.800000 0.400000 -3.000000
v -0.800000 0.400000 -2.000000
v -0.800000 0.400000 -0.100000
v -0.760000 1.000000 0.100000
v -0.760000 2.200000 0.100000
v -0.760000 0.000000 0.100000
v -0.760000 1.000000 -0.100000
v -0.760000 2.200000 -0.100000
v -0.760000 0.000000 -0.100000
v 0.800000 0.000000 2.000000
v 0.800000 2.200000 2.000000
v 0.800000 0.000000 3.000000
v 0.800000 2.200000 3.000000
v 0.800000 2.200000 2.200000
v 0.800000 0.000000 2.200000
v 0.800000 0.000000 0.100000
v 0.800000 2.200000 0.100000
v 0.800000 0.400000 2.200000
v 0.800000 0.400000 3.000000
v 0.800000 0.400000 2.000000
v 0.800000 0.400000 0.100000
v 0.800000 0.000000 -2.000000
v 0.800000 2.200000 -2.000000
v 0.800000 0.000000 -3.000000
v 0.800000 2.200000 -3.000000
v 0.800000 2.200000 -2.200000
v 0.800000 0.000000 -2.200000
v 0.800000 0.000000 -0.100000
v 0.800000 2.200000 -0.100000
v 0.800000 0.400000 -2.200000
v 0.800000 0.400000 -3.000000
v 0.800000 0.400000 -2.000000
v 0.800000 0.400000 -0.100000
v 0.760000 1.000000 0.100000
v 0.760000 2.200000 0.100000
v 0.760000 0.000000 0.100000
v 0.760000 1.000000 -0.100000
v 0.760000 2.200000 -0.100000
v 0.760000 0.000000 -0.100000
vt 0.177409 0.105442
vt 0.185938 0.105442
vt 0.185938 0.110829
vt 0.177409 0.110829
vt 0.176511 0.110829
vt 0.172919 0.110829
vt 0.172919 0.105442
vt 0.176511 0.105442
vt 0.250616 0.116882
vt 0.251663 0.116882
vt 0.251925 0.116882
vt 0.254411 0.116882
vt 0.254411 0.123949
vt 0.251925 0.123949
vt 0.251663 0.123949
vt 0.250616 0.123949
vt 0.185938 0.116223
vt 0.177409 0.116223
vt 0.176511 0.116223
vt 0.172919 0.116223
vt 0.416268 0.118890
vt 0.416268 0.134436
vt 0.416139 0.134438
vt 0.416087 0.127031
vt 0.416087 0.113463
vt 0.416268 0.113463
vt 0.010376 0.495119
vt 0.034473 0.494152
vt 0.031123 0.499289
vt 0.013494 0.498742
vt 0.415677 0.134150
vt 0.415716 0.117227
vt 0.415677 0.113465
vt 0.415803 0.113463
vt 0.415900 0.122868
vt 0.415874 0.134151
vt 0.035271 0.993203
vt 0.009394 0.994129
vt 0.013816 0.988570
vt 0.031123 0.989118
vt 0.326920 0.114017
vt 0.326920 0.102140
vt 0.327712 0.102140
vt 0.327712 0.114017
vt 0.327712 0.128270
vt 0.326920 0.128270
vt 0.249565 0.123949
vt 0.249304 0.123949
vt 0.246817 0.123949
vt 0.246817 0.116882
vt 0.249304 0.116882
vt 0.249565 0.116882
vt 0.181449 0.105435
vt 0.172919 0.100048
vt 0.181449 0.100048
vt 0.182347 0.100048
vt 0.185938 0.100048
vt 0.182347 0.105435
vt 0.258210 0.116882
vt 0.258210 0.123949
vt 0.257163 0.123949
vt 0.256902 0.123949
vt 0.256902 0.116882
vt 0.257163 0.116882
vt 0.246817 0.123953
vt 0.247864 0.123953
vt 0.248126 0.123953
vt 0.250612 0.123953
vt 0.250612 0.131019
vt 0.248126 0.131019
vt 0.247864 0.131019
vt 0.246817 0.131019
vt 0.415550 0.117226
vt 0.415550 0.113463
vt 0.415676 0.122869
vt 0.415533 0.134151
vt 0.415336 0.134147
vt 0.034333 0.495617
vt 0.031206 0.499185
vt 0.013568 0.499373
vt 0.010236 0.494152
vt 0.415956 0.134438
vt 0.415903 0.127031
vt 0.415902 0.113463
vt 0.416084 0.118890
vt 0.009420 0.992803
vt 0.013568 0.988770
vt 0.030880 0.988490
vt 0.035294 0.994129
vt 0.328505 0.114017
vt 0.328505 0.128270
vt 0.328505 0.102140
vt 0.254818 0.117379
vt 0.255444 0.117379
vt 0.261392 0.117379
vt 0.262018 0.117379
vt 0.264523 0.117379
vt 0.264523 0.122388
vt 0.262018 0.122388
vt 0.261392 0.122388
vt 0.255444 0.122388
vt 0.254818 0.122388
vt 0.248869 0.122388
vt 0.248243 0.122388
vt 0.245739 0.122388
vt 0.245739 0.117379
vt 0.248243 0.117379
vt 0.248869 0.117379
vt 0.114813 0.123222
vt 0.109725 0.123222
vt 0.109189 0.123222
vt 0.107047 0.123222
vt 0.107047 0.118937
vt 0.109189 0.118937
vt 0.109725 0.118937
vt 0.114813 0.118937
vt 0.115349 0.118937
vt 0.120437 0.118937
vt 0.120973 0.118937
vt 0.123116 0.118937
vt 0.123116 0.123222
vt 0.120973 0.123222
vt 0.120437 0.123222
vt 0.115349 0.123222
vt 0.181449 0.121617
vt 0.172919 0.121617
vt 0.181449 0.116230
vt 0.182347 0.116230
vt 0.185938 0.121617
vt 0.182347 0.121617
vn -1.000000 -0.000000 0.000000
vn 1.000000 0.000000 0.000000
vn -0.000000 0.000000 -1.000000
vn 0.000000 -1.000000 0.000000
vn -0.000000 0.000000 1.000000
vn 0.000000 1.000000 0.000000
usemtl TunnelMain
s off
f 41/1/1 42/2/1 37/3/1 31/4/1 36/5/1 33/6/1 40/7/1 39/8/1
f 10/9/2 9/10/2 11/11/2 12/12/2 8/13/2 2/14/2 5/15/2 4/16/2
f 1/4/2 7/3/2 12/17/2 11/18/2 9/19/2 10/20/2 3/6/2 6/5/2
f 24/21/3 20/22/3 29/23/3 28/24/3 30/25/3 19/26/3
f 7/27/4 19/28/4 30/29/4 27/30/4
f 8/31/5 12/32/5 7/33/5 27/34/5 25/35/5 26/36/5
f 20/37/6 8/38/6 26/39/6 29/40/6
f 25/41/2 27/42/2 30/43/2 28/44/2 29/45/2 26/46/2
f 22/9/2 16/16/2 17/47/2 14/48/2 20/49/2 24/50/2 23/51/2 21/52/2
f 43/53/1 49/7/1 54/54/1 53/55/1 51/56/1 52/57/1 45/2/1 48/58/1
f 40/59/1 34/60/1 35/61/1 32/62/1 38/13/1 42/12/1 41/63/1 39/64/1
f 52/65/1 51/66/1 53/67/1 54/68/1 50/69/1 44/70/1 47/71/1 46/72/1
f 54/73/3 49/74/3 60/33/3 58/75/3 59/76/3 50/77/3
f 37/78/4 57/79/4 60/80/4 49/81/4
f 38/23/5 56/82/5 55/83/5 57/84/5 37/25/5 42/85/5
f 50/86/6 59/87/6 56/88/6 38/89/6
f 55/90/1 56/91/1 59/45/1 58/44/1 60/43/1 57/92/1
f 8/93/4 20/94/4 14/95/4 17/96/4 16/97/4 46/98/4 47/99/4 44/100/4 50/101/4 38/102/4 32/103/4 35/104/4 34/105/4 4/106/4 5/107/4 2/108/4
f 7/109/6 1/110/6 6/111/6 3/112/6 33/113/6 36/114/6 31/115/6 37/116/6 49/117/6 43/118/6 48/119/6 45/120/6 15/121/6 18/122/6 13/123/6 19/124/6
f 23/125/2 24/126/2 19/20/2 13/127/2 18/128/2 15/17/2 22/129/2 21/130/2
