# Blender v2.76 (sub 0) OBJ File: 'tunnelb1.blend'
# www.blender.org
mtllib tunnelb1.mtl
g Tunnelb1
v -1.000000 2.000000 -3.000000
v -1.000000 0.000000 -3.000000
v 1.000000 2.000000 -3.000000
v 1.000000 0.000000 -3.000000
v -1.000000 2.200000 -3.000000
v 1.000000 2.200000 -3.000000
v 1.000000 2.200000 0.000000
v -1.000000 2.200000 0.000000
v 1.000000 0.000000 0.000000
v -1.000000 0.000000 0.000000
vt 0.011947 0.963250
vt 0.034079 0.963250
vt 0.034079 0.947020
vt 0.011947 0.947020
vt 0.026719 0.979516
vt 0.011947 0.979498
vt 0.034079 0.979498
vt 0.011947 0.995746
vt 0.026702 0.995746
vt 0.048851 0.969170
vt 0.034097 0.969170
vt 0.034097 0.991302
vt 0.048851 0.991302
vt 0.048851 0.947020
vn -1.000000 0.000000 0.000000
vn 1.000000 0.000000 0.000000
vn 0.000000 0.000000 1.000000
vn 0.000000 0.000000 -1.000000
vn 0.000000 -1.000000 0.000000
vn 0.000000 1.000000 0.000000
usemtl TunnelaMain
s off
f 4/1/1 9/2/1 7/3/1 6/4/1
f 4/5/2 6/5/2 3/5/2
f 1/5/3 5/5/3 2/5/3
f 2/6/2 5/1/2 8/2/2 10/7/2
f 8/5/4 7/6/4 9/8/4 10/9/4
f 5/10/5 6/11/5 7/12/5 8/13/5
f 2/14/6 10/10/6 9/11/6 4/3/6
