# Blender v2.76 (sub 0) OBJ File: 'Tunneld4.blend'
# www.blender.org
mtllib Tunneld4.mtl
g Tunnela1
v 0.760000 2.200000 2.200000
v 0.760000 1.000000 2.200000
v 0.800000 0.400000 2.200000
v 0.800000 0.000000 2.200000
v 0.800000 2.200000 2.200000
v 0.800000 0.400000 0.800000
v 0.800000 0.400000 3.000000
v 0.800000 0.000000 3.000000
v 0.800000 2.200000 3.000000
v 0.800000 0.000000 0.800000
v 0.800000 2.200000 0.800000
v 0.800000 0.000000 2.000000
v 0.800000 2.200000 2.000000
v 0.800000 0.400000 2.000000
v 0.100000 0.000000 -0.760000
v 0.100000 0.000000 -0.800000
v 0.760000 0.000000 2.200000
v 0.760000 2.200000 2.000000
v 0.760000 1.000000 2.000000
v 0.760000 0.000000 2.000000
v -0.850000 0.000000 -0.800000
v 0.800000 0.000000 -0.800000
v -0.850000 2.200000 -0.800000
v 0.800000 2.200000 -0.800000
v 0.800000 0.400000 -0.800000
v -0.760000 2.200000 2.200000
v -0.760000 1.000000 2.200000
v -0.800000 0.400000 2.200000
v -0.800000 0.000000 2.200000
v -0.800000 2.200000 2.200000
v -2.000000 0.000000 0.800000
v -2.000000 2.200000 0.800000
v -0.800000 0.400000 0.800000
v -3.000000 2.200000 0.800000
v -3.000000 0.000000 0.800000
v -3.000000 0.000000 -0.800000
v -3.000000 2.200000 -0.800000
v -2.000000 0.400000 0.800000
v -0.800000 0.400000 3.000000
v -3.000000 0.400000 0.800000
v -0.800000 0.000000 3.000000
v -0.800000 2.200000 3.000000
v -0.800000 0.000000 0.800000
v -0.800000 2.200000 0.800000
v -0.800000 0.000000 2.000000
v -0.800000 2.200000 2.000000
v -0.800000 0.400000 2.000000
v -0.100000 0.000000 -0.760000
v -0.100000 0.000000 -0.800000
v -0.760000 0.000000 2.200000
v -0.760000 2.200000 2.000000
v -0.760000 1.000000 2.000000
v -0.760000 0.000000 2.000000
v -2.200000 0.000000 0.800000
v -2.200000 2.200000 0.800000
v -2.200000 0.400000 0.800000
v -2.000000 0.000000 0.760000
v -2.000000 1.000000 0.760000
v -2.000000 2.200000 0.760000
v -2.200000 0.000000 0.760000
v -2.200000 2.200000 0.760000
v -2.200000 1.000000 0.760000
v 0.000000 0.000000 -0.760000
v 0.000000 0.000000 0.800000
v 0.000000 0.000000 3.000000
v 0.000000 2.200000 0.800000
v 0.000000 2.200000 3.000000
v -2.000000 2.200000 -0.800000
v -2.000000 0.000000 -0.800000
v -2.200000 2.200000 -0.800000
v -2.200000 0.000000 -0.800000
v -2.000000 2.200000 -0.760000
v -2.000000 0.000000 -0.760000
v -2.200000 0.000000 -0.760000
v -2.200000 2.200000 -0.760000
v -3.000000 0.400000 -0.800000
v -2.200000 0.400000 -0.800000
v -2.200000 1.000000 -0.760000
v -2.000000 0.400000 -0.800000
v -2.000000 1.000000 -0.760000
v 0.000000 0.000000 -0.760000
v -0.850000 0.400000 -0.800000
vt 0.420346 0.114566
vt 0.420322 0.124838
vt 0.420143 0.124836
vt 0.420178 0.109430
vt 0.420143 0.106005
vt 0.420257 0.106004
vt 0.116059 0.037273
vt 0.346112 0.120449
vt 0.345439 0.120449
vt 0.345439 0.108342
vt 0.345439 0.098252
vt 0.346112 0.098252
vt 0.346112 0.108342
vt 0.957590 0.050688
vt 0.957472 0.050689
vt 0.957425 0.043946
vt 0.957425 0.031595
vt 0.957590 0.031595
vt 0.957590 0.036535
vt 0.273022 0.109350
vt 0.273026 0.099997
vt 0.275104 0.099998
vt 0.275101 0.109351
vt 0.178969 0.107187
vt 0.172695 0.107187
vt 0.172695 0.100913
vt 0.178969 0.100913
vt 0.283445 0.099995
vt 0.283445 0.109348
vt 0.282059 0.109348
vt 0.282059 0.099995
vt 0.183168 0.119751
vt 0.183168 0.113477
vt 0.187350 0.113477
vt 0.187350 0.119751
vt 0.243010 0.111001
vt 0.241827 0.110574
vt 0.242254 0.109391
vt 0.242681 0.108207
vt 0.243864 0.108635
vt 0.244160 0.108741
vt 0.246226 0.109382
vt 0.245459 0.110645
vt 0.244862 0.111701
vt 0.243306 0.111107
vt 0.185251 0.100913
vt 0.185251 0.107187
vt 0.277188 0.109348
vt 0.277192 0.099995
vt 0.279270 0.099996
vt 0.279267 0.109349
vt 0.178977 0.119751
vt 0.178977 0.113477
vt 0.280662 0.099995
vt 0.280662 0.109348
vt 0.420554 0.118355
vt 0.420554 0.106004
vt 0.420719 0.106004
vt 0.420719 0.110945
vt 0.420719 0.125097
vt 0.420601 0.125099
vt 0.420722 0.118355
vt 0.420887 0.106004
vt 0.420887 0.110945
vt 0.420887 0.125097
vt 0.420769 0.125099
vt 0.344763 0.108342
vt 0.344763 0.098252
vt 0.344763 0.120449
vt 0.346791 0.120449
vt 0.346791 0.108342
vt 0.346791 0.098252
vt 0.347463 0.098252
vt 0.347463 0.108342
vt 0.347463 0.120449
vt 0.419731 0.124836
vt 0.419766 0.109430
vt 0.419731 0.106005
vt 0.419845 0.106004
vt 0.419934 0.114566
vt 0.419910 0.124838
vt 0.420384 0.109430
vt 0.420463 0.106004
vt 0.420551 0.114566
vt 0.420528 0.124838
vt 0.421054 0.106004
vt 0.421054 0.110945
vt 0.421054 0.125097
vt 0.420890 0.118355
vt 0.419972 0.109430
vt 0.419937 0.106005
vt 0.420140 0.114566
vt 0.183160 0.107195
vt 0.275110 0.109348
vt 0.191524 0.100913
vt 0.191524 0.107187
vt 0.279276 0.109354
vt 0.280662 0.109354
vt 0.280662 0.118706
vt 0.279276 0.118706
vt 0.187350 0.107195
vt 0.125276 0.099626
vt 0.125276 0.106331
vt 0.125276 0.108008
vt 0.125276 0.118066
vt 0.118571 0.118066
vt 0.111865 0.118066
vt 0.111865 0.108008
vt 0.111865 0.106331
vt 0.111865 0.099626
vt 0.118571 0.099626
vt 0.247675 0.111685
vt 0.246238 0.112448
vt 0.248589 0.108783
vt 0.249755 0.108361
vt 0.250600 0.110693
vt 0.249434 0.111115
vt 0.249142 0.111221
vt 0.248297 0.108889
vt 0.101807 0.118066
vt 0.111446 0.131477
vt 0.101807 0.131477
vt 0.100131 0.131477
vt 0.093425 0.131477
vt 0.093425 0.118066
vt 0.100131 0.118066
vt 0.125276 0.131477
vt 0.119409 0.131477
vt 0.117732 0.131477
vt 0.270251 0.109349
vt 0.270254 0.099996
vt 0.178969 0.115551
vt 0.172695 0.115551
vt 0.178969 0.124177
vt 0.178969 0.130189
vt 0.172695 0.130189
vt 0.172695 0.124177
vt 0.267393 0.109348
vt 0.267397 0.099995
vt 0.265402 0.109348
vt 0.265405 0.099995
vn 0.000000 0.000000 -1.000000
vn 0.000000 1.000000 0.000000
vn 0.000000 -1.000000 0.000000
vn -1.000000 0.000000 0.000000
vn -0.000000 0.000000 1.000000
vn 1.000000 0.000000 0.000000
usemtl TunnelMain
s off
f 19/1/1 18/2/1 13/3/1 14/4/1 12/5/1 20/6/1
f 13/7/2 18/7/2 1/7/2 5/7/2
f 4/7/3 17/7/3 20/7/3 12/7/3
f 1/8/4 18/9/4 19/10/4 20/11/4 17/12/4 2/13/4
f 5/14/5 1/15/5 2/16/5 17/17/5 4/18/5 3/19/5
f 11/20/4 6/21/4 14/22/4 13/23/4
f 6/24/4 10/25/4 12/26/4 14/27/4
f 7/28/4 9/29/4 5/30/4 3/31/4
f 3/32/4 4/33/4 8/34/4 7/35/4
f 5/36/3 9/37/3 67/38/3 42/39/3 30/40/3 46/41/3 44/42/3 66/43/3 11/44/3 13/45/3
f 33/46/1 43/47/1 31/24/1 38/27/1
f 44/48/1 33/49/1 38/50/1 32/51/1
f 40/32/1 56/52/1 54/53/1 35/33/1
f 40/54/1 34/55/1 55/51/1 56/50/1
f 52/56/1 53/57/1 45/58/1 47/59/1 46/60/1 51/61/1
f 62/62/4 60/58/4 54/63/4 56/64/4 55/65/4 61/66/4
f 46/7/2 30/7/2 26/7/2 51/7/2
f 29/7/3 45/7/3 53/7/3 50/7/3
f 55/7/2 32/7/2 59/7/2 61/7/2
f 58/67/1 57/68/1 60/11/1 62/10/1 61/9/1 59/69/1
f 26/70/6 27/71/6 50/72/6 53/73/6 52/74/6 51/75/6
f 32/76/6 38/77/6 31/78/6 57/79/6 58/80/6 59/81/6
f 31/7/3 54/7/3 60/7/3 57/7/3
f 30/2/5 28/82/5 29/6/5 50/83/5 27/84/5 26/85/5
f 72/70/5 75/8/5 78/13/5 74/12/5 73/72/5 80/71/5
f 69/7/3 73/7/3 74/7/3 71/7/3
f 70/7/2 75/7/2 72/7/2 68/7/2
f 69/86/6 79/87/6 68/88/6 72/65/6 80/89/6 73/63/6
f 70/81/4 77/90/4 71/91/4 74/5/4 78/92/4 75/3/4
f 76/54/5 77/31/5 70/30/5 37/55/5
f 76/53/5 36/24/5 71/93/5 77/33/5
f 44/48/6 46/94/6 47/22/6 33/49/6
f 33/46/6 47/95/6 45/96/6 43/47/6
f 39/97/6 28/98/6 30/99/6 42/100/6
f 28/34/6 39/33/6 41/93/6 29/101/6
f 8/102/2 4/103/2 12/104/2 10/105/2 64/106/2 43/107/2 45/108/2 29/109/2 41/110/2 65/111/2
f 66/43/3 44/42/3 23/112/3 24/113/3 11/44/3
f 55/114/3 34/115/3 37/116/3 70/117/3 68/118/3 23/112/3 44/42/3 32/119/3
f 31/120/2 43/107/2 21/121/2 69/122/2 71/123/2 36/124/2 35/125/2 54/126/2
f 10/105/2 22/127/2 16/128/2 49/129/2 21/121/2 43/107/2 64/106/2
f 11/20/4 24/130/4 25/131/4 6/21/4
f 6/24/4 25/132/4 22/133/4 10/25/4
f 25/132/5 82/134/5 79/135/5 69/136/5 21/137/5 22/133/5
f 25/131/5 24/130/5 23/138/5 82/139/5
f 82/139/5 23/138/5 68/140/5 79/141/5
l 15 63
l 15 81
l 48 63
l 48 81
