# Blender v2.76 (sub 0) OBJ File: 'tunnel3.blend'
# www.blender.org
mtllib tunnel3.mtl
g Tunnel3
v 3.000000 2.000000 -1.000000
v 3.000000 0.000000 -1.000000
v 3.000000 2.000000 1.000000
v 3.000000 0.000000 1.000000
v -1.000000 2.000000 -3.000000
v -1.000000 0.000000 -3.000000
v 1.000000 2.000000 -3.000000
v 1.000000 0.000000 -3.000000
v -3.000000 2.000000 1.000000
v -3.000000 0.000000 1.000000
v -3.000000 2.000000 -1.000000
v -3.000000 0.000000 -1.000000
vt 0.356988 0.734324
vt 0.053145 0.734324
vt 0.053145 0.519475
vt 0.356988 0.519475
vt 0.053145 0.734426
vt 0.356988 0.734426
vt 0.356988 0.949275
vt 0.053145 0.949275
vt 0.693978 0.158797
vt 0.970084 0.158797
vt 0.970084 0.987114
vt 0.693978 0.987114
vt 0.027747 0.026176
vt 0.644128 0.026176
vt 0.644128 0.231636
vt 0.438668 0.437096
vt 0.233207 0.437096
vt 0.027747 0.231636
vn -0.707100 0.000000 0.707100
vn 0.707100 0.000000 0.707100
vn 0.000000 0.000000 -1.000000
vn 0.000000 -1.000000 0.000000
vn 0.000000 1.000000 0.000000
usemtl Tunnel3
s off
f 8/1/1 2/2/1 1/3/1 7/4/1
f 12/5/2 6/6/2 5/7/2 11/8/2
usemtl Tunnel3_NONE
f 10/9/3 9/10/3 3/11/3 4/12/3
f 3/13/4 9/14/4 11/15/4 5/16/4 7/17/4 1/18/4
f 4/14/5 2/15/5 8/16/5 6/17/5 12/18/5 10/13/5
