# Blender v2.76 (sub 0) OBJ File: 'Tunnelc4.blend'
# www.blender.org
mtllib Tunnelc4.mtl
g Tunnela1
v 0.760000 2.200000 2.200000
v 0.760000 1.000000 2.200000
v 0.800000 0.400000 2.200000
v 0.800000 0.000000 2.200000
v 0.800000 2.200000 2.200000
v 0.800000 0.400000 0.800000
v 0.800000 0.400000 3.000000
v 0.800000 0.000000 3.000000
v 0.800000 2.200000 3.000000
v 0.800000 0.000000 0.800000
v 0.800000 2.200000 0.800000
v 0.800000 0.000000 2.000000
v 0.800000 2.200000 2.000000
v 0.800000 0.400000 2.000000
v 0.100000 0.000000 -0.760000
v 0.100000 0.000000 -0.800000
v 0.760000 0.000000 2.200000
v 0.760000 2.200000 2.000000
v 0.760000 1.000000 2.000000
v 0.760000 0.000000 2.000000
v -0.850000 0.000000 -0.800000
v 0.800000 0.000000 -0.800000
v -0.850000 2.200000 -0.800000
v 0.800000 2.200000 -0.800000
v 0.800000 0.400000 -0.800000
v -0.760000 2.200000 2.200000
v -0.760000 1.000000 2.200000
v -0.800000 0.400000 2.200000
v -0.800000 0.000000 2.200000
v -0.800000 2.200000 2.200000
v -2.000000 0.000000 0.800000
v -2.000000 2.200000 0.800000
v -0.800000 0.400000 0.800000
v -3.000000 2.200000 0.800000
v -3.000000 0.000000 0.800000
v -3.000000 0.000000 -0.800000
v -3.000000 2.200000 -0.800000
v -2.000000 0.400000 0.800000
v -0.800000 0.400000 3.000000
v -3.000000 0.400000 0.800000
v -0.800000 0.000000 3.000000
v -0.800000 2.200000 3.000000
v -0.800000 0.000000 0.800000
v -0.800000 2.200000 0.800000
v -0.800000 0.000000 2.000000
v -0.800000 2.200000 2.000000
v -0.800000 0.400000 2.000000
v -0.100000 0.000000 -0.760000
v -0.100000 0.000000 -0.800000
v -0.760000 0.000000 2.200000
v -0.760000 2.200000 2.000000
v -0.760000 1.000000 2.000000
v -0.760000 0.000000 2.000000
v -2.200000 0.000000 0.800000
v -2.200000 2.200000 0.800000
v -2.200000 0.400000 0.800000
v -2.000000 0.000000 0.760000
v -2.000000 1.000000 0.760000
v -2.000000 2.200000 0.760000
v -2.200000 0.000000 0.760000
v -2.200000 2.200000 0.760000
v -2.200000 1.000000 0.760000
v 0.000000 0.000000 -0.760000
v 0.000000 0.000000 0.800000
v 0.000000 0.000000 3.000000
v 0.000000 2.200000 0.800000
v 0.000000 2.200000 3.000000
v -2.000000 2.200000 -0.800000
v -2.000000 0.000000 -0.800000
v -2.200000 2.200000 -0.800000
v -2.200000 0.000000 -0.800000
v -2.000000 2.200000 -0.760000
v -2.000000 0.000000 -0.760000
v -2.200000 0.000000 -0.760000
v -2.200000 2.200000 -0.760000
v -3.000000 0.400000 -0.800000
v -2.200000 0.400000 -0.800000
v -2.200000 1.000000 -0.760000
v -2.000000 0.400000 -0.800000
v -2.000000 1.000000 -0.760000
v 0.000000 0.000000 -0.760000
v -0.850000 0.400000 -0.800000
vt 0.959814 0.027755
vt 0.959790 0.038027
vt 0.959611 0.038025
vt 0.959646 0.022619
vt 0.959611 0.019194
vt 0.959725 0.019193
vt 0.116059 0.037273
vt 0.026771 0.042939
vt 0.026099 0.042939
vt 0.026099 0.030832
vt 0.026099 0.020743
vt 0.026771 0.020743
vt 0.026771 0.030832
vt 0.957590 0.050688
vt 0.957472 0.050689
vt 0.957425 0.043946
vt 0.957425 0.031595
vt 0.957590 0.031595
vt 0.957590 0.036535
vt 0.893101 0.031840
vt 0.893104 0.022488
vt 0.895182 0.022488
vt 0.895179 0.031841
vt 0.957167 0.020376
vt 0.950894 0.020376
vt 0.950894 0.014102
vt 0.957167 0.014102
vt 0.903523 0.022485
vt 0.903523 0.031838
vt 0.902138 0.031838
vt 0.902138 0.022485
vt 0.961367 0.032940
vt 0.961367 0.026666
vt 0.965549 0.026666
vt 0.965549 0.032940
vt 0.863089 0.033491
vt 0.861906 0.033064
vt 0.862333 0.031881
vt 0.862760 0.030698
vt 0.863943 0.031125
vt 0.864239 0.031231
vt 0.866305 0.031872
vt 0.865537 0.033135
vt 0.864940 0.034191
vt 0.863385 0.033598
vt 0.963449 0.014102
vt 0.963449 0.020376
vt 0.897267 0.031838
vt 0.897270 0.022486
vt 0.899349 0.022486
vt 0.899345 0.031839
vt 0.957176 0.032940
vt 0.957176 0.026666
vt 0.900740 0.022485
vt 0.900740 0.031838
vt 0.899355 0.031838
vt 0.899355 0.022485
vt 0.960023 0.031544
vt 0.960023 0.019193
vt 0.960187 0.019193
vt 0.960187 0.024134
vt 0.960187 0.038286
vt 0.960070 0.038288
vt 0.960190 0.031544
vt 0.960355 0.019193
vt 0.960355 0.024134
vt 0.960355 0.038286
vt 0.025423 0.030832
vt 0.025423 0.020743
vt 0.025423 0.042939
vt 0.027450 0.042939
vt 0.027450 0.030832
vt 0.027450 0.020743
vt 0.028123 0.020743
vt 0.028123 0.030832
vt 0.028123 0.042939
vt 0.959199 0.038025
vt 0.959234 0.022619
vt 0.959199 0.019194
vt 0.959313 0.019193
vt 0.959402 0.027755
vt 0.959378 0.038027
vt 0.959852 0.022619
vt 0.959817 0.019194
vt 0.959931 0.019193
vt 0.960020 0.027755
vt 0.959996 0.038027
vt 0.027447 0.042939
vt 0.027447 0.020743
vt 0.027447 0.030832
vt 0.960523 0.019193
vt 0.960523 0.024134
vt 0.960523 0.038286
vt 0.960358 0.031544
vt 0.959440 0.022619
vt 0.959405 0.019194
vt 0.959519 0.019193
vt 0.959608 0.027755
vt 0.961358 0.020384
vt 0.969723 0.014102
vt 0.969723 0.020376
vt 0.900740 0.041196
vt 0.899355 0.041196
vt 0.965549 0.020384
vt 0.745425 0.018946
vt 0.745425 0.026986
vt 0.745425 0.028996
vt 0.745425 0.041057
vt 0.737384 0.041057
vt 0.729344 0.041057
vt 0.729344 0.028996
vt 0.729344 0.026986
vt 0.729344 0.018946
vt 0.737384 0.018946
vt 0.867754 0.034175
vt 0.866316 0.034938
vt 0.868667 0.031273
vt 0.869833 0.030851
vt 0.870678 0.033183
vt 0.869512 0.033606
vt 0.869221 0.033711
vt 0.868376 0.031379
vt 0.717283 0.041057
vt 0.728841 0.057137
vt 0.717283 0.057137
vt 0.715273 0.057137
vt 0.707233 0.057137
vt 0.707233 0.041057
vt 0.715273 0.041057
vt 0.745425 0.057137
vt 0.738389 0.057137
vt 0.736379 0.057137
vt 0.890330 0.031839
vt 0.890333 0.022487
vt 0.957167 0.028740
vt 0.950894 0.028740
vt 0.957167 0.037366
vt 0.957167 0.043378
vt 0.950894 0.043378
vt 0.950894 0.037366
vt 0.887472 0.031838
vt 0.887475 0.022486
vt 0.885480 0.031838
vt 0.885483 0.022485
vn 0.000000 0.000000 -1.000000
vn 0.000000 1.000000 0.000000
vn 0.000000 -1.000000 0.000000
vn -1.000000 0.000000 0.000000
vn -0.000000 0.000000 1.000000
vn 1.000000 0.000000 0.000000
usemtl TunnelMain
s off
f 19/1/1 18/2/1 13/3/1 14/4/1 12/5/1 20/6/1
f 13/7/2 18/7/2 1/7/2 5/7/2
f 4/7/3 17/7/3 20/7/3 12/7/3
f 1/8/4 18/9/4 19/10/4 20/11/4 17/12/4 2/13/4
f 5/14/5 1/15/5 2/16/5 17/17/5 4/18/5 3/19/5
f 11/20/4 6/21/4 14/22/4 13/23/4
f 6/24/4 10/25/4 12/26/4 14/27/4
f 7/28/4 9/29/4 5/30/4 3/31/4
f 3/32/4 4/33/4 8/34/4 7/35/4
f 5/36/3 9/37/3 67/38/3 42/39/3 30/40/3 46/41/3 44/42/3 66/43/3 11/44/3 13/45/3
f 33/46/1 43/47/1 31/24/1 38/27/1
f 44/48/1 33/49/1 38/50/1 32/51/1
f 40/32/1 56/52/1 54/53/1 35/33/1
f 40/54/1 34/55/1 55/56/1 56/57/1
f 52/58/1 53/59/1 45/60/1 47/61/1 46/62/1 51/63/1
f 62/64/4 60/60/4 54/65/4 56/66/4 55/67/4 61/62/4
f 46/7/2 30/7/2 26/7/2 51/7/2
f 29/7/3 45/7/3 53/7/3 50/7/3
f 55/7/2 32/7/2 59/7/2 61/7/2
f 58/68/1 57/69/1 60/11/1 62/10/1 61/9/1 59/70/1
f 26/71/6 27/72/6 50/73/6 53/74/6 52/75/6 51/76/6
f 32/77/6 38/78/6 31/79/6 57/80/6 58/81/6 59/82/6
f 31/7/3 54/7/3 60/7/3 57/7/3
f 30/2/5 28/83/5 29/84/5 50/85/5 27/86/5 26/87/5
f 72/88/5 75/8/5 78/13/5 74/12/5 73/89/5 80/90/5
f 69/7/3 73/7/3 74/7/3 71/7/3
f 70/7/2 75/7/2 72/7/2 68/7/2
f 69/91/6 79/92/6 68/93/6 72/67/6 80/94/6 73/65/6
f 70/82/4 77/95/4 71/96/4 74/97/4 78/98/4 75/3/4
f 76/54/5 77/31/5 70/30/5 37/55/5
f 76/53/5 36/24/5 71/99/5 77/33/5
f 44/48/6 46/23/6 47/22/6 33/49/6
f 33/46/6 47/100/6 45/101/6 43/47/6
f 39/56/6 28/55/6 30/102/6 42/103/6
f 28/34/6 39/33/6 41/99/6 29/104/6
f 8/105/2 4/106/2 12/107/2 10/108/2 64/109/2 43/110/2 45/111/2 29/112/2 41/113/2 65/114/2
f 66/43/3 44/42/3 23/115/3 24/116/3 11/44/3
f 55/117/3 34/118/3 37/119/3 70/120/3 68/121/3 23/115/3 44/42/3 32/122/3
f 31/123/2 43/110/2 21/124/2 69/125/2 71/126/2 36/127/2 35/128/2 54/129/2
f 10/108/2 22/130/2 16/131/2 49/132/2 21/124/2 43/110/2 64/109/2
f 11/20/4 24/133/4 25/134/4 6/21/4
f 6/24/4 25/135/4 22/136/4 10/25/4
f 25/135/5 82/137/5 79/138/5 69/139/5 21/140/5 22/136/5
f 25/134/5 24/133/5 23/141/5 82/142/5
f 82/142/5 23/141/5 68/143/5 79/144/5
l 15 63
l 15 81
l 48 63
l 48 81
