# Blender v2.76 (sub 0) OBJ File: 'Walla1.blend'
# www.blender.org
mtllib Walla1.mtl
g Tunnela1
v 2.000000 -0.200000 -0.100000
v 2.000000 2.400000 -0.100000
v 3.000000 -0.200000 -0.100000
v 3.000000 2.400000 -0.100000
v 2.200000 2.400000 -0.100000
v 2.200000 -0.200000 -0.100000
v 0.100000 -0.200000 -0.100000
v 0.100000 2.400000 -0.100000
v 2.200000 0.400000 -0.100000
v 3.000000 0.400000 -0.100000
v 2.000000 0.400000 -0.100000
v 0.100000 0.400000 -0.100000
v -2.000000 -0.200000 -0.100000
v -2.000000 2.400000 -0.100000
v -3.000000 -0.200000 -0.100000
v -3.000000 2.400000 -0.100000
v -2.200000 2.400000 -0.100000
v -2.200000 -0.200000 -0.100000
v -0.100000 -0.200000 -0.100000
v -0.100000 2.400000 -0.100000
v -2.200000 0.400000 -0.100000
v -3.000000 0.400000 -0.100000
v -2.000000 0.400000 -0.100000
v -0.100000 0.400000 -0.100000
v 0.100000 1.000000 -0.140000
v 0.100000 2.400000 -0.140000
v 0.100000 -0.200000 -0.140000
v -0.100000 1.000000 -0.140000
v -0.100000 2.400000 -0.140000
v -0.100000 -0.200000 -0.140000
v 2.000000 -0.200000 0.100000
v 2.000000 2.400000 0.100000
v 3.000000 -0.200000 0.100000
v 3.000000 2.400000 0.100000
v 2.200000 2.400000 0.100000
v 2.200000 -0.200000 0.100000
v 0.100000 -0.200000 0.100000
v 0.100000 2.400000 0.100000
v 2.200000 0.400000 0.100000
v 3.000000 0.400000 0.100000
v 2.000000 0.400000 0.100000
v 0.100000 0.400000 0.100000
v -2.000000 -0.200000 0.100000
v -2.000000 2.400000 0.100000
v -3.000000 -0.200000 0.100000
v -3.000000 2.400000 0.100000
v -2.200000 2.400000 0.100000
v -2.200000 -0.200000 0.100000
v -0.100000 -0.200000 0.100000
v -0.100000 2.400000 0.100000
v -2.200000 0.400000 0.100000
v -3.000000 0.400000 0.100000
v -2.000000 0.400000 0.100000
v -0.100000 0.400000 0.100000
v 0.100000 1.000000 0.140000
v 0.100000 2.400000 0.140000
v 0.100000 -0.200000 0.140000
v -0.100000 1.000000 0.140000
v -0.100000 2.400000 0.140000
v -0.100000 -0.200000 0.140000
vt 0.030008 0.046934
vt 0.030008 0.045354
vt 0.030008 0.044959
vt 0.030008 0.041207
vt 0.040672 0.041207
vt 0.040672 0.044959
vt 0.040672 0.045354
vt 0.040672 0.046934
vt 0.188404 0.031250
vt 0.178888 0.031250
vt 0.178888 0.025239
vt 0.188404 0.025239
vt 0.189406 0.025239
vt 0.193412 0.025239
vt 0.193412 0.031250
vt 0.189406 0.031250
vt 0.349208 0.027404
vt 0.349198 0.047962
vt 0.348985 0.047752
vt 0.349017 0.035990
vt 0.348985 0.022567
vt 0.349157 0.022303
vt 0.119092 0.041330
vt 0.120064 0.041330
vt 0.120064 0.041524
vt 0.119092 0.041524
vt 0.347868 0.048010
vt 0.347859 0.027248
vt 0.347918 0.022352
vt 0.348078 0.022539
vt 0.348052 0.035981
vt 0.348095 0.047724
vt 0.039229 0.034202
vt 0.016274 0.034202
vt 0.016274 0.029611
vt 0.039229 0.029611
vt 0.269456 0.037015
vt 0.269398 0.066552
vt 0.267406 0.066491
vt 0.267336 0.036997
vt 0.267406 0.011152
vt 0.269362 0.011214
vt 0.030008 0.035084
vt 0.040672 0.035084
vt 0.040672 0.036664
vt 0.040672 0.037059
vt 0.040672 0.040812
vt 0.030008 0.040812
vt 0.030008 0.037059
vt 0.030008 0.036664
vt 0.178888 0.019224
vt 0.188404 0.019224
vt 0.189406 0.019224
vt 0.193412 0.019224
vt 0.051732 0.046934
vt 0.041067 0.046934
vt 0.041067 0.045354
vt 0.041067 0.044959
vt 0.041067 0.041207
vt 0.051732 0.041207
vt 0.051732 0.044959
vt 0.051732 0.045354
vt 0.199423 0.031250
vt 0.198421 0.031250
vt 0.194414 0.031250
vt 0.194414 0.025239
vt 0.198421 0.025239
vt 0.199423 0.025239
vt 0.208939 0.025239
vt 0.208939 0.031250
vt 0.119092 0.040359
vt 0.119092 0.040165
vt 0.120064 0.040165
vt 0.120064 0.040359
vt 0.039229 0.025016
vt 0.016274 0.025016
vt 0.051732 0.035084
vt 0.051732 0.036664
vt 0.051732 0.037059
vt 0.051732 0.040812
vt 0.041067 0.040812
vt 0.041067 0.037059
vt 0.041067 0.036664
vt 0.041067 0.035084
vt 0.194414 0.019224
vt 0.198421 0.019224
vt 0.199423 0.019224
vt 0.208939 0.019224
vt 0.032192 0.021986
vt 0.032192 0.040864
vt 0.109866 0.041330
vt 0.108895 0.041330
vt 0.105010 0.041330
vt 0.105010 0.040359
vt 0.108895 0.040359
vt 0.109866 0.040359
vt 0.129290 0.040359
vt 0.130261 0.040359
vt 0.134146 0.040359
vt 0.134146 0.041330
vt 0.130261 0.041330
vt 0.129290 0.041330
vn -0.000000 0.000000 -1.000000
vn -1.000000 0.000000 0.000000
vn 0.000000 -1.000000 0.000000
vn 1.000000 0.000000 0.000000
vn 0.000000 1.000000 0.000000
vn 0.000000 -0.000000 1.000000
usemtl TunnelMain
s off
f 10/1/1 9/2/1 11/3/1 12/4/1 8/5/1 2/6/1 5/7/1 4/8/1
f 1/9/1 7/10/1 12/11/1 11/12/1 9/13/1 10/14/1 3/15/1 6/16/1
f 24/17/2 20/18/2 29/19/2 28/20/2 30/21/2 19/22/2
f 7/23/3 19/24/3 30/25/3 27/26/3
f 8/27/4 12/28/4 7/29/4 27/30/4 25/31/4 26/32/4
f 20/33/5 8/34/5 26/35/5 29/36/5
f 25/37/1 27/38/1 30/39/1 28/40/1 29/41/1 26/42/1
f 22/43/1 16/44/1 17/45/1 14/46/1 20/47/1 24/48/1 23/49/1 21/50/1
f 23/12/1 24/11/1 19/51/1 13/52/1 18/53/1 15/54/1 22/14/1 21/13/1
f 40/55/6 34/56/6 35/57/6 32/58/6 38/59/6 42/60/6 41/61/6 39/62/6
f 31/63/6 36/64/6 33/65/6 40/66/6 39/67/6 41/68/6 42/69/6 37/70/6
f 54/17/2 49/22/2 60/21/2 58/20/2 59/19/2 50/18/2
f 37/71/3 57/72/3 60/73/3 49/74/3
f 38/27/4 56/32/4 55/31/4 57/30/4 37/29/4 42/28/4
f 50/75/5 59/36/5 56/35/5 38/76/5
f 55/37/6 56/42/6 59/41/6 58/40/6 60/39/6 57/38/6
f 52/77/6 51/78/6 53/79/6 54/80/6 50/81/6 44/82/6 47/83/6 46/84/6
f 53/68/6 51/67/6 52/66/6 45/85/6 48/86/6 43/87/6 49/88/6 54/69/6
f 22/89/2 52/89/2 46/90/2 16/90/2
f 20/47/5 14/46/5 17/45/5 16/44/5 46/84/5 47/83/5 44/82/5 50/81/5 38/59/5 32/58/5 35/57/5 34/56/5 4/8/5 5/7/5 2/6/5 8/5/5
f 10/89/4 4/90/4 34/90/4 40/89/4
f 3/15/4 10/14/4 40/66/4 33/65/4
f 15/54/2 45/85/2 52/66/2 22/14/2
f 19/24/3 7/23/3 1/91/3 6/92/3 3/93/3 33/94/3 36/95/3 31/96/3 37/71/3 49/74/3 43/97/3 48/98/3 45/99/3 15/100/3 18/101/3 13/102/3
